%TF.GenerationSoftware,KiCad,Pcbnew,5.1.7-a382d34a8~87~ubuntu20.04.1*%
%TF.CreationDate,2020-10-26T14:53:32+05:00*%
%TF.ProjectId,OneRing,4f6e6552-696e-4672-9e6b-696361645f70,rev?*%
%TF.SameCoordinates,Original*%
%TF.FileFunction,Copper,L2,Inr*%
%TF.FilePolarity,Positive*%
%FSLAX46Y46*%
G04 Gerber Fmt 4.6, Leading zero omitted, Abs format (unit mm)*
G04 Created by KiCad (PCBNEW 5.1.7-a382d34a8~87~ubuntu20.04.1) date 2020-10-26 14:53:32*
%MOMM*%
%LPD*%
G01*
G04 APERTURE LIST*
%TA.AperFunction,ComponentPad*%
%ADD10C,1.600000*%
%TD*%
%TA.AperFunction,ComponentPad*%
%ADD11C,0.600000*%
%TD*%
%TA.AperFunction,ViaPad*%
%ADD12C,0.800000*%
%TD*%
%TA.AperFunction,Conductor*%
%ADD13C,0.600000*%
%TD*%
%TA.AperFunction,Conductor*%
%ADD14C,0.254000*%
%TD*%
%TA.AperFunction,Conductor*%
%ADD15C,0.100000*%
%TD*%
G04 APERTURE END LIST*
D10*
%TO.N,VAA*%
%TO.C,J2*%
X157000000Y-109000000D03*
%TD*%
%TO.N,GND*%
%TO.C,J3*%
X161000000Y-113000000D03*
%TD*%
D11*
%TO.N,GND*%
%TO.C,AE1*%
X170903180Y-96337342D03*
%TD*%
D12*
%TO.N,+3V3*%
X169200000Y-109000000D03*
X161900000Y-102800000D03*
X160500000Y-108900000D03*
X170250000Y-106250000D03*
%TO.N,VDD*%
X172500000Y-100800000D03*
X166100000Y-113850000D03*
X160800000Y-101200000D03*
%TO.N,/NRF_BTN*%
X165000000Y-111400000D03*
%TO.N,VDC*%
X159385000Y-104200000D03*
%TO.N,/V_BAT_PROT*%
X162750000Y-113850000D03*
%TO.N,+BATT*%
X156000000Y-106800000D03*
%TO.N,/NRF_PWR*%
X162800000Y-111400000D03*
%TO.N,GND*%
X170200000Y-112300000D03*
X167000000Y-99300000D03*
X168900000Y-99750000D03*
X168150000Y-100500000D03*
X167400000Y-101250000D03*
X170200000Y-99000000D03*
X170900000Y-99900000D03*
X171900000Y-99600000D03*
X173000000Y-99300000D03*
X174200000Y-99000000D03*
X159600000Y-98800000D03*
X158300000Y-98800000D03*
X157000000Y-98700000D03*
X155700000Y-98600000D03*
X160100000Y-97500000D03*
X160700000Y-96600000D03*
X161500000Y-95800000D03*
X162500000Y-95100000D03*
X163600000Y-94700000D03*
X164900000Y-94500000D03*
X166300000Y-94700000D03*
X167600000Y-95200000D03*
X160900000Y-110000000D03*
X165000000Y-105800000D03*
X165000000Y-104300000D03*
X165000000Y-107300000D03*
X160800000Y-104950000D03*
X165450000Y-99100000D03*
X167600000Y-98500000D03*
X169200000Y-106100000D03*
X158700000Y-109100000D03*
X166920000Y-112880000D03*
X156500000Y-101250000D03*
%TD*%
D13*
%TO.N,GND*%
X170903180Y-96337342D02*
X169000000Y-97520000D01*
%TD*%
D14*
%TO.N,GND*%
X165525196Y-94246433D02*
X166733614Y-94472397D01*
X167531560Y-94803253D01*
X168346107Y-95313571D01*
X169060130Y-95890659D01*
X169695871Y-96663328D01*
X170174903Y-97464973D01*
X170557228Y-98504113D01*
X170694702Y-99220942D01*
X170734276Y-99497961D01*
X170737531Y-99513619D01*
X170746443Y-99536866D01*
X170759718Y-99557927D01*
X170776848Y-99575994D01*
X170797173Y-99590371D01*
X170819913Y-99600507D01*
X170844193Y-99606012D01*
X170869080Y-99606675D01*
X170893619Y-99602469D01*
X174713363Y-98553912D01*
X174802180Y-99148204D01*
X174840000Y-100014406D01*
X174840000Y-101194884D01*
X174805824Y-101112376D01*
X174681612Y-100926480D01*
X174523520Y-100768388D01*
X174337624Y-100644176D01*
X174131067Y-100558617D01*
X173911788Y-100515000D01*
X173688212Y-100515000D01*
X173505804Y-100551283D01*
X173495226Y-100498102D01*
X173417205Y-100309744D01*
X173303937Y-100140226D01*
X173159774Y-99996063D01*
X172990256Y-99882795D01*
X172801898Y-99804774D01*
X172601939Y-99765000D01*
X172398061Y-99765000D01*
X172198102Y-99804774D01*
X172009744Y-99882795D01*
X171840226Y-99996063D01*
X171696063Y-100140226D01*
X171582795Y-100309744D01*
X171504774Y-100498102D01*
X171465000Y-100698061D01*
X171465000Y-100901939D01*
X171504774Y-101101898D01*
X171582795Y-101290256D01*
X171696063Y-101459774D01*
X171840226Y-101603937D01*
X172009744Y-101717205D01*
X172198102Y-101795226D01*
X172398061Y-101835000D01*
X172601939Y-101835000D01*
X172676608Y-101820147D01*
X172708617Y-101981067D01*
X172794176Y-102187624D01*
X172918388Y-102373520D01*
X173044868Y-102500000D01*
X172918388Y-102626480D01*
X172794176Y-102812376D01*
X172708617Y-103018933D01*
X172665000Y-103238212D01*
X172665000Y-103461788D01*
X172708617Y-103681067D01*
X172794176Y-103887624D01*
X172918388Y-104073520D01*
X173076480Y-104231612D01*
X173262376Y-104355824D01*
X173468933Y-104441383D01*
X173688212Y-104485000D01*
X173911788Y-104485000D01*
X174131067Y-104441383D01*
X174337624Y-104355824D01*
X174523520Y-104231612D01*
X174681612Y-104073520D01*
X174805824Y-103887624D01*
X174840001Y-103805114D01*
X174840001Y-104979819D01*
X174765430Y-106199045D01*
X174546513Y-107380213D01*
X174185281Y-108525895D01*
X173687116Y-109619020D01*
X173059448Y-110643282D01*
X172311628Y-111583421D01*
X171454811Y-112425413D01*
X170501769Y-113156708D01*
X169466710Y-113766404D01*
X168365052Y-114245418D01*
X167213237Y-114586601D01*
X166742708Y-114665340D01*
X166759774Y-114653937D01*
X166903937Y-114509774D01*
X167017205Y-114340256D01*
X167095226Y-114151898D01*
X167135000Y-113951939D01*
X167135000Y-113748061D01*
X167095226Y-113548102D01*
X167017205Y-113359744D01*
X166903937Y-113190226D01*
X166759774Y-113046063D01*
X166590256Y-112932795D01*
X166401898Y-112854774D01*
X166201939Y-112815000D01*
X165998061Y-112815000D01*
X165798102Y-112854774D01*
X165609744Y-112932795D01*
X165440226Y-113046063D01*
X165296063Y-113190226D01*
X165182795Y-113359744D01*
X165104774Y-113548102D01*
X165065000Y-113748061D01*
X165065000Y-113951939D01*
X165104774Y-114151898D01*
X165182795Y-114340256D01*
X165296063Y-114509774D01*
X165440226Y-114653937D01*
X165609744Y-114767205D01*
X165688246Y-114799722D01*
X164828285Y-114837268D01*
X163630709Y-114743017D01*
X163359144Y-114687767D01*
X163409774Y-114653937D01*
X163553937Y-114509774D01*
X163667205Y-114340256D01*
X163745226Y-114151898D01*
X163785000Y-113951939D01*
X163785000Y-113748061D01*
X163745226Y-113548102D01*
X163667205Y-113359744D01*
X163553937Y-113190226D01*
X163409774Y-113046063D01*
X163240256Y-112932795D01*
X163051898Y-112854774D01*
X162851939Y-112815000D01*
X162648061Y-112815000D01*
X162448102Y-112854774D01*
X162430243Y-112862172D01*
X162398787Y-112649870D01*
X162303603Y-112383708D01*
X162244897Y-112273876D01*
X162309744Y-112317205D01*
X162498102Y-112395226D01*
X162698061Y-112435000D01*
X162901939Y-112435000D01*
X163101898Y-112395226D01*
X163290256Y-112317205D01*
X163459774Y-112203937D01*
X163603937Y-112059774D01*
X163717205Y-111890256D01*
X163795226Y-111701898D01*
X163835000Y-111501939D01*
X163835000Y-111298061D01*
X163965000Y-111298061D01*
X163965000Y-111501939D01*
X164004774Y-111701898D01*
X164082795Y-111890256D01*
X164196063Y-112059774D01*
X164340226Y-112203937D01*
X164509744Y-112317205D01*
X164698102Y-112395226D01*
X164898061Y-112435000D01*
X165101939Y-112435000D01*
X165301898Y-112395226D01*
X165490256Y-112317205D01*
X165659774Y-112203937D01*
X165803937Y-112059774D01*
X165917205Y-111890256D01*
X165995226Y-111701898D01*
X166035000Y-111501939D01*
X166035000Y-111298061D01*
X165995226Y-111098102D01*
X165917205Y-110909744D01*
X165803937Y-110740226D01*
X165659774Y-110596063D01*
X165490256Y-110482795D01*
X165301898Y-110404774D01*
X165101939Y-110365000D01*
X164898061Y-110365000D01*
X164698102Y-110404774D01*
X164509744Y-110482795D01*
X164340226Y-110596063D01*
X164196063Y-110740226D01*
X164082795Y-110909744D01*
X164004774Y-111098102D01*
X163965000Y-111298061D01*
X163835000Y-111298061D01*
X163795226Y-111098102D01*
X163717205Y-110909744D01*
X163603937Y-110740226D01*
X163459774Y-110596063D01*
X163290256Y-110482795D01*
X163101898Y-110404774D01*
X162901939Y-110365000D01*
X162698061Y-110365000D01*
X162498102Y-110404774D01*
X162309744Y-110482795D01*
X162140226Y-110596063D01*
X161996063Y-110740226D01*
X161882795Y-110909744D01*
X161804774Y-111098102D01*
X161765000Y-111298061D01*
X161765000Y-111501939D01*
X161804774Y-111701898D01*
X161882795Y-111890256D01*
X161901758Y-111918635D01*
X161813097Y-112007296D01*
X161741514Y-111763329D01*
X161486004Y-111642429D01*
X161211816Y-111573700D01*
X160929488Y-111559783D01*
X160649870Y-111601213D01*
X160383708Y-111696397D01*
X160258486Y-111763329D01*
X160186903Y-112007298D01*
X161000000Y-112820395D01*
X161014143Y-112806253D01*
X161193748Y-112985858D01*
X161179605Y-113000000D01*
X161193748Y-113014143D01*
X161014143Y-113193748D01*
X161000000Y-113179605D01*
X160985858Y-113193748D01*
X160806253Y-113014143D01*
X160820395Y-113000000D01*
X160007298Y-112186903D01*
X159763329Y-112258486D01*
X159642429Y-112513996D01*
X159573700Y-112788184D01*
X159559783Y-113070512D01*
X159577395Y-113189378D01*
X159216920Y-112959731D01*
X158289980Y-112195621D01*
X157463070Y-111324240D01*
X156795816Y-110422498D01*
X156858665Y-110435000D01*
X157141335Y-110435000D01*
X157418574Y-110379853D01*
X157679727Y-110271680D01*
X157914759Y-110114637D01*
X158114637Y-109914759D01*
X158271680Y-109679727D01*
X158379853Y-109418574D01*
X158435000Y-109141335D01*
X158435000Y-108858665D01*
X158422945Y-108798061D01*
X159465000Y-108798061D01*
X159465000Y-109001939D01*
X159504774Y-109201898D01*
X159582795Y-109390256D01*
X159696063Y-109559774D01*
X159840226Y-109703937D01*
X160009744Y-109817205D01*
X160198102Y-109895226D01*
X160398061Y-109935000D01*
X160601939Y-109935000D01*
X160801898Y-109895226D01*
X160990256Y-109817205D01*
X161159774Y-109703937D01*
X161303937Y-109559774D01*
X161417205Y-109390256D01*
X161495226Y-109201898D01*
X161535000Y-109001939D01*
X161535000Y-108898061D01*
X168165000Y-108898061D01*
X168165000Y-109101939D01*
X168204774Y-109301898D01*
X168282795Y-109490256D01*
X168396063Y-109659774D01*
X168540226Y-109803937D01*
X168709744Y-109917205D01*
X168898102Y-109995226D01*
X169098061Y-110035000D01*
X169301939Y-110035000D01*
X169501898Y-109995226D01*
X169690256Y-109917205D01*
X169859774Y-109803937D01*
X170003937Y-109659774D01*
X170117205Y-109490256D01*
X170195226Y-109301898D01*
X170235000Y-109101939D01*
X170235000Y-108898061D01*
X170195226Y-108698102D01*
X170117205Y-108509744D01*
X170003937Y-108340226D01*
X169859774Y-108196063D01*
X169690256Y-108082795D01*
X169501898Y-108004774D01*
X169301939Y-107965000D01*
X169098061Y-107965000D01*
X168898102Y-108004774D01*
X168709744Y-108082795D01*
X168540226Y-108196063D01*
X168396063Y-108340226D01*
X168282795Y-108509744D01*
X168204774Y-108698102D01*
X168165000Y-108898061D01*
X161535000Y-108898061D01*
X161535000Y-108798061D01*
X161495226Y-108598102D01*
X161417205Y-108409744D01*
X161303937Y-108240226D01*
X161159774Y-108096063D01*
X160990256Y-107982795D01*
X160801898Y-107904774D01*
X160601939Y-107865000D01*
X160398061Y-107865000D01*
X160198102Y-107904774D01*
X160009744Y-107982795D01*
X159840226Y-108096063D01*
X159696063Y-108240226D01*
X159582795Y-108409744D01*
X159504774Y-108598102D01*
X159465000Y-108798061D01*
X158422945Y-108798061D01*
X158379853Y-108581426D01*
X158271680Y-108320273D01*
X158114637Y-108085241D01*
X157914759Y-107885363D01*
X157679727Y-107728320D01*
X157418574Y-107620147D01*
X157141335Y-107565000D01*
X156858665Y-107565000D01*
X156658441Y-107604828D01*
X156659774Y-107603937D01*
X156803937Y-107459774D01*
X156917205Y-107290256D01*
X156995226Y-107101898D01*
X157035000Y-106901939D01*
X157035000Y-106698061D01*
X156995226Y-106498102D01*
X156917205Y-106309744D01*
X156809173Y-106148061D01*
X169215000Y-106148061D01*
X169215000Y-106351939D01*
X169254774Y-106551898D01*
X169332795Y-106740256D01*
X169446063Y-106909774D01*
X169590226Y-107053937D01*
X169759744Y-107167205D01*
X169948102Y-107245226D01*
X170148061Y-107285000D01*
X170351939Y-107285000D01*
X170551898Y-107245226D01*
X170740256Y-107167205D01*
X170909774Y-107053937D01*
X171053937Y-106909774D01*
X171167205Y-106740256D01*
X171245226Y-106551898D01*
X171285000Y-106351939D01*
X171285000Y-106148061D01*
X171245226Y-105948102D01*
X171167205Y-105759744D01*
X171053937Y-105590226D01*
X170909774Y-105446063D01*
X170740256Y-105332795D01*
X170551898Y-105254774D01*
X170351939Y-105215000D01*
X170148061Y-105215000D01*
X169948102Y-105254774D01*
X169759744Y-105332795D01*
X169590226Y-105446063D01*
X169446063Y-105590226D01*
X169332795Y-105759744D01*
X169254774Y-105948102D01*
X169215000Y-106148061D01*
X156809173Y-106148061D01*
X156803937Y-106140226D01*
X156659774Y-105996063D01*
X156567303Y-105934276D01*
X156687424Y-105814155D01*
X156784277Y-105669205D01*
X156850990Y-105508145D01*
X156885000Y-105337165D01*
X156885000Y-105162835D01*
X156850990Y-104991855D01*
X156784277Y-104830795D01*
X156687424Y-104685845D01*
X156564155Y-104562576D01*
X156419205Y-104465723D01*
X156258145Y-104399010D01*
X156087165Y-104365000D01*
X155912835Y-104365000D01*
X155741855Y-104399010D01*
X155580795Y-104465723D01*
X155435845Y-104562576D01*
X155312576Y-104685845D01*
X155215723Y-104830795D01*
X155160000Y-104965323D01*
X155160000Y-104098061D01*
X158350000Y-104098061D01*
X158350000Y-104301939D01*
X158389774Y-104501898D01*
X158467795Y-104690256D01*
X158581063Y-104859774D01*
X158725226Y-105003937D01*
X158894744Y-105117205D01*
X159083102Y-105195226D01*
X159283061Y-105235000D01*
X159486939Y-105235000D01*
X159686898Y-105195226D01*
X159875256Y-105117205D01*
X160044774Y-105003937D01*
X160188937Y-104859774D01*
X160302205Y-104690256D01*
X160380226Y-104501898D01*
X160420000Y-104301939D01*
X160420000Y-104098061D01*
X160380226Y-103898102D01*
X160302205Y-103709744D01*
X160188937Y-103540226D01*
X160044774Y-103396063D01*
X159875256Y-103282795D01*
X159686898Y-103204774D01*
X159486939Y-103165000D01*
X159283061Y-103165000D01*
X159083102Y-103204774D01*
X158894744Y-103282795D01*
X158725226Y-103396063D01*
X158581063Y-103540226D01*
X158467795Y-103709744D01*
X158389774Y-103898102D01*
X158350000Y-104098061D01*
X155160000Y-104098061D01*
X155160000Y-101098061D01*
X159765000Y-101098061D01*
X159765000Y-101301939D01*
X159804774Y-101501898D01*
X159882795Y-101690256D01*
X159996063Y-101859774D01*
X160140226Y-102003937D01*
X160309744Y-102117205D01*
X160498102Y-102195226D01*
X160698061Y-102235000D01*
X160901939Y-102235000D01*
X161052786Y-102204995D01*
X160982795Y-102309744D01*
X160904774Y-102498102D01*
X160865000Y-102698061D01*
X160865000Y-102901939D01*
X160904774Y-103101898D01*
X160982795Y-103290256D01*
X161096063Y-103459774D01*
X161240226Y-103603937D01*
X161409744Y-103717205D01*
X161598102Y-103795226D01*
X161798061Y-103835000D01*
X162001939Y-103835000D01*
X162201898Y-103795226D01*
X162390256Y-103717205D01*
X162559774Y-103603937D01*
X162703937Y-103459774D01*
X162817205Y-103290256D01*
X162895226Y-103101898D01*
X162935000Y-102901939D01*
X162935000Y-102698061D01*
X162895226Y-102498102D01*
X162817205Y-102309744D01*
X162703937Y-102140226D01*
X162559774Y-101996063D01*
X162390256Y-101882795D01*
X162201898Y-101804774D01*
X162001939Y-101765000D01*
X161798061Y-101765000D01*
X161647214Y-101795005D01*
X161717205Y-101690256D01*
X161795226Y-101501898D01*
X161835000Y-101301939D01*
X161835000Y-101098061D01*
X161795226Y-100898102D01*
X161717205Y-100709744D01*
X161603937Y-100540226D01*
X161459774Y-100396063D01*
X161290256Y-100282795D01*
X161101898Y-100204774D01*
X160901939Y-100165000D01*
X160698061Y-100165000D01*
X160498102Y-100204774D01*
X160309744Y-100282795D01*
X160140226Y-100396063D01*
X159996063Y-100540226D01*
X159882795Y-100709744D01*
X159804774Y-100898102D01*
X159765000Y-101098061D01*
X155160000Y-101098061D01*
X155160000Y-100034677D01*
X155215723Y-100169205D01*
X155312576Y-100314155D01*
X155435845Y-100437424D01*
X155580795Y-100534277D01*
X155741855Y-100600990D01*
X155912835Y-100635000D01*
X156087165Y-100635000D01*
X156258145Y-100600990D01*
X156419205Y-100534277D01*
X156564155Y-100437424D01*
X156687424Y-100314155D01*
X156784277Y-100169205D01*
X156850990Y-100008145D01*
X156885000Y-99837165D01*
X156885000Y-99662835D01*
X156850990Y-99491855D01*
X156784277Y-99330795D01*
X156687424Y-99185845D01*
X156564155Y-99062576D01*
X156419205Y-98965723D01*
X156258145Y-98899010D01*
X156087165Y-98865000D01*
X155912835Y-98865000D01*
X155741855Y-98899010D01*
X155580795Y-98965723D01*
X155435845Y-99062576D01*
X155312576Y-99185845D01*
X155215723Y-99330795D01*
X155199814Y-99369202D01*
X155234570Y-98800955D01*
X155335232Y-98257832D01*
X159288525Y-98616481D01*
X159303241Y-98616959D01*
X159327947Y-98613887D01*
X159351580Y-98606054D01*
X159373230Y-98593761D01*
X159392065Y-98577481D01*
X159407363Y-98557839D01*
X159418535Y-98535590D01*
X159863692Y-97378181D01*
X160509766Y-96389493D01*
X161282282Y-95587640D01*
X162351492Y-94861755D01*
X163089938Y-94541114D01*
X164279221Y-94265908D01*
X164921730Y-94217233D01*
X165525196Y-94246433D01*
%TA.AperFunction,Conductor*%
D15*
G36*
X165525196Y-94246433D02*
G01*
X166733614Y-94472397D01*
X167531560Y-94803253D01*
X168346107Y-95313571D01*
X169060130Y-95890659D01*
X169695871Y-96663328D01*
X170174903Y-97464973D01*
X170557228Y-98504113D01*
X170694702Y-99220942D01*
X170734276Y-99497961D01*
X170737531Y-99513619D01*
X170746443Y-99536866D01*
X170759718Y-99557927D01*
X170776848Y-99575994D01*
X170797173Y-99590371D01*
X170819913Y-99600507D01*
X170844193Y-99606012D01*
X170869080Y-99606675D01*
X170893619Y-99602469D01*
X174713363Y-98553912D01*
X174802180Y-99148204D01*
X174840000Y-100014406D01*
X174840000Y-101194884D01*
X174805824Y-101112376D01*
X174681612Y-100926480D01*
X174523520Y-100768388D01*
X174337624Y-100644176D01*
X174131067Y-100558617D01*
X173911788Y-100515000D01*
X173688212Y-100515000D01*
X173505804Y-100551283D01*
X173495226Y-100498102D01*
X173417205Y-100309744D01*
X173303937Y-100140226D01*
X173159774Y-99996063D01*
X172990256Y-99882795D01*
X172801898Y-99804774D01*
X172601939Y-99765000D01*
X172398061Y-99765000D01*
X172198102Y-99804774D01*
X172009744Y-99882795D01*
X171840226Y-99996063D01*
X171696063Y-100140226D01*
X171582795Y-100309744D01*
X171504774Y-100498102D01*
X171465000Y-100698061D01*
X171465000Y-100901939D01*
X171504774Y-101101898D01*
X171582795Y-101290256D01*
X171696063Y-101459774D01*
X171840226Y-101603937D01*
X172009744Y-101717205D01*
X172198102Y-101795226D01*
X172398061Y-101835000D01*
X172601939Y-101835000D01*
X172676608Y-101820147D01*
X172708617Y-101981067D01*
X172794176Y-102187624D01*
X172918388Y-102373520D01*
X173044868Y-102500000D01*
X172918388Y-102626480D01*
X172794176Y-102812376D01*
X172708617Y-103018933D01*
X172665000Y-103238212D01*
X172665000Y-103461788D01*
X172708617Y-103681067D01*
X172794176Y-103887624D01*
X172918388Y-104073520D01*
X173076480Y-104231612D01*
X173262376Y-104355824D01*
X173468933Y-104441383D01*
X173688212Y-104485000D01*
X173911788Y-104485000D01*
X174131067Y-104441383D01*
X174337624Y-104355824D01*
X174523520Y-104231612D01*
X174681612Y-104073520D01*
X174805824Y-103887624D01*
X174840001Y-103805114D01*
X174840001Y-104979819D01*
X174765430Y-106199045D01*
X174546513Y-107380213D01*
X174185281Y-108525895D01*
X173687116Y-109619020D01*
X173059448Y-110643282D01*
X172311628Y-111583421D01*
X171454811Y-112425413D01*
X170501769Y-113156708D01*
X169466710Y-113766404D01*
X168365052Y-114245418D01*
X167213237Y-114586601D01*
X166742708Y-114665340D01*
X166759774Y-114653937D01*
X166903937Y-114509774D01*
X167017205Y-114340256D01*
X167095226Y-114151898D01*
X167135000Y-113951939D01*
X167135000Y-113748061D01*
X167095226Y-113548102D01*
X167017205Y-113359744D01*
X166903937Y-113190226D01*
X166759774Y-113046063D01*
X166590256Y-112932795D01*
X166401898Y-112854774D01*
X166201939Y-112815000D01*
X165998061Y-112815000D01*
X165798102Y-112854774D01*
X165609744Y-112932795D01*
X165440226Y-113046063D01*
X165296063Y-113190226D01*
X165182795Y-113359744D01*
X165104774Y-113548102D01*
X165065000Y-113748061D01*
X165065000Y-113951939D01*
X165104774Y-114151898D01*
X165182795Y-114340256D01*
X165296063Y-114509774D01*
X165440226Y-114653937D01*
X165609744Y-114767205D01*
X165688246Y-114799722D01*
X164828285Y-114837268D01*
X163630709Y-114743017D01*
X163359144Y-114687767D01*
X163409774Y-114653937D01*
X163553937Y-114509774D01*
X163667205Y-114340256D01*
X163745226Y-114151898D01*
X163785000Y-113951939D01*
X163785000Y-113748061D01*
X163745226Y-113548102D01*
X163667205Y-113359744D01*
X163553937Y-113190226D01*
X163409774Y-113046063D01*
X163240256Y-112932795D01*
X163051898Y-112854774D01*
X162851939Y-112815000D01*
X162648061Y-112815000D01*
X162448102Y-112854774D01*
X162430243Y-112862172D01*
X162398787Y-112649870D01*
X162303603Y-112383708D01*
X162244897Y-112273876D01*
X162309744Y-112317205D01*
X162498102Y-112395226D01*
X162698061Y-112435000D01*
X162901939Y-112435000D01*
X163101898Y-112395226D01*
X163290256Y-112317205D01*
X163459774Y-112203937D01*
X163603937Y-112059774D01*
X163717205Y-111890256D01*
X163795226Y-111701898D01*
X163835000Y-111501939D01*
X163835000Y-111298061D01*
X163965000Y-111298061D01*
X163965000Y-111501939D01*
X164004774Y-111701898D01*
X164082795Y-111890256D01*
X164196063Y-112059774D01*
X164340226Y-112203937D01*
X164509744Y-112317205D01*
X164698102Y-112395226D01*
X164898061Y-112435000D01*
X165101939Y-112435000D01*
X165301898Y-112395226D01*
X165490256Y-112317205D01*
X165659774Y-112203937D01*
X165803937Y-112059774D01*
X165917205Y-111890256D01*
X165995226Y-111701898D01*
X166035000Y-111501939D01*
X166035000Y-111298061D01*
X165995226Y-111098102D01*
X165917205Y-110909744D01*
X165803937Y-110740226D01*
X165659774Y-110596063D01*
X165490256Y-110482795D01*
X165301898Y-110404774D01*
X165101939Y-110365000D01*
X164898061Y-110365000D01*
X164698102Y-110404774D01*
X164509744Y-110482795D01*
X164340226Y-110596063D01*
X164196063Y-110740226D01*
X164082795Y-110909744D01*
X164004774Y-111098102D01*
X163965000Y-111298061D01*
X163835000Y-111298061D01*
X163795226Y-111098102D01*
X163717205Y-110909744D01*
X163603937Y-110740226D01*
X163459774Y-110596063D01*
X163290256Y-110482795D01*
X163101898Y-110404774D01*
X162901939Y-110365000D01*
X162698061Y-110365000D01*
X162498102Y-110404774D01*
X162309744Y-110482795D01*
X162140226Y-110596063D01*
X161996063Y-110740226D01*
X161882795Y-110909744D01*
X161804774Y-111098102D01*
X161765000Y-111298061D01*
X161765000Y-111501939D01*
X161804774Y-111701898D01*
X161882795Y-111890256D01*
X161901758Y-111918635D01*
X161813097Y-112007296D01*
X161741514Y-111763329D01*
X161486004Y-111642429D01*
X161211816Y-111573700D01*
X160929488Y-111559783D01*
X160649870Y-111601213D01*
X160383708Y-111696397D01*
X160258486Y-111763329D01*
X160186903Y-112007298D01*
X161000000Y-112820395D01*
X161014143Y-112806253D01*
X161193748Y-112985858D01*
X161179605Y-113000000D01*
X161193748Y-113014143D01*
X161014143Y-113193748D01*
X161000000Y-113179605D01*
X160985858Y-113193748D01*
X160806253Y-113014143D01*
X160820395Y-113000000D01*
X160007298Y-112186903D01*
X159763329Y-112258486D01*
X159642429Y-112513996D01*
X159573700Y-112788184D01*
X159559783Y-113070512D01*
X159577395Y-113189378D01*
X159216920Y-112959731D01*
X158289980Y-112195621D01*
X157463070Y-111324240D01*
X156795816Y-110422498D01*
X156858665Y-110435000D01*
X157141335Y-110435000D01*
X157418574Y-110379853D01*
X157679727Y-110271680D01*
X157914759Y-110114637D01*
X158114637Y-109914759D01*
X158271680Y-109679727D01*
X158379853Y-109418574D01*
X158435000Y-109141335D01*
X158435000Y-108858665D01*
X158422945Y-108798061D01*
X159465000Y-108798061D01*
X159465000Y-109001939D01*
X159504774Y-109201898D01*
X159582795Y-109390256D01*
X159696063Y-109559774D01*
X159840226Y-109703937D01*
X160009744Y-109817205D01*
X160198102Y-109895226D01*
X160398061Y-109935000D01*
X160601939Y-109935000D01*
X160801898Y-109895226D01*
X160990256Y-109817205D01*
X161159774Y-109703937D01*
X161303937Y-109559774D01*
X161417205Y-109390256D01*
X161495226Y-109201898D01*
X161535000Y-109001939D01*
X161535000Y-108898061D01*
X168165000Y-108898061D01*
X168165000Y-109101939D01*
X168204774Y-109301898D01*
X168282795Y-109490256D01*
X168396063Y-109659774D01*
X168540226Y-109803937D01*
X168709744Y-109917205D01*
X168898102Y-109995226D01*
X169098061Y-110035000D01*
X169301939Y-110035000D01*
X169501898Y-109995226D01*
X169690256Y-109917205D01*
X169859774Y-109803937D01*
X170003937Y-109659774D01*
X170117205Y-109490256D01*
X170195226Y-109301898D01*
X170235000Y-109101939D01*
X170235000Y-108898061D01*
X170195226Y-108698102D01*
X170117205Y-108509744D01*
X170003937Y-108340226D01*
X169859774Y-108196063D01*
X169690256Y-108082795D01*
X169501898Y-108004774D01*
X169301939Y-107965000D01*
X169098061Y-107965000D01*
X168898102Y-108004774D01*
X168709744Y-108082795D01*
X168540226Y-108196063D01*
X168396063Y-108340226D01*
X168282795Y-108509744D01*
X168204774Y-108698102D01*
X168165000Y-108898061D01*
X161535000Y-108898061D01*
X161535000Y-108798061D01*
X161495226Y-108598102D01*
X161417205Y-108409744D01*
X161303937Y-108240226D01*
X161159774Y-108096063D01*
X160990256Y-107982795D01*
X160801898Y-107904774D01*
X160601939Y-107865000D01*
X160398061Y-107865000D01*
X160198102Y-107904774D01*
X160009744Y-107982795D01*
X159840226Y-108096063D01*
X159696063Y-108240226D01*
X159582795Y-108409744D01*
X159504774Y-108598102D01*
X159465000Y-108798061D01*
X158422945Y-108798061D01*
X158379853Y-108581426D01*
X158271680Y-108320273D01*
X158114637Y-108085241D01*
X157914759Y-107885363D01*
X157679727Y-107728320D01*
X157418574Y-107620147D01*
X157141335Y-107565000D01*
X156858665Y-107565000D01*
X156658441Y-107604828D01*
X156659774Y-107603937D01*
X156803937Y-107459774D01*
X156917205Y-107290256D01*
X156995226Y-107101898D01*
X157035000Y-106901939D01*
X157035000Y-106698061D01*
X156995226Y-106498102D01*
X156917205Y-106309744D01*
X156809173Y-106148061D01*
X169215000Y-106148061D01*
X169215000Y-106351939D01*
X169254774Y-106551898D01*
X169332795Y-106740256D01*
X169446063Y-106909774D01*
X169590226Y-107053937D01*
X169759744Y-107167205D01*
X169948102Y-107245226D01*
X170148061Y-107285000D01*
X170351939Y-107285000D01*
X170551898Y-107245226D01*
X170740256Y-107167205D01*
X170909774Y-107053937D01*
X171053937Y-106909774D01*
X171167205Y-106740256D01*
X171245226Y-106551898D01*
X171285000Y-106351939D01*
X171285000Y-106148061D01*
X171245226Y-105948102D01*
X171167205Y-105759744D01*
X171053937Y-105590226D01*
X170909774Y-105446063D01*
X170740256Y-105332795D01*
X170551898Y-105254774D01*
X170351939Y-105215000D01*
X170148061Y-105215000D01*
X169948102Y-105254774D01*
X169759744Y-105332795D01*
X169590226Y-105446063D01*
X169446063Y-105590226D01*
X169332795Y-105759744D01*
X169254774Y-105948102D01*
X169215000Y-106148061D01*
X156809173Y-106148061D01*
X156803937Y-106140226D01*
X156659774Y-105996063D01*
X156567303Y-105934276D01*
X156687424Y-105814155D01*
X156784277Y-105669205D01*
X156850990Y-105508145D01*
X156885000Y-105337165D01*
X156885000Y-105162835D01*
X156850990Y-104991855D01*
X156784277Y-104830795D01*
X156687424Y-104685845D01*
X156564155Y-104562576D01*
X156419205Y-104465723D01*
X156258145Y-104399010D01*
X156087165Y-104365000D01*
X155912835Y-104365000D01*
X155741855Y-104399010D01*
X155580795Y-104465723D01*
X155435845Y-104562576D01*
X155312576Y-104685845D01*
X155215723Y-104830795D01*
X155160000Y-104965323D01*
X155160000Y-104098061D01*
X158350000Y-104098061D01*
X158350000Y-104301939D01*
X158389774Y-104501898D01*
X158467795Y-104690256D01*
X158581063Y-104859774D01*
X158725226Y-105003937D01*
X158894744Y-105117205D01*
X159083102Y-105195226D01*
X159283061Y-105235000D01*
X159486939Y-105235000D01*
X159686898Y-105195226D01*
X159875256Y-105117205D01*
X160044774Y-105003937D01*
X160188937Y-104859774D01*
X160302205Y-104690256D01*
X160380226Y-104501898D01*
X160420000Y-104301939D01*
X160420000Y-104098061D01*
X160380226Y-103898102D01*
X160302205Y-103709744D01*
X160188937Y-103540226D01*
X160044774Y-103396063D01*
X159875256Y-103282795D01*
X159686898Y-103204774D01*
X159486939Y-103165000D01*
X159283061Y-103165000D01*
X159083102Y-103204774D01*
X158894744Y-103282795D01*
X158725226Y-103396063D01*
X158581063Y-103540226D01*
X158467795Y-103709744D01*
X158389774Y-103898102D01*
X158350000Y-104098061D01*
X155160000Y-104098061D01*
X155160000Y-101098061D01*
X159765000Y-101098061D01*
X159765000Y-101301939D01*
X159804774Y-101501898D01*
X159882795Y-101690256D01*
X159996063Y-101859774D01*
X160140226Y-102003937D01*
X160309744Y-102117205D01*
X160498102Y-102195226D01*
X160698061Y-102235000D01*
X160901939Y-102235000D01*
X161052786Y-102204995D01*
X160982795Y-102309744D01*
X160904774Y-102498102D01*
X160865000Y-102698061D01*
X160865000Y-102901939D01*
X160904774Y-103101898D01*
X160982795Y-103290256D01*
X161096063Y-103459774D01*
X161240226Y-103603937D01*
X161409744Y-103717205D01*
X161598102Y-103795226D01*
X161798061Y-103835000D01*
X162001939Y-103835000D01*
X162201898Y-103795226D01*
X162390256Y-103717205D01*
X162559774Y-103603937D01*
X162703937Y-103459774D01*
X162817205Y-103290256D01*
X162895226Y-103101898D01*
X162935000Y-102901939D01*
X162935000Y-102698061D01*
X162895226Y-102498102D01*
X162817205Y-102309744D01*
X162703937Y-102140226D01*
X162559774Y-101996063D01*
X162390256Y-101882795D01*
X162201898Y-101804774D01*
X162001939Y-101765000D01*
X161798061Y-101765000D01*
X161647214Y-101795005D01*
X161717205Y-101690256D01*
X161795226Y-101501898D01*
X161835000Y-101301939D01*
X161835000Y-101098061D01*
X161795226Y-100898102D01*
X161717205Y-100709744D01*
X161603937Y-100540226D01*
X161459774Y-100396063D01*
X161290256Y-100282795D01*
X161101898Y-100204774D01*
X160901939Y-100165000D01*
X160698061Y-100165000D01*
X160498102Y-100204774D01*
X160309744Y-100282795D01*
X160140226Y-100396063D01*
X159996063Y-100540226D01*
X159882795Y-100709744D01*
X159804774Y-100898102D01*
X159765000Y-101098061D01*
X155160000Y-101098061D01*
X155160000Y-100034677D01*
X155215723Y-100169205D01*
X155312576Y-100314155D01*
X155435845Y-100437424D01*
X155580795Y-100534277D01*
X155741855Y-100600990D01*
X155912835Y-100635000D01*
X156087165Y-100635000D01*
X156258145Y-100600990D01*
X156419205Y-100534277D01*
X156564155Y-100437424D01*
X156687424Y-100314155D01*
X156784277Y-100169205D01*
X156850990Y-100008145D01*
X156885000Y-99837165D01*
X156885000Y-99662835D01*
X156850990Y-99491855D01*
X156784277Y-99330795D01*
X156687424Y-99185845D01*
X156564155Y-99062576D01*
X156419205Y-98965723D01*
X156258145Y-98899010D01*
X156087165Y-98865000D01*
X155912835Y-98865000D01*
X155741855Y-98899010D01*
X155580795Y-98965723D01*
X155435845Y-99062576D01*
X155312576Y-99185845D01*
X155215723Y-99330795D01*
X155199814Y-99369202D01*
X155234570Y-98800955D01*
X155335232Y-98257832D01*
X159288525Y-98616481D01*
X159303241Y-98616959D01*
X159327947Y-98613887D01*
X159351580Y-98606054D01*
X159373230Y-98593761D01*
X159392065Y-98577481D01*
X159407363Y-98557839D01*
X159418535Y-98535590D01*
X159863692Y-97378181D01*
X160509766Y-96389493D01*
X161282282Y-95587640D01*
X162351492Y-94861755D01*
X163089938Y-94541114D01*
X164279221Y-94265908D01*
X164921730Y-94217233D01*
X165525196Y-94246433D01*
G37*
%TD.AperFunction*%
%TD*%
M02*
