%TF.GenerationSoftware,KiCad,Pcbnew,5.1.7-a382d34a8~87~ubuntu20.04.1*%
%TF.CreationDate,2020-10-26T14:53:32+05:00*%
%TF.ProjectId,OneRing,4f6e6552-696e-4672-9e6b-696361645f70,rev?*%
%TF.SameCoordinates,Original*%
%TF.FileFunction,Paste,Top*%
%TF.FilePolarity,Positive*%
%FSLAX46Y46*%
G04 Gerber Fmt 4.6, Leading zero omitted, Abs format (unit mm)*
G04 Created by KiCad (PCBNEW 5.1.7-a382d34a8~87~ubuntu20.04.1) date 2020-10-26 14:53:32*
%MOMM*%
%LPD*%
G01*
G04 APERTURE LIST*
%ADD10R,0.700000X0.250000*%
%ADD11R,0.700000X0.700000*%
%ADD12R,0.250000X0.700000*%
%ADD13R,1.150000X1.000000*%
G04 APERTURE END LIST*
%TO.C,C1*%
G36*
G01*
X157672500Y-107680000D02*
X157327500Y-107680000D01*
G75*
G02*
X157180000Y-107532500I0J147500D01*
G01*
X157180000Y-107237500D01*
G75*
G02*
X157327500Y-107090000I147500J0D01*
G01*
X157672500Y-107090000D01*
G75*
G02*
X157820000Y-107237500I0J-147500D01*
G01*
X157820000Y-107532500D01*
G75*
G02*
X157672500Y-107680000I-147500J0D01*
G01*
G37*
G36*
G01*
X157672500Y-106710000D02*
X157327500Y-106710000D01*
G75*
G02*
X157180000Y-106562500I0J147500D01*
G01*
X157180000Y-106267500D01*
G75*
G02*
X157327500Y-106120000I147500J0D01*
G01*
X157672500Y-106120000D01*
G75*
G02*
X157820000Y-106267500I0J-147500D01*
G01*
X157820000Y-106562500D01*
G75*
G02*
X157672500Y-106710000I-147500J0D01*
G01*
G37*
%TD*%
%TO.C,C2*%
G36*
G01*
X163095000Y-109827500D02*
X163095000Y-110172500D01*
G75*
G02*
X162947500Y-110320000I-147500J0D01*
G01*
X162652500Y-110320000D01*
G75*
G02*
X162505000Y-110172500I0J147500D01*
G01*
X162505000Y-109827500D01*
G75*
G02*
X162652500Y-109680000I147500J0D01*
G01*
X162947500Y-109680000D01*
G75*
G02*
X163095000Y-109827500I0J-147500D01*
G01*
G37*
G36*
G01*
X162125000Y-109827500D02*
X162125000Y-110172500D01*
G75*
G02*
X161977500Y-110320000I-147500J0D01*
G01*
X161682500Y-110320000D01*
G75*
G02*
X161535000Y-110172500I0J147500D01*
G01*
X161535000Y-109827500D01*
G75*
G02*
X161682500Y-109680000I147500J0D01*
G01*
X161977500Y-109680000D01*
G75*
G02*
X162125000Y-109827500I0J-147500D01*
G01*
G37*
%TD*%
%TO.C,C3*%
G36*
G01*
X166156327Y-100287625D02*
X165912375Y-100043673D01*
G75*
G02*
X165912375Y-99835077I104298J104298D01*
G01*
X166120971Y-99626481D01*
G75*
G02*
X166329567Y-99626481I104298J-104298D01*
G01*
X166573519Y-99870433D01*
G75*
G02*
X166573519Y-100079029I-104298J-104298D01*
G01*
X166364923Y-100287625D01*
G75*
G02*
X166156327Y-100287625I-104298J104298D01*
G01*
G37*
G36*
G01*
X165470433Y-100973519D02*
X165226481Y-100729567D01*
G75*
G02*
X165226481Y-100520971I104298J104298D01*
G01*
X165435077Y-100312375D01*
G75*
G02*
X165643673Y-100312375I104298J-104298D01*
G01*
X165887625Y-100556327D01*
G75*
G02*
X165887625Y-100764923I-104298J-104298D01*
G01*
X165679029Y-100973519D01*
G75*
G02*
X165470433Y-100973519I-104298J104298D01*
G01*
G37*
%TD*%
%TO.C,C4*%
G36*
G01*
X164070433Y-101023519D02*
X163826481Y-100779567D01*
G75*
G02*
X163826481Y-100570971I104298J104298D01*
G01*
X164035077Y-100362375D01*
G75*
G02*
X164243673Y-100362375I104298J-104298D01*
G01*
X164487625Y-100606327D01*
G75*
G02*
X164487625Y-100814923I-104298J-104298D01*
G01*
X164279029Y-101023519D01*
G75*
G02*
X164070433Y-101023519I-104298J104298D01*
G01*
G37*
G36*
G01*
X164756327Y-100337625D02*
X164512375Y-100093673D01*
G75*
G02*
X164512375Y-99885077I104298J104298D01*
G01*
X164720971Y-99676481D01*
G75*
G02*
X164929567Y-99676481I104298J-104298D01*
G01*
X165173519Y-99920433D01*
G75*
G02*
X165173519Y-100129029I-104298J-104298D01*
G01*
X164964923Y-100337625D01*
G75*
G02*
X164756327Y-100337625I-104298J104298D01*
G01*
G37*
%TD*%
%TO.C,C5*%
G36*
G01*
X159156250Y-108425000D02*
X158643750Y-108425000D01*
G75*
G02*
X158425000Y-108206250I0J218750D01*
G01*
X158425000Y-107768750D01*
G75*
G02*
X158643750Y-107550000I218750J0D01*
G01*
X159156250Y-107550000D01*
G75*
G02*
X159375000Y-107768750I0J-218750D01*
G01*
X159375000Y-108206250D01*
G75*
G02*
X159156250Y-108425000I-218750J0D01*
G01*
G37*
G36*
G01*
X159156250Y-106850000D02*
X158643750Y-106850000D01*
G75*
G02*
X158425000Y-106631250I0J218750D01*
G01*
X158425000Y-106193750D01*
G75*
G02*
X158643750Y-105975000I218750J0D01*
G01*
X159156250Y-105975000D01*
G75*
G02*
X159375000Y-106193750I0J-218750D01*
G01*
X159375000Y-106631250D01*
G75*
G02*
X159156250Y-106850000I-218750J0D01*
G01*
G37*
%TD*%
%TO.C,C6*%
G36*
G01*
X169372500Y-108295000D02*
X169027500Y-108295000D01*
G75*
G02*
X168880000Y-108147500I0J147500D01*
G01*
X168880000Y-107852500D01*
G75*
G02*
X169027500Y-107705000I147500J0D01*
G01*
X169372500Y-107705000D01*
G75*
G02*
X169520000Y-107852500I0J-147500D01*
G01*
X169520000Y-108147500D01*
G75*
G02*
X169372500Y-108295000I-147500J0D01*
G01*
G37*
G36*
G01*
X169372500Y-107325000D02*
X169027500Y-107325000D01*
G75*
G02*
X168880000Y-107177500I0J147500D01*
G01*
X168880000Y-106882500D01*
G75*
G02*
X169027500Y-106735000I147500J0D01*
G01*
X169372500Y-106735000D01*
G75*
G02*
X169520000Y-106882500I0J-147500D01*
G01*
X169520000Y-107177500D01*
G75*
G02*
X169372500Y-107325000I-147500J0D01*
G01*
G37*
%TD*%
%TO.C,C7*%
G36*
G01*
X165622500Y-97495000D02*
X165277500Y-97495000D01*
G75*
G02*
X165130000Y-97347500I0J147500D01*
G01*
X165130000Y-97052500D01*
G75*
G02*
X165277500Y-96905000I147500J0D01*
G01*
X165622500Y-96905000D01*
G75*
G02*
X165770000Y-97052500I0J-147500D01*
G01*
X165770000Y-97347500D01*
G75*
G02*
X165622500Y-97495000I-147500J0D01*
G01*
G37*
G36*
G01*
X165622500Y-98465000D02*
X165277500Y-98465000D01*
G75*
G02*
X165130000Y-98317500I0J147500D01*
G01*
X165130000Y-98022500D01*
G75*
G02*
X165277500Y-97875000I147500J0D01*
G01*
X165622500Y-97875000D01*
G75*
G02*
X165770000Y-98022500I0J-147500D01*
G01*
X165770000Y-98317500D01*
G75*
G02*
X165622500Y-98465000I-147500J0D01*
G01*
G37*
%TD*%
%TO.C,C8*%
G36*
G01*
X160872500Y-99865000D02*
X160527500Y-99865000D01*
G75*
G02*
X160380000Y-99717500I0J147500D01*
G01*
X160380000Y-99422500D01*
G75*
G02*
X160527500Y-99275000I147500J0D01*
G01*
X160872500Y-99275000D01*
G75*
G02*
X161020000Y-99422500I0J-147500D01*
G01*
X161020000Y-99717500D01*
G75*
G02*
X160872500Y-99865000I-147500J0D01*
G01*
G37*
G36*
G01*
X160872500Y-98895000D02*
X160527500Y-98895000D01*
G75*
G02*
X160380000Y-98747500I0J147500D01*
G01*
X160380000Y-98452500D01*
G75*
G02*
X160527500Y-98305000I147500J0D01*
G01*
X160872500Y-98305000D01*
G75*
G02*
X161020000Y-98452500I0J-147500D01*
G01*
X161020000Y-98747500D01*
G75*
G02*
X160872500Y-98895000I-147500J0D01*
G01*
G37*
%TD*%
%TO.C,C9*%
G36*
G01*
X160627500Y-103525000D02*
X160972500Y-103525000D01*
G75*
G02*
X161120000Y-103672500I0J-147500D01*
G01*
X161120000Y-103967500D01*
G75*
G02*
X160972500Y-104115000I-147500J0D01*
G01*
X160627500Y-104115000D01*
G75*
G02*
X160480000Y-103967500I0J147500D01*
G01*
X160480000Y-103672500D01*
G75*
G02*
X160627500Y-103525000I147500J0D01*
G01*
G37*
G36*
G01*
X160627500Y-102555000D02*
X160972500Y-102555000D01*
G75*
G02*
X161120000Y-102702500I0J-147500D01*
G01*
X161120000Y-102997500D01*
G75*
G02*
X160972500Y-103145000I-147500J0D01*
G01*
X160627500Y-103145000D01*
G75*
G02*
X160480000Y-102997500I0J147500D01*
G01*
X160480000Y-102702500D01*
G75*
G02*
X160627500Y-102555000I147500J0D01*
G01*
G37*
%TD*%
%TO.C,C10*%
G36*
G01*
X160756250Y-106850000D02*
X160243750Y-106850000D01*
G75*
G02*
X160025000Y-106631250I0J218750D01*
G01*
X160025000Y-106193750D01*
G75*
G02*
X160243750Y-105975000I218750J0D01*
G01*
X160756250Y-105975000D01*
G75*
G02*
X160975000Y-106193750I0J-218750D01*
G01*
X160975000Y-106631250D01*
G75*
G02*
X160756250Y-106850000I-218750J0D01*
G01*
G37*
G36*
G01*
X160756250Y-108425000D02*
X160243750Y-108425000D01*
G75*
G02*
X160025000Y-108206250I0J218750D01*
G01*
X160025000Y-107768750D01*
G75*
G02*
X160243750Y-107550000I218750J0D01*
G01*
X160756250Y-107550000D01*
G75*
G02*
X160975000Y-107768750I0J-218750D01*
G01*
X160975000Y-108206250D01*
G75*
G02*
X160756250Y-108425000I-218750J0D01*
G01*
G37*
%TD*%
%TO.C,C11*%
G36*
G01*
X172756250Y-103825000D02*
X172243750Y-103825000D01*
G75*
G02*
X172025000Y-103606250I0J218750D01*
G01*
X172025000Y-103168750D01*
G75*
G02*
X172243750Y-102950000I218750J0D01*
G01*
X172756250Y-102950000D01*
G75*
G02*
X172975000Y-103168750I0J-218750D01*
G01*
X172975000Y-103606250D01*
G75*
G02*
X172756250Y-103825000I-218750J0D01*
G01*
G37*
G36*
G01*
X172756250Y-102250000D02*
X172243750Y-102250000D01*
G75*
G02*
X172025000Y-102031250I0J218750D01*
G01*
X172025000Y-101593750D01*
G75*
G02*
X172243750Y-101375000I218750J0D01*
G01*
X172756250Y-101375000D01*
G75*
G02*
X172975000Y-101593750I0J-218750D01*
G01*
X172975000Y-102031250D01*
G75*
G02*
X172756250Y-102250000I-218750J0D01*
G01*
G37*
%TD*%
%TO.C,C12*%
G36*
G01*
X168443673Y-97412375D02*
X168687625Y-97656327D01*
G75*
G02*
X168687625Y-97864923I-104298J-104298D01*
G01*
X168479029Y-98073519D01*
G75*
G02*
X168270433Y-98073519I-104298J104298D01*
G01*
X168026481Y-97829567D01*
G75*
G02*
X168026481Y-97620971I104298J104298D01*
G01*
X168235077Y-97412375D01*
G75*
G02*
X168443673Y-97412375I104298J-104298D01*
G01*
G37*
G36*
G01*
X169129567Y-96726481D02*
X169373519Y-96970433D01*
G75*
G02*
X169373519Y-97179029I-104298J-104298D01*
G01*
X169164923Y-97387625D01*
G75*
G02*
X168956327Y-97387625I-104298J104298D01*
G01*
X168712375Y-97143673D01*
G75*
G02*
X168712375Y-96935077I104298J104298D01*
G01*
X168920971Y-96726481D01*
G75*
G02*
X169129567Y-96726481I104298J-104298D01*
G01*
G37*
%TD*%
%TO.C,D3*%
G36*
G01*
X167320000Y-110672500D02*
X167320000Y-110327500D01*
G75*
G02*
X167467500Y-110180000I147500J0D01*
G01*
X167762500Y-110180000D01*
G75*
G02*
X167910000Y-110327500I0J-147500D01*
G01*
X167910000Y-110672500D01*
G75*
G02*
X167762500Y-110820000I-147500J0D01*
G01*
X167467500Y-110820000D01*
G75*
G02*
X167320000Y-110672500I0J147500D01*
G01*
G37*
G36*
G01*
X168290000Y-110672500D02*
X168290000Y-110327500D01*
G75*
G02*
X168437500Y-110180000I147500J0D01*
G01*
X168732500Y-110180000D01*
G75*
G02*
X168880000Y-110327500I0J-147500D01*
G01*
X168880000Y-110672500D01*
G75*
G02*
X168732500Y-110820000I-147500J0D01*
G01*
X168437500Y-110820000D01*
G75*
G02*
X168290000Y-110672500I0J147500D01*
G01*
G37*
%TD*%
%TO.C,L2*%
G36*
G01*
X169829567Y-97426481D02*
X170073519Y-97670433D01*
G75*
G02*
X170073519Y-97879029I-104298J-104298D01*
G01*
X169864923Y-98087625D01*
G75*
G02*
X169656327Y-98087625I-104298J104298D01*
G01*
X169412375Y-97843673D01*
G75*
G02*
X169412375Y-97635077I104298J104298D01*
G01*
X169620971Y-97426481D01*
G75*
G02*
X169829567Y-97426481I104298J-104298D01*
G01*
G37*
G36*
G01*
X169143673Y-98112375D02*
X169387625Y-98356327D01*
G75*
G02*
X169387625Y-98564923I-104298J-104298D01*
G01*
X169179029Y-98773519D01*
G75*
G02*
X168970433Y-98773519I-104298J104298D01*
G01*
X168726481Y-98529567D01*
G75*
G02*
X168726481Y-98320971I104298J104298D01*
G01*
X168935077Y-98112375D01*
G75*
G02*
X169143673Y-98112375I104298J-104298D01*
G01*
G37*
%TD*%
%TO.C,R4*%
G36*
G01*
X170872500Y-107310000D02*
X170527500Y-107310000D01*
G75*
G02*
X170380000Y-107162500I0J147500D01*
G01*
X170380000Y-106867500D01*
G75*
G02*
X170527500Y-106720000I147500J0D01*
G01*
X170872500Y-106720000D01*
G75*
G02*
X171020000Y-106867500I0J-147500D01*
G01*
X171020000Y-107162500D01*
G75*
G02*
X170872500Y-107310000I-147500J0D01*
G01*
G37*
G36*
G01*
X170872500Y-108280000D02*
X170527500Y-108280000D01*
G75*
G02*
X170380000Y-108132500I0J147500D01*
G01*
X170380000Y-107837500D01*
G75*
G02*
X170527500Y-107690000I147500J0D01*
G01*
X170872500Y-107690000D01*
G75*
G02*
X171020000Y-107837500I0J-147500D01*
G01*
X171020000Y-108132500D01*
G75*
G02*
X170872500Y-108280000I-147500J0D01*
G01*
G37*
%TD*%
%TO.C,R5*%
G36*
G01*
X159305000Y-111172500D02*
X159305000Y-110827500D01*
G75*
G02*
X159452500Y-110680000I147500J0D01*
G01*
X159747500Y-110680000D01*
G75*
G02*
X159895000Y-110827500I0J-147500D01*
G01*
X159895000Y-111172500D01*
G75*
G02*
X159747500Y-111320000I-147500J0D01*
G01*
X159452500Y-111320000D01*
G75*
G02*
X159305000Y-111172500I0J147500D01*
G01*
G37*
G36*
G01*
X158335000Y-111172500D02*
X158335000Y-110827500D01*
G75*
G02*
X158482500Y-110680000I147500J0D01*
G01*
X158777500Y-110680000D01*
G75*
G02*
X158925000Y-110827500I0J-147500D01*
G01*
X158925000Y-111172500D01*
G75*
G02*
X158777500Y-111320000I-147500J0D01*
G01*
X158482500Y-111320000D01*
G75*
G02*
X158335000Y-111172500I0J147500D01*
G01*
G37*
%TD*%
%TO.C,R6*%
G36*
G01*
X159895000Y-109827500D02*
X159895000Y-110172500D01*
G75*
G02*
X159747500Y-110320000I-147500J0D01*
G01*
X159452500Y-110320000D01*
G75*
G02*
X159305000Y-110172500I0J147500D01*
G01*
X159305000Y-109827500D01*
G75*
G02*
X159452500Y-109680000I147500J0D01*
G01*
X159747500Y-109680000D01*
G75*
G02*
X159895000Y-109827500I0J-147500D01*
G01*
G37*
G36*
G01*
X158925000Y-109827500D02*
X158925000Y-110172500D01*
G75*
G02*
X158777500Y-110320000I-147500J0D01*
G01*
X158482500Y-110320000D01*
G75*
G02*
X158335000Y-110172500I0J147500D01*
G01*
X158335000Y-109827500D01*
G75*
G02*
X158482500Y-109680000I147500J0D01*
G01*
X158777500Y-109680000D01*
G75*
G02*
X158925000Y-109827500I0J-147500D01*
G01*
G37*
%TD*%
%TO.C,U1*%
G36*
G01*
X162850000Y-109150000D02*
X162750000Y-109150000D01*
G75*
G02*
X162700000Y-109100000I0J50000D01*
G01*
X162700000Y-108400000D01*
G75*
G02*
X162750000Y-108350000I50000J0D01*
G01*
X162850000Y-108350000D01*
G75*
G02*
X162900000Y-108400000I0J-50000D01*
G01*
X162900000Y-109100000D01*
G75*
G02*
X162850000Y-109150000I-50000J0D01*
G01*
G37*
G36*
G01*
X163250000Y-109150000D02*
X163150000Y-109150000D01*
G75*
G02*
X163100000Y-109100000I0J50000D01*
G01*
X163100000Y-108400000D01*
G75*
G02*
X163150000Y-108350000I50000J0D01*
G01*
X163250000Y-108350000D01*
G75*
G02*
X163300000Y-108400000I0J-50000D01*
G01*
X163300000Y-109100000D01*
G75*
G02*
X163250000Y-109150000I-50000J0D01*
G01*
G37*
G36*
G01*
X163650000Y-109150000D02*
X163550000Y-109150000D01*
G75*
G02*
X163500000Y-109100000I0J50000D01*
G01*
X163500000Y-108400000D01*
G75*
G02*
X163550000Y-108350000I50000J0D01*
G01*
X163650000Y-108350000D01*
G75*
G02*
X163700000Y-108400000I0J-50000D01*
G01*
X163700000Y-109100000D01*
G75*
G02*
X163650000Y-109150000I-50000J0D01*
G01*
G37*
G36*
G01*
X164050000Y-109150000D02*
X163950000Y-109150000D01*
G75*
G02*
X163900000Y-109100000I0J50000D01*
G01*
X163900000Y-108400000D01*
G75*
G02*
X163950000Y-108350000I50000J0D01*
G01*
X164050000Y-108350000D01*
G75*
G02*
X164100000Y-108400000I0J-50000D01*
G01*
X164100000Y-109100000D01*
G75*
G02*
X164050000Y-109150000I-50000J0D01*
G01*
G37*
G36*
G01*
X164450000Y-109150000D02*
X164350000Y-109150000D01*
G75*
G02*
X164300000Y-109100000I0J50000D01*
G01*
X164300000Y-108400000D01*
G75*
G02*
X164350000Y-108350000I50000J0D01*
G01*
X164450000Y-108350000D01*
G75*
G02*
X164500000Y-108400000I0J-50000D01*
G01*
X164500000Y-109100000D01*
G75*
G02*
X164450000Y-109150000I-50000J0D01*
G01*
G37*
G36*
G01*
X164850000Y-109150000D02*
X164750000Y-109150000D01*
G75*
G02*
X164700000Y-109100000I0J50000D01*
G01*
X164700000Y-108400000D01*
G75*
G02*
X164750000Y-108350000I50000J0D01*
G01*
X164850000Y-108350000D01*
G75*
G02*
X164900000Y-108400000I0J-50000D01*
G01*
X164900000Y-109100000D01*
G75*
G02*
X164850000Y-109150000I-50000J0D01*
G01*
G37*
G36*
G01*
X165250000Y-109150000D02*
X165150000Y-109150000D01*
G75*
G02*
X165100000Y-109100000I0J50000D01*
G01*
X165100000Y-108400000D01*
G75*
G02*
X165150000Y-108350000I50000J0D01*
G01*
X165250000Y-108350000D01*
G75*
G02*
X165300000Y-108400000I0J-50000D01*
G01*
X165300000Y-109100000D01*
G75*
G02*
X165250000Y-109150000I-50000J0D01*
G01*
G37*
G36*
G01*
X165650000Y-109150000D02*
X165550000Y-109150000D01*
G75*
G02*
X165500000Y-109100000I0J50000D01*
G01*
X165500000Y-108400000D01*
G75*
G02*
X165550000Y-108350000I50000J0D01*
G01*
X165650000Y-108350000D01*
G75*
G02*
X165700000Y-108400000I0J-50000D01*
G01*
X165700000Y-109100000D01*
G75*
G02*
X165650000Y-109150000I-50000J0D01*
G01*
G37*
G36*
G01*
X166050000Y-109150000D02*
X165950000Y-109150000D01*
G75*
G02*
X165900000Y-109100000I0J50000D01*
G01*
X165900000Y-108400000D01*
G75*
G02*
X165950000Y-108350000I50000J0D01*
G01*
X166050000Y-108350000D01*
G75*
G02*
X166100000Y-108400000I0J-50000D01*
G01*
X166100000Y-109100000D01*
G75*
G02*
X166050000Y-109150000I-50000J0D01*
G01*
G37*
G36*
G01*
X166450000Y-109150000D02*
X166350000Y-109150000D01*
G75*
G02*
X166300000Y-109100000I0J50000D01*
G01*
X166300000Y-108400000D01*
G75*
G02*
X166350000Y-108350000I50000J0D01*
G01*
X166450000Y-108350000D01*
G75*
G02*
X166500000Y-108400000I0J-50000D01*
G01*
X166500000Y-109100000D01*
G75*
G02*
X166450000Y-109150000I-50000J0D01*
G01*
G37*
G36*
G01*
X166850000Y-109150000D02*
X166750000Y-109150000D01*
G75*
G02*
X166700000Y-109100000I0J50000D01*
G01*
X166700000Y-108400000D01*
G75*
G02*
X166750000Y-108350000I50000J0D01*
G01*
X166850000Y-108350000D01*
G75*
G02*
X166900000Y-108400000I0J-50000D01*
G01*
X166900000Y-109100000D01*
G75*
G02*
X166850000Y-109150000I-50000J0D01*
G01*
G37*
G36*
G01*
X167250000Y-109150000D02*
X167150000Y-109150000D01*
G75*
G02*
X167100000Y-109100000I0J50000D01*
G01*
X167100000Y-108400000D01*
G75*
G02*
X167150000Y-108350000I50000J0D01*
G01*
X167250000Y-108350000D01*
G75*
G02*
X167300000Y-108400000I0J-50000D01*
G01*
X167300000Y-109100000D01*
G75*
G02*
X167250000Y-109150000I-50000J0D01*
G01*
G37*
G36*
G01*
X168300000Y-108100000D02*
X167600000Y-108100000D01*
G75*
G02*
X167550000Y-108050000I0J50000D01*
G01*
X167550000Y-107950000D01*
G75*
G02*
X167600000Y-107900000I50000J0D01*
G01*
X168300000Y-107900000D01*
G75*
G02*
X168350000Y-107950000I0J-50000D01*
G01*
X168350000Y-108050000D01*
G75*
G02*
X168300000Y-108100000I-50000J0D01*
G01*
G37*
G36*
G01*
X168300000Y-107700000D02*
X167600000Y-107700000D01*
G75*
G02*
X167550000Y-107650000I0J50000D01*
G01*
X167550000Y-107550000D01*
G75*
G02*
X167600000Y-107500000I50000J0D01*
G01*
X168300000Y-107500000D01*
G75*
G02*
X168350000Y-107550000I0J-50000D01*
G01*
X168350000Y-107650000D01*
G75*
G02*
X168300000Y-107700000I-50000J0D01*
G01*
G37*
G36*
G01*
X168300000Y-107300000D02*
X167600000Y-107300000D01*
G75*
G02*
X167550000Y-107250000I0J50000D01*
G01*
X167550000Y-107150000D01*
G75*
G02*
X167600000Y-107100000I50000J0D01*
G01*
X168300000Y-107100000D01*
G75*
G02*
X168350000Y-107150000I0J-50000D01*
G01*
X168350000Y-107250000D01*
G75*
G02*
X168300000Y-107300000I-50000J0D01*
G01*
G37*
G36*
G01*
X168300000Y-106900000D02*
X167600000Y-106900000D01*
G75*
G02*
X167550000Y-106850000I0J50000D01*
G01*
X167550000Y-106750000D01*
G75*
G02*
X167600000Y-106700000I50000J0D01*
G01*
X168300000Y-106700000D01*
G75*
G02*
X168350000Y-106750000I0J-50000D01*
G01*
X168350000Y-106850000D01*
G75*
G02*
X168300000Y-106900000I-50000J0D01*
G01*
G37*
G36*
G01*
X168300000Y-106500000D02*
X167600000Y-106500000D01*
G75*
G02*
X167550000Y-106450000I0J50000D01*
G01*
X167550000Y-106350000D01*
G75*
G02*
X167600000Y-106300000I50000J0D01*
G01*
X168300000Y-106300000D01*
G75*
G02*
X168350000Y-106350000I0J-50000D01*
G01*
X168350000Y-106450000D01*
G75*
G02*
X168300000Y-106500000I-50000J0D01*
G01*
G37*
G36*
G01*
X168300000Y-106100000D02*
X167600000Y-106100000D01*
G75*
G02*
X167550000Y-106050000I0J50000D01*
G01*
X167550000Y-105950000D01*
G75*
G02*
X167600000Y-105900000I50000J0D01*
G01*
X168300000Y-105900000D01*
G75*
G02*
X168350000Y-105950000I0J-50000D01*
G01*
X168350000Y-106050000D01*
G75*
G02*
X168300000Y-106100000I-50000J0D01*
G01*
G37*
G36*
G01*
X168300000Y-105700000D02*
X167600000Y-105700000D01*
G75*
G02*
X167550000Y-105650000I0J50000D01*
G01*
X167550000Y-105550000D01*
G75*
G02*
X167600000Y-105500000I50000J0D01*
G01*
X168300000Y-105500000D01*
G75*
G02*
X168350000Y-105550000I0J-50000D01*
G01*
X168350000Y-105650000D01*
G75*
G02*
X168300000Y-105700000I-50000J0D01*
G01*
G37*
G36*
G01*
X168300000Y-105300000D02*
X167600000Y-105300000D01*
G75*
G02*
X167550000Y-105250000I0J50000D01*
G01*
X167550000Y-105150000D01*
G75*
G02*
X167600000Y-105100000I50000J0D01*
G01*
X168300000Y-105100000D01*
G75*
G02*
X168350000Y-105150000I0J-50000D01*
G01*
X168350000Y-105250000D01*
G75*
G02*
X168300000Y-105300000I-50000J0D01*
G01*
G37*
G36*
G01*
X168300000Y-104900000D02*
X167600000Y-104900000D01*
G75*
G02*
X167550000Y-104850000I0J50000D01*
G01*
X167550000Y-104750000D01*
G75*
G02*
X167600000Y-104700000I50000J0D01*
G01*
X168300000Y-104700000D01*
G75*
G02*
X168350000Y-104750000I0J-50000D01*
G01*
X168350000Y-104850000D01*
G75*
G02*
X168300000Y-104900000I-50000J0D01*
G01*
G37*
G36*
G01*
X168300000Y-104500000D02*
X167600000Y-104500000D01*
G75*
G02*
X167550000Y-104450000I0J50000D01*
G01*
X167550000Y-104350000D01*
G75*
G02*
X167600000Y-104300000I50000J0D01*
G01*
X168300000Y-104300000D01*
G75*
G02*
X168350000Y-104350000I0J-50000D01*
G01*
X168350000Y-104450000D01*
G75*
G02*
X168300000Y-104500000I-50000J0D01*
G01*
G37*
G36*
G01*
X168300000Y-104100000D02*
X167600000Y-104100000D01*
G75*
G02*
X167550000Y-104050000I0J50000D01*
G01*
X167550000Y-103950000D01*
G75*
G02*
X167600000Y-103900000I50000J0D01*
G01*
X168300000Y-103900000D01*
G75*
G02*
X168350000Y-103950000I0J-50000D01*
G01*
X168350000Y-104050000D01*
G75*
G02*
X168300000Y-104100000I-50000J0D01*
G01*
G37*
G36*
G01*
X168300000Y-103700000D02*
X167600000Y-103700000D01*
G75*
G02*
X167550000Y-103650000I0J50000D01*
G01*
X167550000Y-103550000D01*
G75*
G02*
X167600000Y-103500000I50000J0D01*
G01*
X168300000Y-103500000D01*
G75*
G02*
X168350000Y-103550000I0J-50000D01*
G01*
X168350000Y-103650000D01*
G75*
G02*
X168300000Y-103700000I-50000J0D01*
G01*
G37*
G36*
G01*
X167250000Y-103250000D02*
X167150000Y-103250000D01*
G75*
G02*
X167100000Y-103200000I0J50000D01*
G01*
X167100000Y-102500000D01*
G75*
G02*
X167150000Y-102450000I50000J0D01*
G01*
X167250000Y-102450000D01*
G75*
G02*
X167300000Y-102500000I0J-50000D01*
G01*
X167300000Y-103200000D01*
G75*
G02*
X167250000Y-103250000I-50000J0D01*
G01*
G37*
G36*
G01*
X166850000Y-103250000D02*
X166750000Y-103250000D01*
G75*
G02*
X166700000Y-103200000I0J50000D01*
G01*
X166700000Y-102500000D01*
G75*
G02*
X166750000Y-102450000I50000J0D01*
G01*
X166850000Y-102450000D01*
G75*
G02*
X166900000Y-102500000I0J-50000D01*
G01*
X166900000Y-103200000D01*
G75*
G02*
X166850000Y-103250000I-50000J0D01*
G01*
G37*
G36*
G01*
X166450000Y-103250000D02*
X166350000Y-103250000D01*
G75*
G02*
X166300000Y-103200000I0J50000D01*
G01*
X166300000Y-102500000D01*
G75*
G02*
X166350000Y-102450000I50000J0D01*
G01*
X166450000Y-102450000D01*
G75*
G02*
X166500000Y-102500000I0J-50000D01*
G01*
X166500000Y-103200000D01*
G75*
G02*
X166450000Y-103250000I-50000J0D01*
G01*
G37*
G36*
G01*
X166050000Y-103250000D02*
X165950000Y-103250000D01*
G75*
G02*
X165900000Y-103200000I0J50000D01*
G01*
X165900000Y-102500000D01*
G75*
G02*
X165950000Y-102450000I50000J0D01*
G01*
X166050000Y-102450000D01*
G75*
G02*
X166100000Y-102500000I0J-50000D01*
G01*
X166100000Y-103200000D01*
G75*
G02*
X166050000Y-103250000I-50000J0D01*
G01*
G37*
G36*
G01*
X165650000Y-103250000D02*
X165550000Y-103250000D01*
G75*
G02*
X165500000Y-103200000I0J50000D01*
G01*
X165500000Y-102500000D01*
G75*
G02*
X165550000Y-102450000I50000J0D01*
G01*
X165650000Y-102450000D01*
G75*
G02*
X165700000Y-102500000I0J-50000D01*
G01*
X165700000Y-103200000D01*
G75*
G02*
X165650000Y-103250000I-50000J0D01*
G01*
G37*
G36*
G01*
X165250000Y-103250000D02*
X165150000Y-103250000D01*
G75*
G02*
X165100000Y-103200000I0J50000D01*
G01*
X165100000Y-102500000D01*
G75*
G02*
X165150000Y-102450000I50000J0D01*
G01*
X165250000Y-102450000D01*
G75*
G02*
X165300000Y-102500000I0J-50000D01*
G01*
X165300000Y-103200000D01*
G75*
G02*
X165250000Y-103250000I-50000J0D01*
G01*
G37*
G36*
G01*
X164850000Y-103250000D02*
X164750000Y-103250000D01*
G75*
G02*
X164700000Y-103200000I0J50000D01*
G01*
X164700000Y-102500000D01*
G75*
G02*
X164750000Y-102450000I50000J0D01*
G01*
X164850000Y-102450000D01*
G75*
G02*
X164900000Y-102500000I0J-50000D01*
G01*
X164900000Y-103200000D01*
G75*
G02*
X164850000Y-103250000I-50000J0D01*
G01*
G37*
G36*
G01*
X164450000Y-103250000D02*
X164350000Y-103250000D01*
G75*
G02*
X164300000Y-103200000I0J50000D01*
G01*
X164300000Y-102500000D01*
G75*
G02*
X164350000Y-102450000I50000J0D01*
G01*
X164450000Y-102450000D01*
G75*
G02*
X164500000Y-102500000I0J-50000D01*
G01*
X164500000Y-103200000D01*
G75*
G02*
X164450000Y-103250000I-50000J0D01*
G01*
G37*
G36*
G01*
X164050000Y-103250000D02*
X163950000Y-103250000D01*
G75*
G02*
X163900000Y-103200000I0J50000D01*
G01*
X163900000Y-102500000D01*
G75*
G02*
X163950000Y-102450000I50000J0D01*
G01*
X164050000Y-102450000D01*
G75*
G02*
X164100000Y-102500000I0J-50000D01*
G01*
X164100000Y-103200000D01*
G75*
G02*
X164050000Y-103250000I-50000J0D01*
G01*
G37*
G36*
G01*
X163650000Y-103250000D02*
X163550000Y-103250000D01*
G75*
G02*
X163500000Y-103200000I0J50000D01*
G01*
X163500000Y-102500000D01*
G75*
G02*
X163550000Y-102450000I50000J0D01*
G01*
X163650000Y-102450000D01*
G75*
G02*
X163700000Y-102500000I0J-50000D01*
G01*
X163700000Y-103200000D01*
G75*
G02*
X163650000Y-103250000I-50000J0D01*
G01*
G37*
G36*
G01*
X163250000Y-103250000D02*
X163150000Y-103250000D01*
G75*
G02*
X163100000Y-103200000I0J50000D01*
G01*
X163100000Y-102500000D01*
G75*
G02*
X163150000Y-102450000I50000J0D01*
G01*
X163250000Y-102450000D01*
G75*
G02*
X163300000Y-102500000I0J-50000D01*
G01*
X163300000Y-103200000D01*
G75*
G02*
X163250000Y-103250000I-50000J0D01*
G01*
G37*
G36*
G01*
X162850000Y-103250000D02*
X162750000Y-103250000D01*
G75*
G02*
X162700000Y-103200000I0J50000D01*
G01*
X162700000Y-102500000D01*
G75*
G02*
X162750000Y-102450000I50000J0D01*
G01*
X162850000Y-102450000D01*
G75*
G02*
X162900000Y-102500000I0J-50000D01*
G01*
X162900000Y-103200000D01*
G75*
G02*
X162850000Y-103250000I-50000J0D01*
G01*
G37*
G36*
G01*
X162400000Y-103700000D02*
X161700000Y-103700000D01*
G75*
G02*
X161650000Y-103650000I0J50000D01*
G01*
X161650000Y-103550000D01*
G75*
G02*
X161700000Y-103500000I50000J0D01*
G01*
X162400000Y-103500000D01*
G75*
G02*
X162450000Y-103550000I0J-50000D01*
G01*
X162450000Y-103650000D01*
G75*
G02*
X162400000Y-103700000I-50000J0D01*
G01*
G37*
G36*
G01*
X162400000Y-104100000D02*
X161700000Y-104100000D01*
G75*
G02*
X161650000Y-104050000I0J50000D01*
G01*
X161650000Y-103950000D01*
G75*
G02*
X161700000Y-103900000I50000J0D01*
G01*
X162400000Y-103900000D01*
G75*
G02*
X162450000Y-103950000I0J-50000D01*
G01*
X162450000Y-104050000D01*
G75*
G02*
X162400000Y-104100000I-50000J0D01*
G01*
G37*
G36*
G01*
X162400000Y-104500000D02*
X161700000Y-104500000D01*
G75*
G02*
X161650000Y-104450000I0J50000D01*
G01*
X161650000Y-104350000D01*
G75*
G02*
X161700000Y-104300000I50000J0D01*
G01*
X162400000Y-104300000D01*
G75*
G02*
X162450000Y-104350000I0J-50000D01*
G01*
X162450000Y-104450000D01*
G75*
G02*
X162400000Y-104500000I-50000J0D01*
G01*
G37*
G36*
G01*
X162400000Y-104900000D02*
X161700000Y-104900000D01*
G75*
G02*
X161650000Y-104850000I0J50000D01*
G01*
X161650000Y-104750000D01*
G75*
G02*
X161700000Y-104700000I50000J0D01*
G01*
X162400000Y-104700000D01*
G75*
G02*
X162450000Y-104750000I0J-50000D01*
G01*
X162450000Y-104850000D01*
G75*
G02*
X162400000Y-104900000I-50000J0D01*
G01*
G37*
G36*
G01*
X162400000Y-105300000D02*
X161700000Y-105300000D01*
G75*
G02*
X161650000Y-105250000I0J50000D01*
G01*
X161650000Y-105150000D01*
G75*
G02*
X161700000Y-105100000I50000J0D01*
G01*
X162400000Y-105100000D01*
G75*
G02*
X162450000Y-105150000I0J-50000D01*
G01*
X162450000Y-105250000D01*
G75*
G02*
X162400000Y-105300000I-50000J0D01*
G01*
G37*
G36*
G01*
X162400000Y-105700000D02*
X161700000Y-105700000D01*
G75*
G02*
X161650000Y-105650000I0J50000D01*
G01*
X161650000Y-105550000D01*
G75*
G02*
X161700000Y-105500000I50000J0D01*
G01*
X162400000Y-105500000D01*
G75*
G02*
X162450000Y-105550000I0J-50000D01*
G01*
X162450000Y-105650000D01*
G75*
G02*
X162400000Y-105700000I-50000J0D01*
G01*
G37*
G36*
G01*
X162400000Y-106100000D02*
X161700000Y-106100000D01*
G75*
G02*
X161650000Y-106050000I0J50000D01*
G01*
X161650000Y-105950000D01*
G75*
G02*
X161700000Y-105900000I50000J0D01*
G01*
X162400000Y-105900000D01*
G75*
G02*
X162450000Y-105950000I0J-50000D01*
G01*
X162450000Y-106050000D01*
G75*
G02*
X162400000Y-106100000I-50000J0D01*
G01*
G37*
G36*
G01*
X162400000Y-106500000D02*
X161700000Y-106500000D01*
G75*
G02*
X161650000Y-106450000I0J50000D01*
G01*
X161650000Y-106350000D01*
G75*
G02*
X161700000Y-106300000I50000J0D01*
G01*
X162400000Y-106300000D01*
G75*
G02*
X162450000Y-106350000I0J-50000D01*
G01*
X162450000Y-106450000D01*
G75*
G02*
X162400000Y-106500000I-50000J0D01*
G01*
G37*
G36*
G01*
X162400000Y-106900000D02*
X161700000Y-106900000D01*
G75*
G02*
X161650000Y-106850000I0J50000D01*
G01*
X161650000Y-106750000D01*
G75*
G02*
X161700000Y-106700000I50000J0D01*
G01*
X162400000Y-106700000D01*
G75*
G02*
X162450000Y-106750000I0J-50000D01*
G01*
X162450000Y-106850000D01*
G75*
G02*
X162400000Y-106900000I-50000J0D01*
G01*
G37*
G36*
G01*
X162400000Y-107300000D02*
X161700000Y-107300000D01*
G75*
G02*
X161650000Y-107250000I0J50000D01*
G01*
X161650000Y-107150000D01*
G75*
G02*
X161700000Y-107100000I50000J0D01*
G01*
X162400000Y-107100000D01*
G75*
G02*
X162450000Y-107150000I0J-50000D01*
G01*
X162450000Y-107250000D01*
G75*
G02*
X162400000Y-107300000I-50000J0D01*
G01*
G37*
G36*
G01*
X162400000Y-107700000D02*
X161700000Y-107700000D01*
G75*
G02*
X161650000Y-107650000I0J50000D01*
G01*
X161650000Y-107550000D01*
G75*
G02*
X161700000Y-107500000I50000J0D01*
G01*
X162400000Y-107500000D01*
G75*
G02*
X162450000Y-107550000I0J-50000D01*
G01*
X162450000Y-107650000D01*
G75*
G02*
X162400000Y-107700000I-50000J0D01*
G01*
G37*
G36*
G01*
X162400000Y-108100000D02*
X161700000Y-108100000D01*
G75*
G02*
X161650000Y-108050000I0J50000D01*
G01*
X161650000Y-107950000D01*
G75*
G02*
X161700000Y-107900000I50000J0D01*
G01*
X162400000Y-107900000D01*
G75*
G02*
X162450000Y-107950000I0J-50000D01*
G01*
X162450000Y-108050000D01*
G75*
G02*
X162400000Y-108100000I-50000J0D01*
G01*
G37*
G36*
G01*
X163840000Y-107950000D02*
X163100000Y-107950000D01*
G75*
G02*
X162850000Y-107700000I0J250000D01*
G01*
X162850000Y-106960000D01*
G75*
G02*
X163100000Y-106710000I250000J0D01*
G01*
X163840000Y-106710000D01*
G75*
G02*
X164090000Y-106960000I0J-250000D01*
G01*
X164090000Y-107700000D01*
G75*
G02*
X163840000Y-107950000I-250000J0D01*
G01*
G37*
G36*
G01*
X165370000Y-107950000D02*
X164630000Y-107950000D01*
G75*
G02*
X164380000Y-107700000I0J250000D01*
G01*
X164380000Y-106960000D01*
G75*
G02*
X164630000Y-106710000I250000J0D01*
G01*
X165370000Y-106710000D01*
G75*
G02*
X165620000Y-106960000I0J-250000D01*
G01*
X165620000Y-107700000D01*
G75*
G02*
X165370000Y-107950000I-250000J0D01*
G01*
G37*
G36*
G01*
X166900000Y-107950000D02*
X166160000Y-107950000D01*
G75*
G02*
X165910000Y-107700000I0J250000D01*
G01*
X165910000Y-106960000D01*
G75*
G02*
X166160000Y-106710000I250000J0D01*
G01*
X166900000Y-106710000D01*
G75*
G02*
X167150000Y-106960000I0J-250000D01*
G01*
X167150000Y-107700000D01*
G75*
G02*
X166900000Y-107950000I-250000J0D01*
G01*
G37*
G36*
G01*
X163840000Y-106420000D02*
X163100000Y-106420000D01*
G75*
G02*
X162850000Y-106170000I0J250000D01*
G01*
X162850000Y-105430000D01*
G75*
G02*
X163100000Y-105180000I250000J0D01*
G01*
X163840000Y-105180000D01*
G75*
G02*
X164090000Y-105430000I0J-250000D01*
G01*
X164090000Y-106170000D01*
G75*
G02*
X163840000Y-106420000I-250000J0D01*
G01*
G37*
G36*
G01*
X165370000Y-106420000D02*
X164630000Y-106420000D01*
G75*
G02*
X164380000Y-106170000I0J250000D01*
G01*
X164380000Y-105430000D01*
G75*
G02*
X164630000Y-105180000I250000J0D01*
G01*
X165370000Y-105180000D01*
G75*
G02*
X165620000Y-105430000I0J-250000D01*
G01*
X165620000Y-106170000D01*
G75*
G02*
X165370000Y-106420000I-250000J0D01*
G01*
G37*
G36*
G01*
X166900000Y-106420000D02*
X166160000Y-106420000D01*
G75*
G02*
X165910000Y-106170000I0J250000D01*
G01*
X165910000Y-105430000D01*
G75*
G02*
X166160000Y-105180000I250000J0D01*
G01*
X166900000Y-105180000D01*
G75*
G02*
X167150000Y-105430000I0J-250000D01*
G01*
X167150000Y-106170000D01*
G75*
G02*
X166900000Y-106420000I-250000J0D01*
G01*
G37*
G36*
G01*
X163840000Y-104890000D02*
X163100000Y-104890000D01*
G75*
G02*
X162850000Y-104640000I0J250000D01*
G01*
X162850000Y-103900000D01*
G75*
G02*
X163100000Y-103650000I250000J0D01*
G01*
X163840000Y-103650000D01*
G75*
G02*
X164090000Y-103900000I0J-250000D01*
G01*
X164090000Y-104640000D01*
G75*
G02*
X163840000Y-104890000I-250000J0D01*
G01*
G37*
G36*
G01*
X165370000Y-104890000D02*
X164630000Y-104890000D01*
G75*
G02*
X164380000Y-104640000I0J250000D01*
G01*
X164380000Y-103900000D01*
G75*
G02*
X164630000Y-103650000I250000J0D01*
G01*
X165370000Y-103650000D01*
G75*
G02*
X165620000Y-103900000I0J-250000D01*
G01*
X165620000Y-104640000D01*
G75*
G02*
X165370000Y-104890000I-250000J0D01*
G01*
G37*
G36*
G01*
X166900000Y-104890000D02*
X166160000Y-104890000D01*
G75*
G02*
X165910000Y-104640000I0J250000D01*
G01*
X165910000Y-103900000D01*
G75*
G02*
X166160000Y-103650000I250000J0D01*
G01*
X166900000Y-103650000D01*
G75*
G02*
X167150000Y-103900000I0J-250000D01*
G01*
X167150000Y-104640000D01*
G75*
G02*
X166900000Y-104890000I-250000J0D01*
G01*
G37*
%TD*%
D10*
%TO.C,U2*%
X159400000Y-102750000D03*
X159400000Y-102250000D03*
X159400000Y-101750000D03*
X159400000Y-101250000D03*
X157600000Y-102750000D03*
X157600000Y-102250000D03*
X157600000Y-101250000D03*
X157600000Y-101750000D03*
D11*
X158500000Y-102000000D03*
D12*
X158750000Y-101100000D03*
X158750000Y-102900000D03*
X158250000Y-101100000D03*
X158250000Y-102900000D03*
%TD*%
D13*
%TO.C,Y1*%
X163925000Y-97200000D03*
X162175000Y-97200000D03*
X162175000Y-98600000D03*
X163925000Y-98600000D03*
%TD*%
M02*
