%TF.GenerationSoftware,KiCad,Pcbnew,5.1.7-a382d34a8~87~ubuntu20.04.1*%
%TF.CreationDate,2020-10-26T14:53:32+05:00*%
%TF.ProjectId,OneRing,4f6e6552-696e-4672-9e6b-696361645f70,rev?*%
%TF.SameCoordinates,Original*%
%TF.FileFunction,Soldermask,Bot*%
%TF.FilePolarity,Negative*%
%FSLAX46Y46*%
G04 Gerber Fmt 4.6, Leading zero omitted, Abs format (unit mm)*
G04 Created by KiCad (PCBNEW 5.1.7-a382d34a8~87~ubuntu20.04.1) date 2020-10-26 14:53:32*
%MOMM*%
%LPD*%
G01*
G04 APERTURE LIST*
%ADD10C,1.700000*%
%ADD11C,0.600000*%
%ADD12C,1.100000*%
G04 APERTURE END LIST*
D10*
%TO.C,J2*%
X157000000Y-109000000D03*
%TD*%
%TO.C,J3*%
X161000000Y-113000000D03*
%TD*%
%TO.C,U4*%
G36*
G01*
X170700000Y-108850000D02*
X170700000Y-108550000D01*
G75*
G02*
X170750000Y-108500000I50000J0D01*
G01*
X171450000Y-108500000D01*
G75*
G02*
X171500000Y-108550000I0J-50000D01*
G01*
X171500000Y-108850000D01*
G75*
G02*
X171450000Y-108900000I-50000J0D01*
G01*
X170750000Y-108900000D01*
G75*
G02*
X170700000Y-108850000I0J50000D01*
G01*
G37*
G36*
G01*
X170700000Y-107850000D02*
X170700000Y-107550000D01*
G75*
G02*
X170750000Y-107500000I50000J0D01*
G01*
X171450000Y-107500000D01*
G75*
G02*
X171500000Y-107550000I0J-50000D01*
G01*
X171500000Y-107850000D01*
G75*
G02*
X171450000Y-107900000I-50000J0D01*
G01*
X170750000Y-107900000D01*
G75*
G02*
X170700000Y-107850000I0J50000D01*
G01*
G37*
G36*
G01*
X172200000Y-108850000D02*
X172200000Y-108550000D01*
G75*
G02*
X172250000Y-108500000I50000J0D01*
G01*
X172950000Y-108500000D01*
G75*
G02*
X173000000Y-108550000I0J-50000D01*
G01*
X173000000Y-108850000D01*
G75*
G02*
X172950000Y-108900000I-50000J0D01*
G01*
X172250000Y-108900000D01*
G75*
G02*
X172200000Y-108850000I0J50000D01*
G01*
G37*
G36*
G01*
X170700000Y-108350000D02*
X170700000Y-108050000D01*
G75*
G02*
X170750000Y-108000000I50000J0D01*
G01*
X171450000Y-108000000D01*
G75*
G02*
X171500000Y-108050000I0J-50000D01*
G01*
X171500000Y-108350000D01*
G75*
G02*
X171450000Y-108400000I-50000J0D01*
G01*
X170750000Y-108400000D01*
G75*
G02*
X170700000Y-108350000I0J50000D01*
G01*
G37*
G36*
G01*
X172200000Y-107850000D02*
X172200000Y-107550000D01*
G75*
G02*
X172250000Y-107500000I50000J0D01*
G01*
X172950000Y-107500000D01*
G75*
G02*
X173000000Y-107550000I0J-50000D01*
G01*
X173000000Y-107850000D01*
G75*
G02*
X172950000Y-107900000I-50000J0D01*
G01*
X172250000Y-107900000D01*
G75*
G02*
X172200000Y-107850000I0J50000D01*
G01*
G37*
G36*
G01*
X172200000Y-108350000D02*
X172200000Y-108050000D01*
G75*
G02*
X172250000Y-108000000I50000J0D01*
G01*
X172950000Y-108000000D01*
G75*
G02*
X173000000Y-108050000I0J-50000D01*
G01*
X173000000Y-108350000D01*
G75*
G02*
X172950000Y-108400000I-50000J0D01*
G01*
X172250000Y-108400000D01*
G75*
G02*
X172200000Y-108350000I0J50000D01*
G01*
G37*
%TD*%
%TO.C,BT1*%
G36*
G01*
X161450000Y-109025000D02*
X161450000Y-104975000D01*
G75*
G02*
X161975000Y-104450000I525000J0D01*
G01*
X163025000Y-104450000D01*
G75*
G02*
X163550000Y-104975000I0J-525000D01*
G01*
X163550000Y-109025000D01*
G75*
G02*
X163025000Y-109550000I-525000J0D01*
G01*
X161975000Y-109550000D01*
G75*
G02*
X161450000Y-109025000I0J525000D01*
G01*
G37*
G36*
G01*
X166450000Y-109025000D02*
X166450000Y-104975000D01*
G75*
G02*
X166975000Y-104450000I525000J0D01*
G01*
X168025000Y-104450000D01*
G75*
G02*
X168550000Y-104975000I0J-525000D01*
G01*
X168550000Y-109025000D01*
G75*
G02*
X168025000Y-109550000I-525000J0D01*
G01*
X166975000Y-109550000D01*
G75*
G02*
X166450000Y-109025000I0J525000D01*
G01*
G37*
%TD*%
%TO.C,C13*%
G36*
G01*
X165875000Y-110302500D02*
X165875000Y-110697500D01*
G75*
G02*
X165702500Y-110870000I-172500J0D01*
G01*
X165357500Y-110870000D01*
G75*
G02*
X165185000Y-110697500I0J172500D01*
G01*
X165185000Y-110302500D01*
G75*
G02*
X165357500Y-110130000I172500J0D01*
G01*
X165702500Y-110130000D01*
G75*
G02*
X165875000Y-110302500I0J-172500D01*
G01*
G37*
G36*
G01*
X166845000Y-110302500D02*
X166845000Y-110697500D01*
G75*
G02*
X166672500Y-110870000I-172500J0D01*
G01*
X166327500Y-110870000D01*
G75*
G02*
X166155000Y-110697500I0J172500D01*
G01*
X166155000Y-110302500D01*
G75*
G02*
X166327500Y-110130000I172500J0D01*
G01*
X166672500Y-110130000D01*
G75*
G02*
X166845000Y-110302500I0J-172500D01*
G01*
G37*
%TD*%
%TO.C,C14*%
G36*
G01*
X171587500Y-109918750D02*
X171587500Y-110481250D01*
G75*
G02*
X171343750Y-110725000I-243750J0D01*
G01*
X170856250Y-110725000D01*
G75*
G02*
X170612500Y-110481250I0J243750D01*
G01*
X170612500Y-109918750D01*
G75*
G02*
X170856250Y-109675000I243750J0D01*
G01*
X171343750Y-109675000D01*
G75*
G02*
X171587500Y-109918750I0J-243750D01*
G01*
G37*
G36*
G01*
X173162500Y-109918750D02*
X173162500Y-110481250D01*
G75*
G02*
X172918750Y-110725000I-243750J0D01*
G01*
X172431250Y-110725000D01*
G75*
G02*
X172187500Y-110481250I0J243750D01*
G01*
X172187500Y-109918750D01*
G75*
G02*
X172431250Y-109675000I243750J0D01*
G01*
X172918750Y-109675000D01*
G75*
G02*
X173162500Y-109918750I0J-243750D01*
G01*
G37*
%TD*%
%TO.C,C15*%
G36*
G01*
X173162500Y-105918750D02*
X173162500Y-106481250D01*
G75*
G02*
X172918750Y-106725000I-243750J0D01*
G01*
X172431250Y-106725000D01*
G75*
G02*
X172187500Y-106481250I0J243750D01*
G01*
X172187500Y-105918750D01*
G75*
G02*
X172431250Y-105675000I243750J0D01*
G01*
X172918750Y-105675000D01*
G75*
G02*
X173162500Y-105918750I0J-243750D01*
G01*
G37*
G36*
G01*
X171587500Y-105918750D02*
X171587500Y-106481250D01*
G75*
G02*
X171343750Y-106725000I-243750J0D01*
G01*
X170856250Y-106725000D01*
G75*
G02*
X170612500Y-106481250I0J243750D01*
G01*
X170612500Y-105918750D01*
G75*
G02*
X170856250Y-105675000I243750J0D01*
G01*
X171343750Y-105675000D01*
G75*
G02*
X171587500Y-105918750I0J-243750D01*
G01*
G37*
%TD*%
%TO.C,D1*%
G36*
G01*
X158760000Y-104002500D02*
X158760000Y-104397500D01*
G75*
G02*
X158587500Y-104570000I-172500J0D01*
G01*
X158242500Y-104570000D01*
G75*
G02*
X158070000Y-104397500I0J172500D01*
G01*
X158070000Y-104002500D01*
G75*
G02*
X158242500Y-103830000I172500J0D01*
G01*
X158587500Y-103830000D01*
G75*
G02*
X158760000Y-104002500I0J-172500D01*
G01*
G37*
G36*
G01*
X159730000Y-104002500D02*
X159730000Y-104397500D01*
G75*
G02*
X159557500Y-104570000I-172500J0D01*
G01*
X159212500Y-104570000D01*
G75*
G02*
X159040000Y-104397500I0J172500D01*
G01*
X159040000Y-104002500D01*
G75*
G02*
X159212500Y-103830000I172500J0D01*
G01*
X159557500Y-103830000D01*
G75*
G02*
X159730000Y-104002500I0J-172500D01*
G01*
G37*
%TD*%
%TO.C,D2*%
G36*
G01*
X168915000Y-111502500D02*
X168915000Y-111897500D01*
G75*
G02*
X168742500Y-112070000I-172500J0D01*
G01*
X168397500Y-112070000D01*
G75*
G02*
X168225000Y-111897500I0J172500D01*
G01*
X168225000Y-111502500D01*
G75*
G02*
X168397500Y-111330000I172500J0D01*
G01*
X168742500Y-111330000D01*
G75*
G02*
X168915000Y-111502500I0J-172500D01*
G01*
G37*
G36*
G01*
X167945000Y-111502500D02*
X167945000Y-111897500D01*
G75*
G02*
X167772500Y-112070000I-172500J0D01*
G01*
X167427500Y-112070000D01*
G75*
G02*
X167255000Y-111897500I0J172500D01*
G01*
X167255000Y-111502500D01*
G75*
G02*
X167427500Y-111330000I172500J0D01*
G01*
X167772500Y-111330000D01*
G75*
G02*
X167945000Y-111502500I0J-172500D01*
G01*
G37*
%TD*%
D11*
%TO.C,J1*%
X156000000Y-105250000D03*
X156000000Y-99750000D03*
G36*
G01*
X157750000Y-104700000D02*
X155250000Y-104700000D01*
G75*
G02*
X155200000Y-104650000I0J50000D01*
G01*
X155200000Y-102850000D01*
G75*
G02*
X155250000Y-102800000I50000J0D01*
G01*
X157750000Y-102800000D01*
G75*
G02*
X157800000Y-102850000I0J-50000D01*
G01*
X157800000Y-104650000D01*
G75*
G02*
X157750000Y-104700000I-50000J0D01*
G01*
G37*
G36*
G01*
X157750000Y-102200000D02*
X155250000Y-102200000D01*
G75*
G02*
X155200000Y-102150000I0J50000D01*
G01*
X155200000Y-100350000D01*
G75*
G02*
X155250000Y-100300000I50000J0D01*
G01*
X157750000Y-100300000D01*
G75*
G02*
X157800000Y-100350000I0J-50000D01*
G01*
X157800000Y-102150000D01*
G75*
G02*
X157750000Y-102200000I-50000J0D01*
G01*
G37*
%TD*%
%TO.C,R1*%
G36*
G01*
X164845000Y-110302500D02*
X164845000Y-110697500D01*
G75*
G02*
X164672500Y-110870000I-172500J0D01*
G01*
X164327500Y-110870000D01*
G75*
G02*
X164155000Y-110697500I0J172500D01*
G01*
X164155000Y-110302500D01*
G75*
G02*
X164327500Y-110130000I172500J0D01*
G01*
X164672500Y-110130000D01*
G75*
G02*
X164845000Y-110302500I0J-172500D01*
G01*
G37*
G36*
G01*
X163875000Y-110302500D02*
X163875000Y-110697500D01*
G75*
G02*
X163702500Y-110870000I-172500J0D01*
G01*
X163357500Y-110870000D01*
G75*
G02*
X163185000Y-110697500I0J172500D01*
G01*
X163185000Y-110302500D01*
G75*
G02*
X163357500Y-110130000I172500J0D01*
G01*
X163702500Y-110130000D01*
G75*
G02*
X163875000Y-110302500I0J-172500D01*
G01*
G37*
%TD*%
%TO.C,R2*%
G36*
G01*
X167945000Y-112702500D02*
X167945000Y-113097500D01*
G75*
G02*
X167772500Y-113270000I-172500J0D01*
G01*
X167427500Y-113270000D01*
G75*
G02*
X167255000Y-113097500I0J172500D01*
G01*
X167255000Y-112702500D01*
G75*
G02*
X167427500Y-112530000I172500J0D01*
G01*
X167772500Y-112530000D01*
G75*
G02*
X167945000Y-112702500I0J-172500D01*
G01*
G37*
G36*
G01*
X168915000Y-112702500D02*
X168915000Y-113097500D01*
G75*
G02*
X168742500Y-113270000I-172500J0D01*
G01*
X168397500Y-113270000D01*
G75*
G02*
X168225000Y-113097500I0J172500D01*
G01*
X168225000Y-112702500D01*
G75*
G02*
X168397500Y-112530000I172500J0D01*
G01*
X168742500Y-112530000D01*
G75*
G02*
X168915000Y-112702500I0J-172500D01*
G01*
G37*
%TD*%
%TO.C,R3*%
G36*
G01*
X167255000Y-110697500D02*
X167255000Y-110302500D01*
G75*
G02*
X167427500Y-110130000I172500J0D01*
G01*
X167772500Y-110130000D01*
G75*
G02*
X167945000Y-110302500I0J-172500D01*
G01*
X167945000Y-110697500D01*
G75*
G02*
X167772500Y-110870000I-172500J0D01*
G01*
X167427500Y-110870000D01*
G75*
G02*
X167255000Y-110697500I0J172500D01*
G01*
G37*
G36*
G01*
X168225000Y-110697500D02*
X168225000Y-110302500D01*
G75*
G02*
X168397500Y-110130000I172500J0D01*
G01*
X168742500Y-110130000D01*
G75*
G02*
X168915000Y-110302500I0J-172500D01*
G01*
X168915000Y-110697500D01*
G75*
G02*
X168742500Y-110870000I-172500J0D01*
G01*
X168397500Y-110870000D01*
G75*
G02*
X168225000Y-110697500I0J172500D01*
G01*
G37*
%TD*%
%TO.C,SW1*%
G36*
G01*
X172050000Y-100400000D02*
X172950000Y-100400000D01*
G75*
G02*
X173150000Y-100600000I0J-200000D01*
G01*
X173150000Y-101000000D01*
G75*
G02*
X172950000Y-101200000I-200000J0D01*
G01*
X172050000Y-101200000D01*
G75*
G02*
X171850000Y-101000000I0J200000D01*
G01*
X171850000Y-100600000D01*
G75*
G02*
X172050000Y-100400000I200000J0D01*
G01*
G37*
G36*
G01*
X172100000Y-103800000D02*
X173000000Y-103800000D01*
G75*
G02*
X173200000Y-104000000I0J-200000D01*
G01*
X173200000Y-104400000D01*
G75*
G02*
X173000000Y-104600000I-200000J0D01*
G01*
X172100000Y-104600000D01*
G75*
G02*
X171900000Y-104400000I0J200000D01*
G01*
X171900000Y-104000000D01*
G75*
G02*
X172100000Y-103800000I200000J0D01*
G01*
G37*
G36*
G01*
X173800000Y-99800000D02*
X175100000Y-99800000D01*
G75*
G02*
X175150000Y-99850000I0J-50000D01*
G01*
X175150000Y-100450000D01*
G75*
G02*
X175100000Y-100500000I-50000J0D01*
G01*
X173800000Y-100500000D01*
G75*
G02*
X173750000Y-100450000I0J50000D01*
G01*
X173750000Y-99850000D01*
G75*
G02*
X173800000Y-99800000I50000J0D01*
G01*
G37*
D12*
X173800000Y-101650000D03*
X173800000Y-103350000D03*
G36*
G01*
X175150000Y-99850000D02*
X175150000Y-100950000D01*
G75*
G02*
X175100000Y-101000000I-50000J0D01*
G01*
X174500000Y-101000000D01*
G75*
G02*
X174450000Y-100950000I0J50000D01*
G01*
X174450000Y-99850000D01*
G75*
G02*
X174500000Y-99800000I50000J0D01*
G01*
X175100000Y-99800000D01*
G75*
G02*
X175150000Y-99850000I0J-50000D01*
G01*
G37*
G36*
G01*
X173800000Y-104500000D02*
X175100000Y-104500000D01*
G75*
G02*
X175150000Y-104550000I0J-50000D01*
G01*
X175150000Y-105150000D01*
G75*
G02*
X175100000Y-105200000I-50000J0D01*
G01*
X173800000Y-105200000D01*
G75*
G02*
X173750000Y-105150000I0J50000D01*
G01*
X173750000Y-104550000D01*
G75*
G02*
X173800000Y-104500000I50000J0D01*
G01*
G37*
G36*
G01*
X175150000Y-104050000D02*
X175150000Y-105150000D01*
G75*
G02*
X175100000Y-105200000I-50000J0D01*
G01*
X174500000Y-105200000D01*
G75*
G02*
X174450000Y-105150000I0J50000D01*
G01*
X174450000Y-104050000D01*
G75*
G02*
X174500000Y-104000000I50000J0D01*
G01*
X175100000Y-104000000D01*
G75*
G02*
X175150000Y-104050000I0J-50000D01*
G01*
G37*
G36*
G01*
X173800000Y-99200000D02*
X175100000Y-99200000D01*
G75*
G02*
X175150000Y-99250000I0J-50000D01*
G01*
X175150000Y-99850000D01*
G75*
G02*
X175100000Y-99900000I-50000J0D01*
G01*
X173800000Y-99900000D01*
G75*
G02*
X173750000Y-99850000I0J50000D01*
G01*
X173750000Y-99250000D01*
G75*
G02*
X173800000Y-99200000I50000J0D01*
G01*
G37*
G36*
G01*
X173800000Y-105100000D02*
X175100000Y-105100000D01*
G75*
G02*
X175150000Y-105150000I0J-50000D01*
G01*
X175150000Y-105750000D01*
G75*
G02*
X175100000Y-105800000I-50000J0D01*
G01*
X173800000Y-105800000D01*
G75*
G02*
X173750000Y-105750000I0J50000D01*
G01*
X173750000Y-105150000D01*
G75*
G02*
X173800000Y-105100000I50000J0D01*
G01*
G37*
%TD*%
%TO.C,U3*%
G36*
G01*
X163320000Y-114175000D02*
X163320000Y-113525000D01*
G75*
G02*
X163370000Y-113475000I50000J0D01*
G01*
X164430000Y-113475000D01*
G75*
G02*
X164480000Y-113525000I0J-50000D01*
G01*
X164480000Y-114175000D01*
G75*
G02*
X164430000Y-114225000I-50000J0D01*
G01*
X163370000Y-114225000D01*
G75*
G02*
X163320000Y-114175000I0J50000D01*
G01*
G37*
G36*
G01*
X163320000Y-113225000D02*
X163320000Y-112575000D01*
G75*
G02*
X163370000Y-112525000I50000J0D01*
G01*
X164430000Y-112525000D01*
G75*
G02*
X164480000Y-112575000I0J-50000D01*
G01*
X164480000Y-113225000D01*
G75*
G02*
X164430000Y-113275000I-50000J0D01*
G01*
X163370000Y-113275000D01*
G75*
G02*
X163320000Y-113225000I0J50000D01*
G01*
G37*
G36*
G01*
X163320000Y-112275000D02*
X163320000Y-111625000D01*
G75*
G02*
X163370000Y-111575000I50000J0D01*
G01*
X164430000Y-111575000D01*
G75*
G02*
X164480000Y-111625000I0J-50000D01*
G01*
X164480000Y-112275000D01*
G75*
G02*
X164430000Y-112325000I-50000J0D01*
G01*
X163370000Y-112325000D01*
G75*
G02*
X163320000Y-112275000I0J50000D01*
G01*
G37*
G36*
G01*
X165520000Y-112275000D02*
X165520000Y-111625000D01*
G75*
G02*
X165570000Y-111575000I50000J0D01*
G01*
X166630000Y-111575000D01*
G75*
G02*
X166680000Y-111625000I0J-50000D01*
G01*
X166680000Y-112275000D01*
G75*
G02*
X166630000Y-112325000I-50000J0D01*
G01*
X165570000Y-112325000D01*
G75*
G02*
X165520000Y-112275000I0J50000D01*
G01*
G37*
G36*
G01*
X165520000Y-114175000D02*
X165520000Y-113525000D01*
G75*
G02*
X165570000Y-113475000I50000J0D01*
G01*
X166630000Y-113475000D01*
G75*
G02*
X166680000Y-113525000I0J-50000D01*
G01*
X166680000Y-114175000D01*
G75*
G02*
X166630000Y-114225000I-50000J0D01*
G01*
X165570000Y-114225000D01*
G75*
G02*
X165520000Y-114175000I0J50000D01*
G01*
G37*
G36*
G01*
X165520000Y-113225000D02*
X165520000Y-112575000D01*
G75*
G02*
X165570000Y-112525000I50000J0D01*
G01*
X166630000Y-112525000D01*
G75*
G02*
X166680000Y-112575000I0J-50000D01*
G01*
X166680000Y-113225000D01*
G75*
G02*
X166630000Y-113275000I-50000J0D01*
G01*
X165570000Y-113275000D01*
G75*
G02*
X165520000Y-113225000I0J50000D01*
G01*
G37*
%TD*%
M02*
