%TF.GenerationSoftware,KiCad,Pcbnew,5.1.7-a382d34a8~87~ubuntu20.04.1*%
%TF.CreationDate,2020-10-26T14:53:32+05:00*%
%TF.ProjectId,OneRing,4f6e6552-696e-4672-9e6b-696361645f70,rev?*%
%TF.SameCoordinates,Original*%
%TF.FileFunction,Legend,Bot*%
%TF.FilePolarity,Positive*%
%FSLAX46Y46*%
G04 Gerber Fmt 4.6, Leading zero omitted, Abs format (unit mm)*
G04 Created by KiCad (PCBNEW 5.1.7-a382d34a8~87~ubuntu20.04.1) date 2020-10-26 14:53:32*
%MOMM*%
%LPD*%
G01*
G04 APERTURE LIST*
%ADD10C,0.120000*%
%ADD11C,0.100000*%
%ADD12C,0.125000*%
%ADD13C,1.700000*%
%ADD14C,0.600000*%
%ADD15C,1.100000*%
G04 APERTURE END LIST*
D10*
%TO.C,U4*%
X170950000Y-109100000D02*
X172500000Y-109100000D01*
X172500000Y-107300000D02*
X171200000Y-107300000D01*
D11*
%TO.C,BT1*%
G36*
X164000000Y-108000000D02*
G01*
X164000000Y-109000000D01*
X165000000Y-110000000D01*
X166000000Y-110000000D01*
X164000000Y-108000000D01*
G37*
X164000000Y-108000000D02*
X164000000Y-109000000D01*
X165000000Y-110000000D01*
X166000000Y-110000000D01*
X164000000Y-108000000D01*
G36*
X166000000Y-108000000D02*
G01*
X164000000Y-106000000D01*
X164000000Y-107000000D01*
X166000000Y-109000000D01*
X166000000Y-108000000D01*
G37*
X166000000Y-108000000D02*
X164000000Y-106000000D01*
X164000000Y-107000000D01*
X166000000Y-109000000D01*
X166000000Y-108000000D01*
G36*
X166000000Y-106000000D02*
G01*
X164000000Y-104000000D01*
X163500000Y-104000000D01*
X164000000Y-104500000D01*
X164000000Y-105000000D01*
X166000000Y-107000000D01*
X166000000Y-106000000D01*
G37*
X166000000Y-106000000D02*
X164000000Y-104000000D01*
X163500000Y-104000000D01*
X164000000Y-104500000D01*
X164000000Y-105000000D01*
X166000000Y-107000000D01*
X166000000Y-106000000D01*
G36*
X161000000Y-109000000D02*
G01*
X160000000Y-108000000D01*
X160000000Y-109000000D01*
X161000000Y-110000000D01*
X161000000Y-109000000D01*
G37*
X161000000Y-109000000D02*
X160000000Y-108000000D01*
X160000000Y-109000000D01*
X161000000Y-110000000D01*
X161000000Y-109000000D01*
G36*
X161000000Y-107000000D02*
G01*
X160000000Y-106000000D01*
X160000000Y-107000000D01*
X161000000Y-108000000D01*
X161000000Y-107000000D01*
G37*
X161000000Y-107000000D02*
X160000000Y-106000000D01*
X160000000Y-107000000D01*
X161000000Y-108000000D01*
X161000000Y-107000000D01*
G36*
X161000000Y-105000000D02*
G01*
X160000000Y-104000000D01*
X160000000Y-105000000D01*
X161000000Y-106000000D01*
X161000000Y-105000000D01*
G37*
X161000000Y-105000000D02*
X160000000Y-104000000D01*
X160000000Y-105000000D01*
X161000000Y-106000000D01*
X161000000Y-105000000D01*
G36*
X160000000Y-102000000D02*
G01*
X160000000Y-103000000D01*
X161000000Y-104000000D01*
X162000000Y-104000000D01*
X160000000Y-102000000D01*
G37*
X160000000Y-102000000D02*
X160000000Y-103000000D01*
X161000000Y-104000000D01*
X162000000Y-104000000D01*
X160000000Y-102000000D01*
G36*
X160000000Y-100000000D02*
G01*
X160000000Y-101000000D01*
X163000000Y-104000000D01*
X164000000Y-104000000D01*
X160000000Y-100000000D01*
G37*
X160000000Y-100000000D02*
X160000000Y-101000000D01*
X163000000Y-104000000D01*
X164000000Y-104000000D01*
X160000000Y-100000000D01*
G36*
X166000000Y-104000000D02*
G01*
X162000000Y-100000000D01*
X161000000Y-100000000D01*
X166000000Y-105000000D01*
X166000000Y-104000000D01*
G37*
X166000000Y-104000000D02*
X162000000Y-100000000D01*
X161000000Y-100000000D01*
X166000000Y-105000000D01*
X166000000Y-104000000D01*
G36*
X164000000Y-100000000D02*
G01*
X163000000Y-100000000D01*
X167000000Y-104000000D01*
X168000000Y-104000000D01*
X164000000Y-100000000D01*
G37*
X164000000Y-100000000D02*
X163000000Y-100000000D01*
X167000000Y-104000000D01*
X168000000Y-104000000D01*
X164000000Y-100000000D01*
G36*
X169000000Y-109000000D02*
G01*
X169000000Y-110000000D01*
X170000000Y-110000000D01*
X169000000Y-109000000D01*
G37*
X169000000Y-109000000D02*
X169000000Y-110000000D01*
X170000000Y-110000000D01*
X169000000Y-109000000D01*
G36*
X170000000Y-108000000D02*
G01*
X169000000Y-107000000D01*
X169000000Y-108000000D01*
X170000000Y-109000000D01*
X170000000Y-108000000D01*
G37*
X170000000Y-108000000D02*
X169000000Y-107000000D01*
X169000000Y-108000000D01*
X170000000Y-109000000D01*
X170000000Y-108000000D01*
G36*
X170000000Y-106000000D02*
G01*
X169000000Y-105000000D01*
X169000000Y-106000000D01*
X170000000Y-107000000D01*
X170000000Y-106000000D01*
G37*
X170000000Y-106000000D02*
X169000000Y-105000000D01*
X169000000Y-106000000D01*
X170000000Y-107000000D01*
X170000000Y-106000000D01*
G36*
X170000000Y-104000000D02*
G01*
X166000000Y-100000000D01*
X165000000Y-100000000D01*
X170000000Y-105000000D01*
X170000000Y-104000000D01*
G37*
X170000000Y-104000000D02*
X166000000Y-100000000D01*
X165000000Y-100000000D01*
X170000000Y-105000000D01*
X170000000Y-104000000D01*
G36*
X170000000Y-102000000D02*
G01*
X168000000Y-100000000D01*
X167000000Y-100000000D01*
X170000000Y-103000000D01*
X170000000Y-102000000D01*
G37*
X170000000Y-102000000D02*
X168000000Y-100000000D01*
X167000000Y-100000000D01*
X170000000Y-103000000D01*
X170000000Y-102000000D01*
G36*
X170000000Y-100000000D02*
G01*
X169000000Y-100000000D01*
X170000000Y-101000000D01*
X170000000Y-100000000D01*
G37*
X170000000Y-100000000D02*
X169000000Y-100000000D01*
X170000000Y-101000000D01*
X170000000Y-100000000D01*
D10*
X160000000Y-100000000D02*
X160000000Y-110000000D01*
X170000000Y-100000000D02*
X160000000Y-100000000D01*
X170000000Y-110000000D02*
X170000000Y-100000000D01*
X160000000Y-110000000D02*
X170000000Y-110000000D01*
%TO.C,C14*%
X172050279Y-109690000D02*
X171724721Y-109690000D01*
X172050279Y-110710000D02*
X171724721Y-110710000D01*
%TO.C,C15*%
X172050279Y-106710000D02*
X171724721Y-106710000D01*
X172050279Y-105690000D02*
X171724721Y-105690000D01*
D11*
%TO.C,D1*%
X160040000Y-104200000D02*
G75*
G03*
X160040000Y-104200000I-50000J0D01*
G01*
%TO.C,D2*%
X169225000Y-111700000D02*
G75*
G03*
X169225000Y-111700000I-50000J0D01*
G01*
D10*
%TO.C,J1*%
X157000000Y-102650000D02*
X157000000Y-102350000D01*
X157250000Y-99500000D02*
X157250000Y-100000000D01*
X154750000Y-105500000D02*
X157250000Y-105500000D01*
X154750000Y-99500000D02*
X154750000Y-105500000D01*
X157250000Y-99500000D02*
X154750000Y-99500000D01*
X157250000Y-105500000D02*
X157250000Y-105000000D01*
%TO.C,SW1*%
X171300000Y-104000000D02*
X171500000Y-104000000D01*
X171300000Y-101000000D02*
X171300000Y-104000000D01*
X171500000Y-101000000D02*
X171300000Y-101000000D01*
X171500000Y-100000000D02*
X173000000Y-100000000D01*
X171500000Y-105000000D02*
X173000000Y-105000000D01*
X171500000Y-100000000D02*
X171500000Y-105000000D01*
%TO.C,U3*%
X165900000Y-114510000D02*
X163450000Y-114510000D01*
X164100000Y-111290000D02*
X165900000Y-111290000D01*
%TO.C,U4*%
D12*
X174205952Y-107926190D02*
X174205952Y-108330952D01*
X174182142Y-108378571D01*
X174158333Y-108402380D01*
X174110714Y-108426190D01*
X174015476Y-108426190D01*
X173967857Y-108402380D01*
X173944047Y-108378571D01*
X173920238Y-108330952D01*
X173920238Y-107926190D01*
X173467857Y-108092857D02*
X173467857Y-108426190D01*
X173586904Y-107902380D02*
X173705952Y-108259523D01*
X173396428Y-108259523D01*
%TO.C,BT1*%
X165392857Y-99464285D02*
X165321428Y-99488095D01*
X165297619Y-99511904D01*
X165273809Y-99559523D01*
X165273809Y-99630952D01*
X165297619Y-99678571D01*
X165321428Y-99702380D01*
X165369047Y-99726190D01*
X165559523Y-99726190D01*
X165559523Y-99226190D01*
X165392857Y-99226190D01*
X165345238Y-99250000D01*
X165321428Y-99273809D01*
X165297619Y-99321428D01*
X165297619Y-99369047D01*
X165321428Y-99416666D01*
X165345238Y-99440476D01*
X165392857Y-99464285D01*
X165559523Y-99464285D01*
X165130952Y-99226190D02*
X164845238Y-99226190D01*
X164988095Y-99726190D02*
X164988095Y-99226190D01*
X164416666Y-99726190D02*
X164702380Y-99726190D01*
X164559523Y-99726190D02*
X164559523Y-99226190D01*
X164607142Y-99297619D01*
X164654761Y-99345238D01*
X164702380Y-99369047D01*
%TO.C,C13*%
X162546428Y-110703571D02*
X162570238Y-110727380D01*
X162641666Y-110751190D01*
X162689285Y-110751190D01*
X162760714Y-110727380D01*
X162808333Y-110679761D01*
X162832142Y-110632142D01*
X162855952Y-110536904D01*
X162855952Y-110465476D01*
X162832142Y-110370238D01*
X162808333Y-110322619D01*
X162760714Y-110275000D01*
X162689285Y-110251190D01*
X162641666Y-110251190D01*
X162570238Y-110275000D01*
X162546428Y-110298809D01*
X162070238Y-110751190D02*
X162355952Y-110751190D01*
X162213095Y-110751190D02*
X162213095Y-110251190D01*
X162260714Y-110322619D01*
X162308333Y-110370238D01*
X162355952Y-110394047D01*
X161903571Y-110251190D02*
X161594047Y-110251190D01*
X161760714Y-110441666D01*
X161689285Y-110441666D01*
X161641666Y-110465476D01*
X161617857Y-110489285D01*
X161594047Y-110536904D01*
X161594047Y-110655952D01*
X161617857Y-110703571D01*
X161641666Y-110727380D01*
X161689285Y-110751190D01*
X161832142Y-110751190D01*
X161879761Y-110727380D01*
X161903571Y-110703571D01*
%TO.C,C14*%
X172208928Y-111503571D02*
X172232738Y-111527380D01*
X172304166Y-111551190D01*
X172351785Y-111551190D01*
X172423214Y-111527380D01*
X172470833Y-111479761D01*
X172494642Y-111432142D01*
X172518452Y-111336904D01*
X172518452Y-111265476D01*
X172494642Y-111170238D01*
X172470833Y-111122619D01*
X172423214Y-111075000D01*
X172351785Y-111051190D01*
X172304166Y-111051190D01*
X172232738Y-111075000D01*
X172208928Y-111098809D01*
X171732738Y-111551190D02*
X172018452Y-111551190D01*
X171875595Y-111551190D02*
X171875595Y-111051190D01*
X171923214Y-111122619D01*
X171970833Y-111170238D01*
X172018452Y-111194047D01*
X171304166Y-111217857D02*
X171304166Y-111551190D01*
X171423214Y-111027380D02*
X171542261Y-111384523D01*
X171232738Y-111384523D01*
%TO.C,C15*%
X171171428Y-105278571D02*
X171195238Y-105302380D01*
X171266666Y-105326190D01*
X171314285Y-105326190D01*
X171385714Y-105302380D01*
X171433333Y-105254761D01*
X171457142Y-105207142D01*
X171480952Y-105111904D01*
X171480952Y-105040476D01*
X171457142Y-104945238D01*
X171433333Y-104897619D01*
X171385714Y-104850000D01*
X171314285Y-104826190D01*
X171266666Y-104826190D01*
X171195238Y-104850000D01*
X171171428Y-104873809D01*
X170695238Y-105326190D02*
X170980952Y-105326190D01*
X170838095Y-105326190D02*
X170838095Y-104826190D01*
X170885714Y-104897619D01*
X170933333Y-104945238D01*
X170980952Y-104969047D01*
X170242857Y-104826190D02*
X170480952Y-104826190D01*
X170504761Y-105064285D01*
X170480952Y-105040476D01*
X170433333Y-105016666D01*
X170314285Y-105016666D01*
X170266666Y-105040476D01*
X170242857Y-105064285D01*
X170219047Y-105111904D01*
X170219047Y-105230952D01*
X170242857Y-105278571D01*
X170266666Y-105302380D01*
X170314285Y-105326190D01*
X170433333Y-105326190D01*
X170480952Y-105302380D01*
X170504761Y-105278571D01*
%TO.C,D1*%
X159269047Y-103256190D02*
X159269047Y-102756190D01*
X159150000Y-102756190D01*
X159078571Y-102780000D01*
X159030952Y-102827619D01*
X159007142Y-102875238D01*
X158983333Y-102970476D01*
X158983333Y-103041904D01*
X159007142Y-103137142D01*
X159030952Y-103184761D01*
X159078571Y-103232380D01*
X159150000Y-103256190D01*
X159269047Y-103256190D01*
X158507142Y-103256190D02*
X158792857Y-103256190D01*
X158650000Y-103256190D02*
X158650000Y-102756190D01*
X158697619Y-102827619D01*
X158745238Y-102875238D01*
X158792857Y-102899047D01*
%TO.C,D2*%
X170019047Y-111516190D02*
X170019047Y-111016190D01*
X169900000Y-111016190D01*
X169828571Y-111040000D01*
X169780952Y-111087619D01*
X169757142Y-111135238D01*
X169733333Y-111230476D01*
X169733333Y-111301904D01*
X169757142Y-111397142D01*
X169780952Y-111444761D01*
X169828571Y-111492380D01*
X169900000Y-111516190D01*
X170019047Y-111516190D01*
X169542857Y-111063809D02*
X169519047Y-111040000D01*
X169471428Y-111016190D01*
X169352380Y-111016190D01*
X169304761Y-111040000D01*
X169280952Y-111063809D01*
X169257142Y-111111428D01*
X169257142Y-111159047D01*
X169280952Y-111230476D01*
X169566666Y-111516190D01*
X169257142Y-111516190D01*
%TO.C,R1*%
X160933333Y-110726190D02*
X161100000Y-110488095D01*
X161219047Y-110726190D02*
X161219047Y-110226190D01*
X161028571Y-110226190D01*
X160980952Y-110250000D01*
X160957142Y-110273809D01*
X160933333Y-110321428D01*
X160933333Y-110392857D01*
X160957142Y-110440476D01*
X160980952Y-110464285D01*
X161028571Y-110488095D01*
X161219047Y-110488095D01*
X160457142Y-110726190D02*
X160742857Y-110726190D01*
X160600000Y-110726190D02*
X160600000Y-110226190D01*
X160647619Y-110297619D01*
X160695238Y-110345238D01*
X160742857Y-110369047D01*
%TO.C,R2*%
X168168333Y-114026190D02*
X168335000Y-113788095D01*
X168454047Y-114026190D02*
X168454047Y-113526190D01*
X168263571Y-113526190D01*
X168215952Y-113550000D01*
X168192142Y-113573809D01*
X168168333Y-113621428D01*
X168168333Y-113692857D01*
X168192142Y-113740476D01*
X168215952Y-113764285D01*
X168263571Y-113788095D01*
X168454047Y-113788095D01*
X167977857Y-113573809D02*
X167954047Y-113550000D01*
X167906428Y-113526190D01*
X167787380Y-113526190D01*
X167739761Y-113550000D01*
X167715952Y-113573809D01*
X167692142Y-113621428D01*
X167692142Y-113669047D01*
X167715952Y-113740476D01*
X168001666Y-114026190D01*
X167692142Y-114026190D01*
%TO.C,R3*%
X169733333Y-110726190D02*
X169900000Y-110488095D01*
X170019047Y-110726190D02*
X170019047Y-110226190D01*
X169828571Y-110226190D01*
X169780952Y-110250000D01*
X169757142Y-110273809D01*
X169733333Y-110321428D01*
X169733333Y-110392857D01*
X169757142Y-110440476D01*
X169780952Y-110464285D01*
X169828571Y-110488095D01*
X170019047Y-110488095D01*
X169566666Y-110226190D02*
X169257142Y-110226190D01*
X169423809Y-110416666D01*
X169352380Y-110416666D01*
X169304761Y-110440476D01*
X169280952Y-110464285D01*
X169257142Y-110511904D01*
X169257142Y-110630952D01*
X169280952Y-110678571D01*
X169304761Y-110702380D01*
X169352380Y-110726190D01*
X169495238Y-110726190D01*
X169542857Y-110702380D01*
X169566666Y-110678571D01*
%TO.C,SW1*%
X172302380Y-101833333D02*
X172326190Y-101904761D01*
X172326190Y-102023809D01*
X172302380Y-102071428D01*
X172278571Y-102095238D01*
X172230952Y-102119047D01*
X172183333Y-102119047D01*
X172135714Y-102095238D01*
X172111904Y-102071428D01*
X172088095Y-102023809D01*
X172064285Y-101928571D01*
X172040476Y-101880952D01*
X172016666Y-101857142D01*
X171969047Y-101833333D01*
X171921428Y-101833333D01*
X171873809Y-101857142D01*
X171850000Y-101880952D01*
X171826190Y-101928571D01*
X171826190Y-102047619D01*
X171850000Y-102119047D01*
X171826190Y-102285714D02*
X172326190Y-102404761D01*
X171969047Y-102500000D01*
X172326190Y-102595238D01*
X171826190Y-102714285D01*
X172326190Y-103166666D02*
X172326190Y-102880952D01*
X172326190Y-103023809D02*
X171826190Y-103023809D01*
X171897619Y-102976190D01*
X171945238Y-102928571D01*
X171969047Y-102880952D01*
%TO.C,U3*%
X162920952Y-113926190D02*
X162920952Y-114330952D01*
X162897142Y-114378571D01*
X162873333Y-114402380D01*
X162825714Y-114426190D01*
X162730476Y-114426190D01*
X162682857Y-114402380D01*
X162659047Y-114378571D01*
X162635238Y-114330952D01*
X162635238Y-113926190D01*
X162444761Y-113926190D02*
X162135238Y-113926190D01*
X162301904Y-114116666D01*
X162230476Y-114116666D01*
X162182857Y-114140476D01*
X162159047Y-114164285D01*
X162135238Y-114211904D01*
X162135238Y-114330952D01*
X162159047Y-114378571D01*
X162182857Y-114402380D01*
X162230476Y-114426190D01*
X162373333Y-114426190D01*
X162420952Y-114402380D01*
X162444761Y-114378571D01*
%TD*%
%LPC*%
D13*
%TO.C,J2*%
X157000000Y-109000000D03*
%TD*%
%TO.C,J3*%
X161000000Y-113000000D03*
%TD*%
%TO.C,U4*%
G36*
G01*
X170700000Y-108850000D02*
X170700000Y-108550000D01*
G75*
G02*
X170750000Y-108500000I50000J0D01*
G01*
X171450000Y-108500000D01*
G75*
G02*
X171500000Y-108550000I0J-50000D01*
G01*
X171500000Y-108850000D01*
G75*
G02*
X171450000Y-108900000I-50000J0D01*
G01*
X170750000Y-108900000D01*
G75*
G02*
X170700000Y-108850000I0J50000D01*
G01*
G37*
G36*
G01*
X170700000Y-107850000D02*
X170700000Y-107550000D01*
G75*
G02*
X170750000Y-107500000I50000J0D01*
G01*
X171450000Y-107500000D01*
G75*
G02*
X171500000Y-107550000I0J-50000D01*
G01*
X171500000Y-107850000D01*
G75*
G02*
X171450000Y-107900000I-50000J0D01*
G01*
X170750000Y-107900000D01*
G75*
G02*
X170700000Y-107850000I0J50000D01*
G01*
G37*
G36*
G01*
X172200000Y-108850000D02*
X172200000Y-108550000D01*
G75*
G02*
X172250000Y-108500000I50000J0D01*
G01*
X172950000Y-108500000D01*
G75*
G02*
X173000000Y-108550000I0J-50000D01*
G01*
X173000000Y-108850000D01*
G75*
G02*
X172950000Y-108900000I-50000J0D01*
G01*
X172250000Y-108900000D01*
G75*
G02*
X172200000Y-108850000I0J50000D01*
G01*
G37*
G36*
G01*
X170700000Y-108350000D02*
X170700000Y-108050000D01*
G75*
G02*
X170750000Y-108000000I50000J0D01*
G01*
X171450000Y-108000000D01*
G75*
G02*
X171500000Y-108050000I0J-50000D01*
G01*
X171500000Y-108350000D01*
G75*
G02*
X171450000Y-108400000I-50000J0D01*
G01*
X170750000Y-108400000D01*
G75*
G02*
X170700000Y-108350000I0J50000D01*
G01*
G37*
G36*
G01*
X172200000Y-107850000D02*
X172200000Y-107550000D01*
G75*
G02*
X172250000Y-107500000I50000J0D01*
G01*
X172950000Y-107500000D01*
G75*
G02*
X173000000Y-107550000I0J-50000D01*
G01*
X173000000Y-107850000D01*
G75*
G02*
X172950000Y-107900000I-50000J0D01*
G01*
X172250000Y-107900000D01*
G75*
G02*
X172200000Y-107850000I0J50000D01*
G01*
G37*
G36*
G01*
X172200000Y-108350000D02*
X172200000Y-108050000D01*
G75*
G02*
X172250000Y-108000000I50000J0D01*
G01*
X172950000Y-108000000D01*
G75*
G02*
X173000000Y-108050000I0J-50000D01*
G01*
X173000000Y-108350000D01*
G75*
G02*
X172950000Y-108400000I-50000J0D01*
G01*
X172250000Y-108400000D01*
G75*
G02*
X172200000Y-108350000I0J50000D01*
G01*
G37*
%TD*%
%TO.C,BT1*%
G36*
G01*
X161450000Y-109025000D02*
X161450000Y-104975000D01*
G75*
G02*
X161975000Y-104450000I525000J0D01*
G01*
X163025000Y-104450000D01*
G75*
G02*
X163550000Y-104975000I0J-525000D01*
G01*
X163550000Y-109025000D01*
G75*
G02*
X163025000Y-109550000I-525000J0D01*
G01*
X161975000Y-109550000D01*
G75*
G02*
X161450000Y-109025000I0J525000D01*
G01*
G37*
G36*
G01*
X166450000Y-109025000D02*
X166450000Y-104975000D01*
G75*
G02*
X166975000Y-104450000I525000J0D01*
G01*
X168025000Y-104450000D01*
G75*
G02*
X168550000Y-104975000I0J-525000D01*
G01*
X168550000Y-109025000D01*
G75*
G02*
X168025000Y-109550000I-525000J0D01*
G01*
X166975000Y-109550000D01*
G75*
G02*
X166450000Y-109025000I0J525000D01*
G01*
G37*
%TD*%
%TO.C,C13*%
G36*
G01*
X165875000Y-110302500D02*
X165875000Y-110697500D01*
G75*
G02*
X165702500Y-110870000I-172500J0D01*
G01*
X165357500Y-110870000D01*
G75*
G02*
X165185000Y-110697500I0J172500D01*
G01*
X165185000Y-110302500D01*
G75*
G02*
X165357500Y-110130000I172500J0D01*
G01*
X165702500Y-110130000D01*
G75*
G02*
X165875000Y-110302500I0J-172500D01*
G01*
G37*
G36*
G01*
X166845000Y-110302500D02*
X166845000Y-110697500D01*
G75*
G02*
X166672500Y-110870000I-172500J0D01*
G01*
X166327500Y-110870000D01*
G75*
G02*
X166155000Y-110697500I0J172500D01*
G01*
X166155000Y-110302500D01*
G75*
G02*
X166327500Y-110130000I172500J0D01*
G01*
X166672500Y-110130000D01*
G75*
G02*
X166845000Y-110302500I0J-172500D01*
G01*
G37*
%TD*%
%TO.C,C14*%
G36*
G01*
X171587500Y-109918750D02*
X171587500Y-110481250D01*
G75*
G02*
X171343750Y-110725000I-243750J0D01*
G01*
X170856250Y-110725000D01*
G75*
G02*
X170612500Y-110481250I0J243750D01*
G01*
X170612500Y-109918750D01*
G75*
G02*
X170856250Y-109675000I243750J0D01*
G01*
X171343750Y-109675000D01*
G75*
G02*
X171587500Y-109918750I0J-243750D01*
G01*
G37*
G36*
G01*
X173162500Y-109918750D02*
X173162500Y-110481250D01*
G75*
G02*
X172918750Y-110725000I-243750J0D01*
G01*
X172431250Y-110725000D01*
G75*
G02*
X172187500Y-110481250I0J243750D01*
G01*
X172187500Y-109918750D01*
G75*
G02*
X172431250Y-109675000I243750J0D01*
G01*
X172918750Y-109675000D01*
G75*
G02*
X173162500Y-109918750I0J-243750D01*
G01*
G37*
%TD*%
%TO.C,C15*%
G36*
G01*
X173162500Y-105918750D02*
X173162500Y-106481250D01*
G75*
G02*
X172918750Y-106725000I-243750J0D01*
G01*
X172431250Y-106725000D01*
G75*
G02*
X172187500Y-106481250I0J243750D01*
G01*
X172187500Y-105918750D01*
G75*
G02*
X172431250Y-105675000I243750J0D01*
G01*
X172918750Y-105675000D01*
G75*
G02*
X173162500Y-105918750I0J-243750D01*
G01*
G37*
G36*
G01*
X171587500Y-105918750D02*
X171587500Y-106481250D01*
G75*
G02*
X171343750Y-106725000I-243750J0D01*
G01*
X170856250Y-106725000D01*
G75*
G02*
X170612500Y-106481250I0J243750D01*
G01*
X170612500Y-105918750D01*
G75*
G02*
X170856250Y-105675000I243750J0D01*
G01*
X171343750Y-105675000D01*
G75*
G02*
X171587500Y-105918750I0J-243750D01*
G01*
G37*
%TD*%
%TO.C,D1*%
G36*
G01*
X158760000Y-104002500D02*
X158760000Y-104397500D01*
G75*
G02*
X158587500Y-104570000I-172500J0D01*
G01*
X158242500Y-104570000D01*
G75*
G02*
X158070000Y-104397500I0J172500D01*
G01*
X158070000Y-104002500D01*
G75*
G02*
X158242500Y-103830000I172500J0D01*
G01*
X158587500Y-103830000D01*
G75*
G02*
X158760000Y-104002500I0J-172500D01*
G01*
G37*
G36*
G01*
X159730000Y-104002500D02*
X159730000Y-104397500D01*
G75*
G02*
X159557500Y-104570000I-172500J0D01*
G01*
X159212500Y-104570000D01*
G75*
G02*
X159040000Y-104397500I0J172500D01*
G01*
X159040000Y-104002500D01*
G75*
G02*
X159212500Y-103830000I172500J0D01*
G01*
X159557500Y-103830000D01*
G75*
G02*
X159730000Y-104002500I0J-172500D01*
G01*
G37*
%TD*%
%TO.C,D2*%
G36*
G01*
X168915000Y-111502500D02*
X168915000Y-111897500D01*
G75*
G02*
X168742500Y-112070000I-172500J0D01*
G01*
X168397500Y-112070000D01*
G75*
G02*
X168225000Y-111897500I0J172500D01*
G01*
X168225000Y-111502500D01*
G75*
G02*
X168397500Y-111330000I172500J0D01*
G01*
X168742500Y-111330000D01*
G75*
G02*
X168915000Y-111502500I0J-172500D01*
G01*
G37*
G36*
G01*
X167945000Y-111502500D02*
X167945000Y-111897500D01*
G75*
G02*
X167772500Y-112070000I-172500J0D01*
G01*
X167427500Y-112070000D01*
G75*
G02*
X167255000Y-111897500I0J172500D01*
G01*
X167255000Y-111502500D01*
G75*
G02*
X167427500Y-111330000I172500J0D01*
G01*
X167772500Y-111330000D01*
G75*
G02*
X167945000Y-111502500I0J-172500D01*
G01*
G37*
%TD*%
D14*
%TO.C,J1*%
X156000000Y-105250000D03*
X156000000Y-99750000D03*
G36*
G01*
X157750000Y-104700000D02*
X155250000Y-104700000D01*
G75*
G02*
X155200000Y-104650000I0J50000D01*
G01*
X155200000Y-102850000D01*
G75*
G02*
X155250000Y-102800000I50000J0D01*
G01*
X157750000Y-102800000D01*
G75*
G02*
X157800000Y-102850000I0J-50000D01*
G01*
X157800000Y-104650000D01*
G75*
G02*
X157750000Y-104700000I-50000J0D01*
G01*
G37*
G36*
G01*
X157750000Y-102200000D02*
X155250000Y-102200000D01*
G75*
G02*
X155200000Y-102150000I0J50000D01*
G01*
X155200000Y-100350000D01*
G75*
G02*
X155250000Y-100300000I50000J0D01*
G01*
X157750000Y-100300000D01*
G75*
G02*
X157800000Y-100350000I0J-50000D01*
G01*
X157800000Y-102150000D01*
G75*
G02*
X157750000Y-102200000I-50000J0D01*
G01*
G37*
%TD*%
%TO.C,R1*%
G36*
G01*
X164845000Y-110302500D02*
X164845000Y-110697500D01*
G75*
G02*
X164672500Y-110870000I-172500J0D01*
G01*
X164327500Y-110870000D01*
G75*
G02*
X164155000Y-110697500I0J172500D01*
G01*
X164155000Y-110302500D01*
G75*
G02*
X164327500Y-110130000I172500J0D01*
G01*
X164672500Y-110130000D01*
G75*
G02*
X164845000Y-110302500I0J-172500D01*
G01*
G37*
G36*
G01*
X163875000Y-110302500D02*
X163875000Y-110697500D01*
G75*
G02*
X163702500Y-110870000I-172500J0D01*
G01*
X163357500Y-110870000D01*
G75*
G02*
X163185000Y-110697500I0J172500D01*
G01*
X163185000Y-110302500D01*
G75*
G02*
X163357500Y-110130000I172500J0D01*
G01*
X163702500Y-110130000D01*
G75*
G02*
X163875000Y-110302500I0J-172500D01*
G01*
G37*
%TD*%
%TO.C,R2*%
G36*
G01*
X167945000Y-112702500D02*
X167945000Y-113097500D01*
G75*
G02*
X167772500Y-113270000I-172500J0D01*
G01*
X167427500Y-113270000D01*
G75*
G02*
X167255000Y-113097500I0J172500D01*
G01*
X167255000Y-112702500D01*
G75*
G02*
X167427500Y-112530000I172500J0D01*
G01*
X167772500Y-112530000D01*
G75*
G02*
X167945000Y-112702500I0J-172500D01*
G01*
G37*
G36*
G01*
X168915000Y-112702500D02*
X168915000Y-113097500D01*
G75*
G02*
X168742500Y-113270000I-172500J0D01*
G01*
X168397500Y-113270000D01*
G75*
G02*
X168225000Y-113097500I0J172500D01*
G01*
X168225000Y-112702500D01*
G75*
G02*
X168397500Y-112530000I172500J0D01*
G01*
X168742500Y-112530000D01*
G75*
G02*
X168915000Y-112702500I0J-172500D01*
G01*
G37*
%TD*%
%TO.C,R3*%
G36*
G01*
X167255000Y-110697500D02*
X167255000Y-110302500D01*
G75*
G02*
X167427500Y-110130000I172500J0D01*
G01*
X167772500Y-110130000D01*
G75*
G02*
X167945000Y-110302500I0J-172500D01*
G01*
X167945000Y-110697500D01*
G75*
G02*
X167772500Y-110870000I-172500J0D01*
G01*
X167427500Y-110870000D01*
G75*
G02*
X167255000Y-110697500I0J172500D01*
G01*
G37*
G36*
G01*
X168225000Y-110697500D02*
X168225000Y-110302500D01*
G75*
G02*
X168397500Y-110130000I172500J0D01*
G01*
X168742500Y-110130000D01*
G75*
G02*
X168915000Y-110302500I0J-172500D01*
G01*
X168915000Y-110697500D01*
G75*
G02*
X168742500Y-110870000I-172500J0D01*
G01*
X168397500Y-110870000D01*
G75*
G02*
X168225000Y-110697500I0J172500D01*
G01*
G37*
%TD*%
%TO.C,SW1*%
G36*
G01*
X172050000Y-100400000D02*
X172950000Y-100400000D01*
G75*
G02*
X173150000Y-100600000I0J-200000D01*
G01*
X173150000Y-101000000D01*
G75*
G02*
X172950000Y-101200000I-200000J0D01*
G01*
X172050000Y-101200000D01*
G75*
G02*
X171850000Y-101000000I0J200000D01*
G01*
X171850000Y-100600000D01*
G75*
G02*
X172050000Y-100400000I200000J0D01*
G01*
G37*
G36*
G01*
X172100000Y-103800000D02*
X173000000Y-103800000D01*
G75*
G02*
X173200000Y-104000000I0J-200000D01*
G01*
X173200000Y-104400000D01*
G75*
G02*
X173000000Y-104600000I-200000J0D01*
G01*
X172100000Y-104600000D01*
G75*
G02*
X171900000Y-104400000I0J200000D01*
G01*
X171900000Y-104000000D01*
G75*
G02*
X172100000Y-103800000I200000J0D01*
G01*
G37*
G36*
G01*
X173800000Y-99800000D02*
X175100000Y-99800000D01*
G75*
G02*
X175150000Y-99850000I0J-50000D01*
G01*
X175150000Y-100450000D01*
G75*
G02*
X175100000Y-100500000I-50000J0D01*
G01*
X173800000Y-100500000D01*
G75*
G02*
X173750000Y-100450000I0J50000D01*
G01*
X173750000Y-99850000D01*
G75*
G02*
X173800000Y-99800000I50000J0D01*
G01*
G37*
D15*
X173800000Y-101650000D03*
X173800000Y-103350000D03*
G36*
G01*
X175150000Y-99850000D02*
X175150000Y-100950000D01*
G75*
G02*
X175100000Y-101000000I-50000J0D01*
G01*
X174500000Y-101000000D01*
G75*
G02*
X174450000Y-100950000I0J50000D01*
G01*
X174450000Y-99850000D01*
G75*
G02*
X174500000Y-99800000I50000J0D01*
G01*
X175100000Y-99800000D01*
G75*
G02*
X175150000Y-99850000I0J-50000D01*
G01*
G37*
G36*
G01*
X173800000Y-104500000D02*
X175100000Y-104500000D01*
G75*
G02*
X175150000Y-104550000I0J-50000D01*
G01*
X175150000Y-105150000D01*
G75*
G02*
X175100000Y-105200000I-50000J0D01*
G01*
X173800000Y-105200000D01*
G75*
G02*
X173750000Y-105150000I0J50000D01*
G01*
X173750000Y-104550000D01*
G75*
G02*
X173800000Y-104500000I50000J0D01*
G01*
G37*
G36*
G01*
X175150000Y-104050000D02*
X175150000Y-105150000D01*
G75*
G02*
X175100000Y-105200000I-50000J0D01*
G01*
X174500000Y-105200000D01*
G75*
G02*
X174450000Y-105150000I0J50000D01*
G01*
X174450000Y-104050000D01*
G75*
G02*
X174500000Y-104000000I50000J0D01*
G01*
X175100000Y-104000000D01*
G75*
G02*
X175150000Y-104050000I0J-50000D01*
G01*
G37*
G36*
G01*
X173800000Y-99200000D02*
X175100000Y-99200000D01*
G75*
G02*
X175150000Y-99250000I0J-50000D01*
G01*
X175150000Y-99850000D01*
G75*
G02*
X175100000Y-99900000I-50000J0D01*
G01*
X173800000Y-99900000D01*
G75*
G02*
X173750000Y-99850000I0J50000D01*
G01*
X173750000Y-99250000D01*
G75*
G02*
X173800000Y-99200000I50000J0D01*
G01*
G37*
G36*
G01*
X173800000Y-105100000D02*
X175100000Y-105100000D01*
G75*
G02*
X175150000Y-105150000I0J-50000D01*
G01*
X175150000Y-105750000D01*
G75*
G02*
X175100000Y-105800000I-50000J0D01*
G01*
X173800000Y-105800000D01*
G75*
G02*
X173750000Y-105750000I0J50000D01*
G01*
X173750000Y-105150000D01*
G75*
G02*
X173800000Y-105100000I50000J0D01*
G01*
G37*
%TD*%
%TO.C,U3*%
G36*
G01*
X163320000Y-114175000D02*
X163320000Y-113525000D01*
G75*
G02*
X163370000Y-113475000I50000J0D01*
G01*
X164430000Y-113475000D01*
G75*
G02*
X164480000Y-113525000I0J-50000D01*
G01*
X164480000Y-114175000D01*
G75*
G02*
X164430000Y-114225000I-50000J0D01*
G01*
X163370000Y-114225000D01*
G75*
G02*
X163320000Y-114175000I0J50000D01*
G01*
G37*
G36*
G01*
X163320000Y-113225000D02*
X163320000Y-112575000D01*
G75*
G02*
X163370000Y-112525000I50000J0D01*
G01*
X164430000Y-112525000D01*
G75*
G02*
X164480000Y-112575000I0J-50000D01*
G01*
X164480000Y-113225000D01*
G75*
G02*
X164430000Y-113275000I-50000J0D01*
G01*
X163370000Y-113275000D01*
G75*
G02*
X163320000Y-113225000I0J50000D01*
G01*
G37*
G36*
G01*
X163320000Y-112275000D02*
X163320000Y-111625000D01*
G75*
G02*
X163370000Y-111575000I50000J0D01*
G01*
X164430000Y-111575000D01*
G75*
G02*
X164480000Y-111625000I0J-50000D01*
G01*
X164480000Y-112275000D01*
G75*
G02*
X164430000Y-112325000I-50000J0D01*
G01*
X163370000Y-112325000D01*
G75*
G02*
X163320000Y-112275000I0J50000D01*
G01*
G37*
G36*
G01*
X165520000Y-112275000D02*
X165520000Y-111625000D01*
G75*
G02*
X165570000Y-111575000I50000J0D01*
G01*
X166630000Y-111575000D01*
G75*
G02*
X166680000Y-111625000I0J-50000D01*
G01*
X166680000Y-112275000D01*
G75*
G02*
X166630000Y-112325000I-50000J0D01*
G01*
X165570000Y-112325000D01*
G75*
G02*
X165520000Y-112275000I0J50000D01*
G01*
G37*
G36*
G01*
X165520000Y-114175000D02*
X165520000Y-113525000D01*
G75*
G02*
X165570000Y-113475000I50000J0D01*
G01*
X166630000Y-113475000D01*
G75*
G02*
X166680000Y-113525000I0J-50000D01*
G01*
X166680000Y-114175000D01*
G75*
G02*
X166630000Y-114225000I-50000J0D01*
G01*
X165570000Y-114225000D01*
G75*
G02*
X165520000Y-114175000I0J50000D01*
G01*
G37*
G36*
G01*
X165520000Y-113225000D02*
X165520000Y-112575000D01*
G75*
G02*
X165570000Y-112525000I50000J0D01*
G01*
X166630000Y-112525000D01*
G75*
G02*
X166680000Y-112575000I0J-50000D01*
G01*
X166680000Y-113225000D01*
G75*
G02*
X166630000Y-113275000I-50000J0D01*
G01*
X165570000Y-113275000D01*
G75*
G02*
X165520000Y-113225000I0J50000D01*
G01*
G37*
%TD*%
M02*
