%TF.GenerationSoftware,KiCad,Pcbnew,5.1.7-a382d34a8~87~ubuntu20.04.1*%
%TF.CreationDate,2020-10-26T14:53:32+05:00*%
%TF.ProjectId,OneRing,4f6e6552-696e-4672-9e6b-696361645f70,rev?*%
%TF.SameCoordinates,Original*%
%TF.FileFunction,Legend,Top*%
%TF.FilePolarity,Positive*%
%FSLAX46Y46*%
G04 Gerber Fmt 4.6, Leading zero omitted, Abs format (unit mm)*
G04 Created by KiCad (PCBNEW 5.1.7-a382d34a8~87~ubuntu20.04.1) date 2020-10-26 14:53:32*
%MOMM*%
%LPD*%
G01*
G04 APERTURE LIST*
%ADD10C,0.125000*%
%ADD11C,0.120000*%
%ADD12C,0.100000*%
%ADD13C,1.700000*%
%ADD14C,0.600000*%
%ADD15C,1.100000*%
%ADD16C,0.254000*%
G04 APERTURE END LIST*
D10*
X166528869Y-112126190D02*
X166695535Y-112626190D01*
X166862202Y-112126190D01*
X167028869Y-112626190D02*
X167028869Y-112126190D01*
X167147916Y-112126190D01*
X167219345Y-112150000D01*
X167266964Y-112197619D01*
X167290773Y-112245238D01*
X167314583Y-112340476D01*
X167314583Y-112411904D01*
X167290773Y-112507142D01*
X167266964Y-112554761D01*
X167219345Y-112602380D01*
X167147916Y-112626190D01*
X167028869Y-112626190D01*
X167814583Y-112578571D02*
X167790773Y-112602380D01*
X167719345Y-112626190D01*
X167671726Y-112626190D01*
X167600297Y-112602380D01*
X167552678Y-112554761D01*
X167528869Y-112507142D01*
X167505059Y-112411904D01*
X167505059Y-112340476D01*
X167528869Y-112245238D01*
X167552678Y-112197619D01*
X167600297Y-112150000D01*
X167671726Y-112126190D01*
X167719345Y-112126190D01*
X167790773Y-112150000D01*
X167814583Y-112173809D01*
X168562202Y-111250000D02*
X168514583Y-111226190D01*
X168443154Y-111226190D01*
X168371726Y-111250000D01*
X168324107Y-111297619D01*
X168300297Y-111345238D01*
X168276488Y-111440476D01*
X168276488Y-111511904D01*
X168300297Y-111607142D01*
X168324107Y-111654761D01*
X168371726Y-111702380D01*
X168443154Y-111726190D01*
X168490773Y-111726190D01*
X168562202Y-111702380D01*
X168586011Y-111678571D01*
X168586011Y-111511904D01*
X168490773Y-111511904D01*
X168800297Y-111726190D02*
X168800297Y-111226190D01*
X169086011Y-111726190D01*
X169086011Y-111226190D01*
X169324107Y-111726190D02*
X169324107Y-111226190D01*
X169443154Y-111226190D01*
X169514583Y-111250000D01*
X169562202Y-111297619D01*
X169586011Y-111345238D01*
X169609821Y-111440476D01*
X169609821Y-111511904D01*
X169586011Y-111607142D01*
X169562202Y-111654761D01*
X169514583Y-111702380D01*
X169443154Y-111726190D01*
X169324107Y-111726190D01*
X169876488Y-110202380D02*
X169947916Y-110226190D01*
X170066964Y-110226190D01*
X170114583Y-110202380D01*
X170138392Y-110178571D01*
X170162202Y-110130952D01*
X170162202Y-110083333D01*
X170138392Y-110035714D01*
X170114583Y-110011904D01*
X170066964Y-109988095D01*
X169971726Y-109964285D01*
X169924107Y-109940476D01*
X169900297Y-109916666D01*
X169876488Y-109869047D01*
X169876488Y-109821428D01*
X169900297Y-109773809D01*
X169924107Y-109750000D01*
X169971726Y-109726190D01*
X170090773Y-109726190D01*
X170162202Y-109750000D01*
X170328869Y-109726190D02*
X170447916Y-110226190D01*
X170543154Y-109869047D01*
X170638392Y-110226190D01*
X170757440Y-109726190D01*
X171043154Y-109726190D02*
X171138392Y-109726190D01*
X171186011Y-109750000D01*
X171233630Y-109797619D01*
X171257440Y-109892857D01*
X171257440Y-110059523D01*
X171233630Y-110154761D01*
X171186011Y-110202380D01*
X171138392Y-110226190D01*
X171043154Y-110226190D01*
X170995535Y-110202380D01*
X170947916Y-110154761D01*
X170924107Y-110059523D01*
X170924107Y-109892857D01*
X170947916Y-109797619D01*
X170995535Y-109750000D01*
X171043154Y-109726190D01*
X171486011Y-108726190D02*
X171319345Y-108488095D01*
X171200297Y-108726190D02*
X171200297Y-108226190D01*
X171390773Y-108226190D01*
X171438392Y-108250000D01*
X171462202Y-108273809D01*
X171486011Y-108321428D01*
X171486011Y-108392857D01*
X171462202Y-108440476D01*
X171438392Y-108464285D01*
X171390773Y-108488095D01*
X171200297Y-108488095D01*
X171676488Y-108702380D02*
X171747916Y-108726190D01*
X171866964Y-108726190D01*
X171914583Y-108702380D01*
X171938392Y-108678571D01*
X171962202Y-108630952D01*
X171962202Y-108583333D01*
X171938392Y-108535714D01*
X171914583Y-108511904D01*
X171866964Y-108488095D01*
X171771726Y-108464285D01*
X171724107Y-108440476D01*
X171700297Y-108416666D01*
X171676488Y-108369047D01*
X171676488Y-108321428D01*
X171700297Y-108273809D01*
X171724107Y-108250000D01*
X171771726Y-108226190D01*
X171890773Y-108226190D01*
X171962202Y-108250000D01*
X172105059Y-108226190D02*
X172390773Y-108226190D01*
X172247916Y-108726190D02*
X172247916Y-108226190D01*
X172086011Y-106778571D02*
X172062202Y-106802380D01*
X171990773Y-106826190D01*
X171943154Y-106826190D01*
X171871726Y-106802380D01*
X171824107Y-106754761D01*
X171800297Y-106707142D01*
X171776488Y-106611904D01*
X171776488Y-106540476D01*
X171800297Y-106445238D01*
X171824107Y-106397619D01*
X171871726Y-106350000D01*
X171943154Y-106326190D01*
X171990773Y-106326190D01*
X172062202Y-106350000D01*
X172086011Y-106373809D01*
X172538392Y-106826190D02*
X172300297Y-106826190D01*
X172300297Y-106326190D01*
X172705059Y-106826190D02*
X172705059Y-106326190D01*
X172990773Y-106826190D02*
X172776488Y-106540476D01*
X172990773Y-106326190D02*
X172705059Y-106611904D01*
X172300297Y-104926190D02*
X172300297Y-104426190D01*
X172419345Y-104426190D01*
X172490773Y-104450000D01*
X172538392Y-104497619D01*
X172562202Y-104545238D01*
X172586011Y-104640476D01*
X172586011Y-104711904D01*
X172562202Y-104807142D01*
X172538392Y-104854761D01*
X172490773Y-104902380D01*
X172419345Y-104926190D01*
X172300297Y-104926190D01*
X172800297Y-104926190D02*
X172800297Y-104426190D01*
X173133630Y-104426190D02*
X173228869Y-104426190D01*
X173276488Y-104450000D01*
X173324107Y-104497619D01*
X173347916Y-104592857D01*
X173347916Y-104759523D01*
X173324107Y-104854761D01*
X173276488Y-104902380D01*
X173228869Y-104926190D01*
X173133630Y-104926190D01*
X173086011Y-104902380D01*
X173038392Y-104854761D01*
X173014583Y-104759523D01*
X173014583Y-104592857D01*
X173038392Y-104497619D01*
X173086011Y-104450000D01*
X173133630Y-104426190D01*
D11*
%TO.C,C5*%
X159410000Y-107362779D02*
X159410000Y-107037221D01*
X158390000Y-107362779D02*
X158390000Y-107037221D01*
%TO.C,C10*%
X159990000Y-107362779D02*
X159990000Y-107037221D01*
X161010000Y-107362779D02*
X161010000Y-107037221D01*
%TO.C,C11*%
X173010000Y-102762779D02*
X173010000Y-102437221D01*
X171990000Y-102762779D02*
X171990000Y-102437221D01*
D12*
%TO.C,D3*%
X167060000Y-110500000D02*
G75*
G03*
X167060000Y-110500000I-50000J0D01*
G01*
D11*
%TO.C,TP1*%
X169100000Y-113300000D02*
G75*
G03*
X169100000Y-113300000I-700000J0D01*
G01*
%TO.C,TP2*%
X173600000Y-109300000D02*
G75*
G03*
X173600000Y-109300000I-700000J0D01*
G01*
%TO.C,TP3*%
X174300000Y-107400000D02*
G75*
G03*
X174300000Y-107400000I-700000J0D01*
G01*
%TO.C,TP4*%
X174700000Y-105400000D02*
G75*
G03*
X174700000Y-105400000I-700000J0D01*
G01*
%TO.C,TP5*%
X172400000Y-110900000D02*
G75*
G03*
X172400000Y-110900000I-700000J0D01*
G01*
%TO.C,TP6*%
X170900000Y-112300000D02*
G75*
G03*
X170900000Y-112300000I-700000J0D01*
G01*
%TO.C,U1*%
X161890000Y-108360000D02*
X161890000Y-108910000D01*
X168110000Y-102690000D02*
X167560000Y-102690000D01*
X168110000Y-103240000D02*
X168110000Y-102690000D01*
X168110000Y-108910000D02*
X167560000Y-108910000D01*
X168110000Y-108360000D02*
X168110000Y-108910000D01*
X161890000Y-102690000D02*
X162440000Y-102690000D01*
X161890000Y-103240000D02*
X161890000Y-102690000D01*
%TO.C,U2*%
X160000000Y-103000000D02*
X159500000Y-103500000D01*
X159450000Y-103150000D02*
G75*
G03*
X159450000Y-103150000I-50000J0D01*
G01*
X157000000Y-103500000D02*
X160000000Y-103500000D01*
X157000000Y-100500000D02*
X157000000Y-103500000D01*
X160000000Y-100500000D02*
X157000000Y-100500000D01*
X160000000Y-103500000D02*
X160000000Y-100500000D01*
%TO.C,Y1*%
X164700000Y-96500000D02*
X161400000Y-96500000D01*
X164700000Y-99300000D02*
X164700000Y-96500000D01*
%TO.C,C1*%
D10*
X157416666Y-105728571D02*
X157392857Y-105752380D01*
X157321428Y-105776190D01*
X157273809Y-105776190D01*
X157202380Y-105752380D01*
X157154761Y-105704761D01*
X157130952Y-105657142D01*
X157107142Y-105561904D01*
X157107142Y-105490476D01*
X157130952Y-105395238D01*
X157154761Y-105347619D01*
X157202380Y-105300000D01*
X157273809Y-105276190D01*
X157321428Y-105276190D01*
X157392857Y-105300000D01*
X157416666Y-105323809D01*
X157892857Y-105776190D02*
X157607142Y-105776190D01*
X157750000Y-105776190D02*
X157750000Y-105276190D01*
X157702380Y-105347619D01*
X157654761Y-105395238D01*
X157607142Y-105419047D01*
%TO.C,C2*%
X162216666Y-111078571D02*
X162192857Y-111102380D01*
X162121428Y-111126190D01*
X162073809Y-111126190D01*
X162002380Y-111102380D01*
X161954761Y-111054761D01*
X161930952Y-111007142D01*
X161907142Y-110911904D01*
X161907142Y-110840476D01*
X161930952Y-110745238D01*
X161954761Y-110697619D01*
X162002380Y-110650000D01*
X162073809Y-110626190D01*
X162121428Y-110626190D01*
X162192857Y-110650000D01*
X162216666Y-110673809D01*
X162407142Y-110673809D02*
X162430952Y-110650000D01*
X162478571Y-110626190D01*
X162597619Y-110626190D01*
X162645238Y-110650000D01*
X162669047Y-110673809D01*
X162692857Y-110721428D01*
X162692857Y-110769047D01*
X162669047Y-110840476D01*
X162383333Y-111126190D01*
X162692857Y-111126190D01*
%TO.C,C3*%
X166567343Y-101085194D02*
X166567343Y-101118866D01*
X166533671Y-101186209D01*
X166500000Y-101219881D01*
X166432656Y-101253553D01*
X166365312Y-101253553D01*
X166314805Y-101236717D01*
X166230625Y-101186209D01*
X166180118Y-101135702D01*
X166129610Y-101051522D01*
X166112774Y-101001015D01*
X166112774Y-100933671D01*
X166146446Y-100866328D01*
X166180118Y-100832656D01*
X166247461Y-100798984D01*
X166281133Y-100798984D01*
X166365312Y-100647461D02*
X166584179Y-100428595D01*
X166601015Y-100681133D01*
X166651522Y-100630625D01*
X166702030Y-100613790D01*
X166735702Y-100613790D01*
X166786209Y-100630625D01*
X166870389Y-100714805D01*
X166887225Y-100765312D01*
X166887225Y-100798984D01*
X166870389Y-100849492D01*
X166769374Y-100950507D01*
X166718866Y-100967343D01*
X166685194Y-100967343D01*
%TO.C,C4*%
X163740028Y-100185195D02*
X163740028Y-100218867D01*
X163706356Y-100286210D01*
X163672685Y-100319882D01*
X163605341Y-100353554D01*
X163537997Y-100353554D01*
X163487490Y-100336718D01*
X163403310Y-100286210D01*
X163352803Y-100235703D01*
X163302295Y-100151523D01*
X163285459Y-100101016D01*
X163285459Y-100033672D01*
X163319131Y-99966329D01*
X163352803Y-99932657D01*
X163420146Y-99898985D01*
X163453818Y-99898985D01*
X163841043Y-99680119D02*
X164076746Y-99915821D01*
X163622177Y-99629611D02*
X163790536Y-99966329D01*
X164009402Y-99747462D01*
%TO.C,C5*%
X158816666Y-105478571D02*
X158792857Y-105502380D01*
X158721428Y-105526190D01*
X158673809Y-105526190D01*
X158602380Y-105502380D01*
X158554761Y-105454761D01*
X158530952Y-105407142D01*
X158507142Y-105311904D01*
X158507142Y-105240476D01*
X158530952Y-105145238D01*
X158554761Y-105097619D01*
X158602380Y-105050000D01*
X158673809Y-105026190D01*
X158721428Y-105026190D01*
X158792857Y-105050000D01*
X158816666Y-105073809D01*
X159269047Y-105026190D02*
X159030952Y-105026190D01*
X159007142Y-105264285D01*
X159030952Y-105240476D01*
X159078571Y-105216666D01*
X159197619Y-105216666D01*
X159245238Y-105240476D01*
X159269047Y-105264285D01*
X159292857Y-105311904D01*
X159292857Y-105430952D01*
X159269047Y-105478571D01*
X159245238Y-105502380D01*
X159197619Y-105526190D01*
X159078571Y-105526190D01*
X159030952Y-105502380D01*
X159007142Y-105478571D01*
%TO.C,C6*%
X169116666Y-106278571D02*
X169092857Y-106302380D01*
X169021428Y-106326190D01*
X168973809Y-106326190D01*
X168902380Y-106302380D01*
X168854761Y-106254761D01*
X168830952Y-106207142D01*
X168807142Y-106111904D01*
X168807142Y-106040476D01*
X168830952Y-105945238D01*
X168854761Y-105897619D01*
X168902380Y-105850000D01*
X168973809Y-105826190D01*
X169021428Y-105826190D01*
X169092857Y-105850000D01*
X169116666Y-105873809D01*
X169545238Y-105826190D02*
X169450000Y-105826190D01*
X169402380Y-105850000D01*
X169378571Y-105873809D01*
X169330952Y-105945238D01*
X169307142Y-106040476D01*
X169307142Y-106230952D01*
X169330952Y-106278571D01*
X169354761Y-106302380D01*
X169402380Y-106326190D01*
X169497619Y-106326190D01*
X169545238Y-106302380D01*
X169569047Y-106278571D01*
X169592857Y-106230952D01*
X169592857Y-106111904D01*
X169569047Y-106064285D01*
X169545238Y-106040476D01*
X169497619Y-106016666D01*
X169402380Y-106016666D01*
X169354761Y-106040476D01*
X169330952Y-106064285D01*
X169307142Y-106111904D01*
%TO.C,C7*%
X165366666Y-96478571D02*
X165342857Y-96502380D01*
X165271428Y-96526190D01*
X165223809Y-96526190D01*
X165152380Y-96502380D01*
X165104761Y-96454761D01*
X165080952Y-96407142D01*
X165057142Y-96311904D01*
X165057142Y-96240476D01*
X165080952Y-96145238D01*
X165104761Y-96097619D01*
X165152380Y-96050000D01*
X165223809Y-96026190D01*
X165271428Y-96026190D01*
X165342857Y-96050000D01*
X165366666Y-96073809D01*
X165533333Y-96026190D02*
X165866666Y-96026190D01*
X165652380Y-96526190D01*
%TO.C,C8*%
X160616666Y-100578571D02*
X160592857Y-100602380D01*
X160521428Y-100626190D01*
X160473809Y-100626190D01*
X160402380Y-100602380D01*
X160354761Y-100554761D01*
X160330952Y-100507142D01*
X160307142Y-100411904D01*
X160307142Y-100340476D01*
X160330952Y-100245238D01*
X160354761Y-100197619D01*
X160402380Y-100150000D01*
X160473809Y-100126190D01*
X160521428Y-100126190D01*
X160592857Y-100150000D01*
X160616666Y-100173809D01*
X160902380Y-100340476D02*
X160854761Y-100316666D01*
X160830952Y-100292857D01*
X160807142Y-100245238D01*
X160807142Y-100221428D01*
X160830952Y-100173809D01*
X160854761Y-100150000D01*
X160902380Y-100126190D01*
X160997619Y-100126190D01*
X161045238Y-100150000D01*
X161069047Y-100173809D01*
X161092857Y-100221428D01*
X161092857Y-100245238D01*
X161069047Y-100292857D01*
X161045238Y-100316666D01*
X160997619Y-100340476D01*
X160902380Y-100340476D01*
X160854761Y-100364285D01*
X160830952Y-100388095D01*
X160807142Y-100435714D01*
X160807142Y-100530952D01*
X160830952Y-100578571D01*
X160854761Y-100602380D01*
X160902380Y-100626190D01*
X160997619Y-100626190D01*
X161045238Y-100602380D01*
X161069047Y-100578571D01*
X161092857Y-100530952D01*
X161092857Y-100435714D01*
X161069047Y-100388095D01*
X161045238Y-100364285D01*
X160997619Y-100340476D01*
%TO.C,C9*%
X160716666Y-102178571D02*
X160692857Y-102202380D01*
X160621428Y-102226190D01*
X160573809Y-102226190D01*
X160502380Y-102202380D01*
X160454761Y-102154761D01*
X160430952Y-102107142D01*
X160407142Y-102011904D01*
X160407142Y-101940476D01*
X160430952Y-101845238D01*
X160454761Y-101797619D01*
X160502380Y-101750000D01*
X160573809Y-101726190D01*
X160621428Y-101726190D01*
X160692857Y-101750000D01*
X160716666Y-101773809D01*
X160954761Y-102226190D02*
X161050000Y-102226190D01*
X161097619Y-102202380D01*
X161121428Y-102178571D01*
X161169047Y-102107142D01*
X161192857Y-102011904D01*
X161192857Y-101821428D01*
X161169047Y-101773809D01*
X161145238Y-101750000D01*
X161097619Y-101726190D01*
X161002380Y-101726190D01*
X160954761Y-101750000D01*
X160930952Y-101773809D01*
X160907142Y-101821428D01*
X160907142Y-101940476D01*
X160930952Y-101988095D01*
X160954761Y-102011904D01*
X161002380Y-102035714D01*
X161097619Y-102035714D01*
X161145238Y-102011904D01*
X161169047Y-101988095D01*
X161192857Y-101940476D01*
%TO.C,C10*%
X160178571Y-105478571D02*
X160154761Y-105502380D01*
X160083333Y-105526190D01*
X160035714Y-105526190D01*
X159964285Y-105502380D01*
X159916666Y-105454761D01*
X159892857Y-105407142D01*
X159869047Y-105311904D01*
X159869047Y-105240476D01*
X159892857Y-105145238D01*
X159916666Y-105097619D01*
X159964285Y-105050000D01*
X160035714Y-105026190D01*
X160083333Y-105026190D01*
X160154761Y-105050000D01*
X160178571Y-105073809D01*
X160654761Y-105526190D02*
X160369047Y-105526190D01*
X160511904Y-105526190D02*
X160511904Y-105026190D01*
X160464285Y-105097619D01*
X160416666Y-105145238D01*
X160369047Y-105169047D01*
X160964285Y-105026190D02*
X161011904Y-105026190D01*
X161059523Y-105050000D01*
X161083333Y-105073809D01*
X161107142Y-105121428D01*
X161130952Y-105216666D01*
X161130952Y-105335714D01*
X161107142Y-105430952D01*
X161083333Y-105478571D01*
X161059523Y-105502380D01*
X161011904Y-105526190D01*
X160964285Y-105526190D01*
X160916666Y-105502380D01*
X160892857Y-105478571D01*
X160869047Y-105430952D01*
X160845238Y-105335714D01*
X160845238Y-105216666D01*
X160869047Y-105121428D01*
X160892857Y-105073809D01*
X160916666Y-105050000D01*
X160964285Y-105026190D01*
%TO.C,C11*%
X171248571Y-102921428D02*
X171272380Y-102945238D01*
X171296190Y-103016666D01*
X171296190Y-103064285D01*
X171272380Y-103135714D01*
X171224761Y-103183333D01*
X171177142Y-103207142D01*
X171081904Y-103230952D01*
X171010476Y-103230952D01*
X170915238Y-103207142D01*
X170867619Y-103183333D01*
X170820000Y-103135714D01*
X170796190Y-103064285D01*
X170796190Y-103016666D01*
X170820000Y-102945238D01*
X170843809Y-102921428D01*
X171296190Y-102445238D02*
X171296190Y-102730952D01*
X171296190Y-102588095D02*
X170796190Y-102588095D01*
X170867619Y-102635714D01*
X170915238Y-102683333D01*
X170939047Y-102730952D01*
X171296190Y-101969047D02*
X171296190Y-102254761D01*
X171296190Y-102111904D02*
X170796190Y-102111904D01*
X170867619Y-102159523D01*
X170915238Y-102207142D01*
X170939047Y-102254761D01*
%TO.C,C12*%
X167998984Y-97153553D02*
X167998984Y-97187225D01*
X167965312Y-97254568D01*
X167931641Y-97288240D01*
X167864297Y-97321912D01*
X167796954Y-97321912D01*
X167746446Y-97305076D01*
X167662267Y-97254568D01*
X167611759Y-97204061D01*
X167561251Y-97119881D01*
X167544416Y-97069374D01*
X167544416Y-97002030D01*
X167578087Y-96934687D01*
X167611759Y-96901015D01*
X167679103Y-96867343D01*
X167712774Y-96867343D01*
X168369374Y-96850507D02*
X168167343Y-97052538D01*
X168268358Y-96951522D02*
X167914805Y-96597969D01*
X167931641Y-96682148D01*
X167931641Y-96749492D01*
X167914805Y-96800000D01*
X168184179Y-96395938D02*
X168184179Y-96362267D01*
X168201015Y-96311759D01*
X168285194Y-96227580D01*
X168335702Y-96210744D01*
X168369374Y-96210744D01*
X168419881Y-96227580D01*
X168453553Y-96261251D01*
X168487225Y-96328595D01*
X168487225Y-96732656D01*
X168706091Y-96513790D01*
%TO.C,D3*%
X167730952Y-109556190D02*
X167730952Y-109056190D01*
X167850000Y-109056190D01*
X167921428Y-109080000D01*
X167969047Y-109127619D01*
X167992857Y-109175238D01*
X168016666Y-109270476D01*
X168016666Y-109341904D01*
X167992857Y-109437142D01*
X167969047Y-109484761D01*
X167921428Y-109532380D01*
X167850000Y-109556190D01*
X167730952Y-109556190D01*
X168183333Y-109056190D02*
X168492857Y-109056190D01*
X168326190Y-109246666D01*
X168397619Y-109246666D01*
X168445238Y-109270476D01*
X168469047Y-109294285D01*
X168492857Y-109341904D01*
X168492857Y-109460952D01*
X168469047Y-109508571D01*
X168445238Y-109532380D01*
X168397619Y-109556190D01*
X168254761Y-109556190D01*
X168207142Y-109532380D01*
X168183333Y-109508571D01*
%TO.C,L2*%
X168181133Y-99201015D02*
X168012774Y-99032656D01*
X168366328Y-98679103D01*
X168602030Y-98982148D02*
X168635702Y-98982148D01*
X168686209Y-98998984D01*
X168770389Y-99083164D01*
X168787225Y-99133671D01*
X168787225Y-99167343D01*
X168770389Y-99217851D01*
X168736717Y-99251522D01*
X168669374Y-99285194D01*
X168265312Y-99285194D01*
X168484179Y-99504061D01*
%TO.C,R4*%
X170616666Y-106426190D02*
X170450000Y-106188095D01*
X170330952Y-106426190D02*
X170330952Y-105926190D01*
X170521428Y-105926190D01*
X170569047Y-105950000D01*
X170592857Y-105973809D01*
X170616666Y-106021428D01*
X170616666Y-106092857D01*
X170592857Y-106140476D01*
X170569047Y-106164285D01*
X170521428Y-106188095D01*
X170330952Y-106188095D01*
X171045238Y-106092857D02*
X171045238Y-106426190D01*
X170926190Y-105902380D02*
X170807142Y-106259523D01*
X171116666Y-106259523D01*
%TO.C,R5*%
X160516666Y-111226190D02*
X160350000Y-110988095D01*
X160230952Y-111226190D02*
X160230952Y-110726190D01*
X160421428Y-110726190D01*
X160469047Y-110750000D01*
X160492857Y-110773809D01*
X160516666Y-110821428D01*
X160516666Y-110892857D01*
X160492857Y-110940476D01*
X160469047Y-110964285D01*
X160421428Y-110988095D01*
X160230952Y-110988095D01*
X160969047Y-110726190D02*
X160730952Y-110726190D01*
X160707142Y-110964285D01*
X160730952Y-110940476D01*
X160778571Y-110916666D01*
X160897619Y-110916666D01*
X160945238Y-110940476D01*
X160969047Y-110964285D01*
X160992857Y-111011904D01*
X160992857Y-111130952D01*
X160969047Y-111178571D01*
X160945238Y-111202380D01*
X160897619Y-111226190D01*
X160778571Y-111226190D01*
X160730952Y-111202380D01*
X160707142Y-111178571D01*
%TO.C,R6*%
X159516666Y-109426190D02*
X159350000Y-109188095D01*
X159230952Y-109426190D02*
X159230952Y-108926190D01*
X159421428Y-108926190D01*
X159469047Y-108950000D01*
X159492857Y-108973809D01*
X159516666Y-109021428D01*
X159516666Y-109092857D01*
X159492857Y-109140476D01*
X159469047Y-109164285D01*
X159421428Y-109188095D01*
X159230952Y-109188095D01*
X159945238Y-108926190D02*
X159850000Y-108926190D01*
X159802380Y-108950000D01*
X159778571Y-108973809D01*
X159730952Y-109045238D01*
X159707142Y-109140476D01*
X159707142Y-109330952D01*
X159730952Y-109378571D01*
X159754761Y-109402380D01*
X159802380Y-109426190D01*
X159897619Y-109426190D01*
X159945238Y-109402380D01*
X159969047Y-109378571D01*
X159992857Y-109330952D01*
X159992857Y-109211904D01*
X159969047Y-109164285D01*
X159945238Y-109140476D01*
X159897619Y-109116666D01*
X159802380Y-109116666D01*
X159754761Y-109140476D01*
X159730952Y-109164285D01*
X159707142Y-109211904D01*
%TO.C,U1*%
X167719047Y-101626190D02*
X167719047Y-102030952D01*
X167742857Y-102078571D01*
X167766666Y-102102380D01*
X167814285Y-102126190D01*
X167909523Y-102126190D01*
X167957142Y-102102380D01*
X167980952Y-102078571D01*
X168004761Y-102030952D01*
X168004761Y-101626190D01*
X168504761Y-102126190D02*
X168219047Y-102126190D01*
X168361904Y-102126190D02*
X168361904Y-101626190D01*
X168314285Y-101697619D01*
X168266666Y-101745238D01*
X168219047Y-101769047D01*
%TO.C,U2*%
X155919047Y-102926190D02*
X155919047Y-103330952D01*
X155942857Y-103378571D01*
X155966666Y-103402380D01*
X156014285Y-103426190D01*
X156109523Y-103426190D01*
X156157142Y-103402380D01*
X156180952Y-103378571D01*
X156204761Y-103330952D01*
X156204761Y-102926190D01*
X156419047Y-102973809D02*
X156442857Y-102950000D01*
X156490476Y-102926190D01*
X156609523Y-102926190D01*
X156657142Y-102950000D01*
X156680952Y-102973809D01*
X156704761Y-103021428D01*
X156704761Y-103069047D01*
X156680952Y-103140476D01*
X156395238Y-103426190D01*
X156704761Y-103426190D01*
%TO.C,Y1*%
X162811904Y-95988095D02*
X162811904Y-96226190D01*
X162645238Y-95726190D02*
X162811904Y-95988095D01*
X162978571Y-95726190D01*
X163407142Y-96226190D02*
X163121428Y-96226190D01*
X163264285Y-96226190D02*
X163264285Y-95726190D01*
X163216666Y-95797619D01*
X163169047Y-95845238D01*
X163121428Y-95869047D01*
%TD*%
%LPC*%
D12*
%TO.C,AE1*%
G36*
X162334535Y-90361447D02*
G01*
X163288907Y-90136782D01*
X164252431Y-90023546D01*
X165239248Y-89997242D01*
X166220381Y-90065637D01*
X167176512Y-90233906D01*
X168161112Y-90508426D01*
X169062061Y-90857125D01*
X169913513Y-91291556D01*
X170747033Y-91813614D01*
X171531055Y-92421404D01*
X172241086Y-93100784D01*
X172884194Y-93839507D01*
X173438475Y-94633089D01*
X173940670Y-95502744D01*
X174321778Y-96384139D01*
X174633376Y-97315217D01*
X174867193Y-98381017D01*
X170858601Y-99455116D01*
X170728819Y-98661670D01*
X170561281Y-98075043D01*
X170340963Y-97523264D01*
X170105301Y-97068772D01*
X169769072Y-96548051D01*
X169409735Y-96095639D01*
X168997619Y-95678074D01*
X168542383Y-95292769D01*
X168085945Y-94980255D01*
X167574141Y-94692929D01*
X167061135Y-94478395D01*
X166517257Y-94303191D01*
X165935435Y-94179565D01*
X165369142Y-94113895D01*
X164777153Y-94106874D01*
X164210353Y-94155220D01*
X163598538Y-94267391D01*
X163079526Y-94416813D01*
X162549654Y-94641614D01*
X162030135Y-94905052D01*
X161562193Y-95206433D01*
X161093051Y-95580606D01*
X160675486Y-95992722D01*
X160306911Y-96433122D01*
X159994397Y-96889560D01*
X159702589Y-97423271D01*
X159478395Y-97938865D01*
X159305779Y-98492403D01*
X155178217Y-98117935D01*
X155503944Y-96860794D01*
X155847466Y-95940527D01*
X156296039Y-95064580D01*
X156811026Y-94243308D01*
X157421404Y-93468945D01*
X158088537Y-92751843D01*
X158839507Y-92115806D01*
X159630501Y-91551865D01*
X160512403Y-91056741D01*
X161391210Y-90665974D01*
X162334535Y-90361447D01*
G37*
%TD*%
D13*
%TO.C,J2*%
X157000000Y-109000000D03*
%TD*%
%TO.C,J3*%
X161000000Y-113000000D03*
%TD*%
%TO.C,C1*%
G36*
G01*
X157697500Y-107730000D02*
X157302500Y-107730000D01*
G75*
G02*
X157130000Y-107557500I0J172500D01*
G01*
X157130000Y-107212500D01*
G75*
G02*
X157302500Y-107040000I172500J0D01*
G01*
X157697500Y-107040000D01*
G75*
G02*
X157870000Y-107212500I0J-172500D01*
G01*
X157870000Y-107557500D01*
G75*
G02*
X157697500Y-107730000I-172500J0D01*
G01*
G37*
G36*
G01*
X157697500Y-106760000D02*
X157302500Y-106760000D01*
G75*
G02*
X157130000Y-106587500I0J172500D01*
G01*
X157130000Y-106242500D01*
G75*
G02*
X157302500Y-106070000I172500J0D01*
G01*
X157697500Y-106070000D01*
G75*
G02*
X157870000Y-106242500I0J-172500D01*
G01*
X157870000Y-106587500D01*
G75*
G02*
X157697500Y-106760000I-172500J0D01*
G01*
G37*
%TD*%
%TO.C,C2*%
G36*
G01*
X163145000Y-109802500D02*
X163145000Y-110197500D01*
G75*
G02*
X162972500Y-110370000I-172500J0D01*
G01*
X162627500Y-110370000D01*
G75*
G02*
X162455000Y-110197500I0J172500D01*
G01*
X162455000Y-109802500D01*
G75*
G02*
X162627500Y-109630000I172500J0D01*
G01*
X162972500Y-109630000D01*
G75*
G02*
X163145000Y-109802500I0J-172500D01*
G01*
G37*
G36*
G01*
X162175000Y-109802500D02*
X162175000Y-110197500D01*
G75*
G02*
X162002500Y-110370000I-172500J0D01*
G01*
X161657500Y-110370000D01*
G75*
G02*
X161485000Y-110197500I0J172500D01*
G01*
X161485000Y-109802500D01*
G75*
G02*
X161657500Y-109630000I172500J0D01*
G01*
X162002500Y-109630000D01*
G75*
G02*
X162175000Y-109802500I0J-172500D01*
G01*
G37*
%TD*%
%TO.C,C3*%
G36*
G01*
X166138649Y-100340659D02*
X165859341Y-100061351D01*
G75*
G02*
X165859341Y-99817399I121976J121976D01*
G01*
X166103293Y-99573447D01*
G75*
G02*
X166347245Y-99573447I121976J-121976D01*
G01*
X166626553Y-99852755D01*
G75*
G02*
X166626553Y-100096707I-121976J-121976D01*
G01*
X166382601Y-100340659D01*
G75*
G02*
X166138649Y-100340659I-121976J121976D01*
G01*
G37*
G36*
G01*
X165452755Y-101026553D02*
X165173447Y-100747245D01*
G75*
G02*
X165173447Y-100503293I121976J121976D01*
G01*
X165417399Y-100259341D01*
G75*
G02*
X165661351Y-100259341I121976J-121976D01*
G01*
X165940659Y-100538649D01*
G75*
G02*
X165940659Y-100782601I-121976J-121976D01*
G01*
X165696707Y-101026553D01*
G75*
G02*
X165452755Y-101026553I-121976J121976D01*
G01*
G37*
%TD*%
%TO.C,C4*%
G36*
G01*
X164052755Y-101076553D02*
X163773447Y-100797245D01*
G75*
G02*
X163773447Y-100553293I121976J121976D01*
G01*
X164017399Y-100309341D01*
G75*
G02*
X164261351Y-100309341I121976J-121976D01*
G01*
X164540659Y-100588649D01*
G75*
G02*
X164540659Y-100832601I-121976J-121976D01*
G01*
X164296707Y-101076553D01*
G75*
G02*
X164052755Y-101076553I-121976J121976D01*
G01*
G37*
G36*
G01*
X164738649Y-100390659D02*
X164459341Y-100111351D01*
G75*
G02*
X164459341Y-99867399I121976J121976D01*
G01*
X164703293Y-99623447D01*
G75*
G02*
X164947245Y-99623447I121976J-121976D01*
G01*
X165226553Y-99902755D01*
G75*
G02*
X165226553Y-100146707I-121976J-121976D01*
G01*
X164982601Y-100390659D01*
G75*
G02*
X164738649Y-100390659I-121976J121976D01*
G01*
G37*
%TD*%
%TO.C,C5*%
G36*
G01*
X159181250Y-108475000D02*
X158618750Y-108475000D01*
G75*
G02*
X158375000Y-108231250I0J243750D01*
G01*
X158375000Y-107743750D01*
G75*
G02*
X158618750Y-107500000I243750J0D01*
G01*
X159181250Y-107500000D01*
G75*
G02*
X159425000Y-107743750I0J-243750D01*
G01*
X159425000Y-108231250D01*
G75*
G02*
X159181250Y-108475000I-243750J0D01*
G01*
G37*
G36*
G01*
X159181250Y-106900000D02*
X158618750Y-106900000D01*
G75*
G02*
X158375000Y-106656250I0J243750D01*
G01*
X158375000Y-106168750D01*
G75*
G02*
X158618750Y-105925000I243750J0D01*
G01*
X159181250Y-105925000D01*
G75*
G02*
X159425000Y-106168750I0J-243750D01*
G01*
X159425000Y-106656250D01*
G75*
G02*
X159181250Y-106900000I-243750J0D01*
G01*
G37*
%TD*%
%TO.C,C6*%
G36*
G01*
X169397500Y-108345000D02*
X169002500Y-108345000D01*
G75*
G02*
X168830000Y-108172500I0J172500D01*
G01*
X168830000Y-107827500D01*
G75*
G02*
X169002500Y-107655000I172500J0D01*
G01*
X169397500Y-107655000D01*
G75*
G02*
X169570000Y-107827500I0J-172500D01*
G01*
X169570000Y-108172500D01*
G75*
G02*
X169397500Y-108345000I-172500J0D01*
G01*
G37*
G36*
G01*
X169397500Y-107375000D02*
X169002500Y-107375000D01*
G75*
G02*
X168830000Y-107202500I0J172500D01*
G01*
X168830000Y-106857500D01*
G75*
G02*
X169002500Y-106685000I172500J0D01*
G01*
X169397500Y-106685000D01*
G75*
G02*
X169570000Y-106857500I0J-172500D01*
G01*
X169570000Y-107202500D01*
G75*
G02*
X169397500Y-107375000I-172500J0D01*
G01*
G37*
%TD*%
%TO.C,C7*%
G36*
G01*
X165647500Y-97545000D02*
X165252500Y-97545000D01*
G75*
G02*
X165080000Y-97372500I0J172500D01*
G01*
X165080000Y-97027500D01*
G75*
G02*
X165252500Y-96855000I172500J0D01*
G01*
X165647500Y-96855000D01*
G75*
G02*
X165820000Y-97027500I0J-172500D01*
G01*
X165820000Y-97372500D01*
G75*
G02*
X165647500Y-97545000I-172500J0D01*
G01*
G37*
G36*
G01*
X165647500Y-98515000D02*
X165252500Y-98515000D01*
G75*
G02*
X165080000Y-98342500I0J172500D01*
G01*
X165080000Y-97997500D01*
G75*
G02*
X165252500Y-97825000I172500J0D01*
G01*
X165647500Y-97825000D01*
G75*
G02*
X165820000Y-97997500I0J-172500D01*
G01*
X165820000Y-98342500D01*
G75*
G02*
X165647500Y-98515000I-172500J0D01*
G01*
G37*
%TD*%
%TO.C,C8*%
G36*
G01*
X160897500Y-99915000D02*
X160502500Y-99915000D01*
G75*
G02*
X160330000Y-99742500I0J172500D01*
G01*
X160330000Y-99397500D01*
G75*
G02*
X160502500Y-99225000I172500J0D01*
G01*
X160897500Y-99225000D01*
G75*
G02*
X161070000Y-99397500I0J-172500D01*
G01*
X161070000Y-99742500D01*
G75*
G02*
X160897500Y-99915000I-172500J0D01*
G01*
G37*
G36*
G01*
X160897500Y-98945000D02*
X160502500Y-98945000D01*
G75*
G02*
X160330000Y-98772500I0J172500D01*
G01*
X160330000Y-98427500D01*
G75*
G02*
X160502500Y-98255000I172500J0D01*
G01*
X160897500Y-98255000D01*
G75*
G02*
X161070000Y-98427500I0J-172500D01*
G01*
X161070000Y-98772500D01*
G75*
G02*
X160897500Y-98945000I-172500J0D01*
G01*
G37*
%TD*%
%TO.C,C9*%
G36*
G01*
X160602500Y-103475000D02*
X160997500Y-103475000D01*
G75*
G02*
X161170000Y-103647500I0J-172500D01*
G01*
X161170000Y-103992500D01*
G75*
G02*
X160997500Y-104165000I-172500J0D01*
G01*
X160602500Y-104165000D01*
G75*
G02*
X160430000Y-103992500I0J172500D01*
G01*
X160430000Y-103647500D01*
G75*
G02*
X160602500Y-103475000I172500J0D01*
G01*
G37*
G36*
G01*
X160602500Y-102505000D02*
X160997500Y-102505000D01*
G75*
G02*
X161170000Y-102677500I0J-172500D01*
G01*
X161170000Y-103022500D01*
G75*
G02*
X160997500Y-103195000I-172500J0D01*
G01*
X160602500Y-103195000D01*
G75*
G02*
X160430000Y-103022500I0J172500D01*
G01*
X160430000Y-102677500D01*
G75*
G02*
X160602500Y-102505000I172500J0D01*
G01*
G37*
%TD*%
%TO.C,C10*%
G36*
G01*
X160781250Y-106900000D02*
X160218750Y-106900000D01*
G75*
G02*
X159975000Y-106656250I0J243750D01*
G01*
X159975000Y-106168750D01*
G75*
G02*
X160218750Y-105925000I243750J0D01*
G01*
X160781250Y-105925000D01*
G75*
G02*
X161025000Y-106168750I0J-243750D01*
G01*
X161025000Y-106656250D01*
G75*
G02*
X160781250Y-106900000I-243750J0D01*
G01*
G37*
G36*
G01*
X160781250Y-108475000D02*
X160218750Y-108475000D01*
G75*
G02*
X159975000Y-108231250I0J243750D01*
G01*
X159975000Y-107743750D01*
G75*
G02*
X160218750Y-107500000I243750J0D01*
G01*
X160781250Y-107500000D01*
G75*
G02*
X161025000Y-107743750I0J-243750D01*
G01*
X161025000Y-108231250D01*
G75*
G02*
X160781250Y-108475000I-243750J0D01*
G01*
G37*
%TD*%
%TO.C,C11*%
G36*
G01*
X172781250Y-103875000D02*
X172218750Y-103875000D01*
G75*
G02*
X171975000Y-103631250I0J243750D01*
G01*
X171975000Y-103143750D01*
G75*
G02*
X172218750Y-102900000I243750J0D01*
G01*
X172781250Y-102900000D01*
G75*
G02*
X173025000Y-103143750I0J-243750D01*
G01*
X173025000Y-103631250D01*
G75*
G02*
X172781250Y-103875000I-243750J0D01*
G01*
G37*
G36*
G01*
X172781250Y-102300000D02*
X172218750Y-102300000D01*
G75*
G02*
X171975000Y-102056250I0J243750D01*
G01*
X171975000Y-101568750D01*
G75*
G02*
X172218750Y-101325000I243750J0D01*
G01*
X172781250Y-101325000D01*
G75*
G02*
X173025000Y-101568750I0J-243750D01*
G01*
X173025000Y-102056250D01*
G75*
G02*
X172781250Y-102300000I-243750J0D01*
G01*
G37*
%TD*%
%TO.C,C12*%
G36*
G01*
X168461351Y-97359341D02*
X168740659Y-97638649D01*
G75*
G02*
X168740659Y-97882601I-121976J-121976D01*
G01*
X168496707Y-98126553D01*
G75*
G02*
X168252755Y-98126553I-121976J121976D01*
G01*
X167973447Y-97847245D01*
G75*
G02*
X167973447Y-97603293I121976J121976D01*
G01*
X168217399Y-97359341D01*
G75*
G02*
X168461351Y-97359341I121976J-121976D01*
G01*
G37*
G36*
G01*
X169147245Y-96673447D02*
X169426553Y-96952755D01*
G75*
G02*
X169426553Y-97196707I-121976J-121976D01*
G01*
X169182601Y-97440659D01*
G75*
G02*
X168938649Y-97440659I-121976J121976D01*
G01*
X168659341Y-97161351D01*
G75*
G02*
X168659341Y-96917399I121976J121976D01*
G01*
X168903293Y-96673447D01*
G75*
G02*
X169147245Y-96673447I121976J-121976D01*
G01*
G37*
%TD*%
%TO.C,D3*%
G36*
G01*
X167270000Y-110697500D02*
X167270000Y-110302500D01*
G75*
G02*
X167442500Y-110130000I172500J0D01*
G01*
X167787500Y-110130000D01*
G75*
G02*
X167960000Y-110302500I0J-172500D01*
G01*
X167960000Y-110697500D01*
G75*
G02*
X167787500Y-110870000I-172500J0D01*
G01*
X167442500Y-110870000D01*
G75*
G02*
X167270000Y-110697500I0J172500D01*
G01*
G37*
G36*
G01*
X168240000Y-110697500D02*
X168240000Y-110302500D01*
G75*
G02*
X168412500Y-110130000I172500J0D01*
G01*
X168757500Y-110130000D01*
G75*
G02*
X168930000Y-110302500I0J-172500D01*
G01*
X168930000Y-110697500D01*
G75*
G02*
X168757500Y-110870000I-172500J0D01*
G01*
X168412500Y-110870000D01*
G75*
G02*
X168240000Y-110697500I0J172500D01*
G01*
G37*
%TD*%
D14*
%TO.C,J1*%
X156000000Y-105250000D03*
X156000000Y-99750000D03*
%TD*%
%TO.C,L2*%
G36*
G01*
X169847245Y-97373447D02*
X170126553Y-97652755D01*
G75*
G02*
X170126553Y-97896707I-121976J-121976D01*
G01*
X169882601Y-98140659D01*
G75*
G02*
X169638649Y-98140659I-121976J121976D01*
G01*
X169359341Y-97861351D01*
G75*
G02*
X169359341Y-97617399I121976J121976D01*
G01*
X169603293Y-97373447D01*
G75*
G02*
X169847245Y-97373447I121976J-121976D01*
G01*
G37*
G36*
G01*
X169161351Y-98059341D02*
X169440659Y-98338649D01*
G75*
G02*
X169440659Y-98582601I-121976J-121976D01*
G01*
X169196707Y-98826553D01*
G75*
G02*
X168952755Y-98826553I-121976J121976D01*
G01*
X168673447Y-98547245D01*
G75*
G02*
X168673447Y-98303293I121976J121976D01*
G01*
X168917399Y-98059341D01*
G75*
G02*
X169161351Y-98059341I121976J-121976D01*
G01*
G37*
%TD*%
%TO.C,R4*%
G36*
G01*
X170897500Y-107360000D02*
X170502500Y-107360000D01*
G75*
G02*
X170330000Y-107187500I0J172500D01*
G01*
X170330000Y-106842500D01*
G75*
G02*
X170502500Y-106670000I172500J0D01*
G01*
X170897500Y-106670000D01*
G75*
G02*
X171070000Y-106842500I0J-172500D01*
G01*
X171070000Y-107187500D01*
G75*
G02*
X170897500Y-107360000I-172500J0D01*
G01*
G37*
G36*
G01*
X170897500Y-108330000D02*
X170502500Y-108330000D01*
G75*
G02*
X170330000Y-108157500I0J172500D01*
G01*
X170330000Y-107812500D01*
G75*
G02*
X170502500Y-107640000I172500J0D01*
G01*
X170897500Y-107640000D01*
G75*
G02*
X171070000Y-107812500I0J-172500D01*
G01*
X171070000Y-108157500D01*
G75*
G02*
X170897500Y-108330000I-172500J0D01*
G01*
G37*
%TD*%
%TO.C,R5*%
G36*
G01*
X159255000Y-111197500D02*
X159255000Y-110802500D01*
G75*
G02*
X159427500Y-110630000I172500J0D01*
G01*
X159772500Y-110630000D01*
G75*
G02*
X159945000Y-110802500I0J-172500D01*
G01*
X159945000Y-111197500D01*
G75*
G02*
X159772500Y-111370000I-172500J0D01*
G01*
X159427500Y-111370000D01*
G75*
G02*
X159255000Y-111197500I0J172500D01*
G01*
G37*
G36*
G01*
X158285000Y-111197500D02*
X158285000Y-110802500D01*
G75*
G02*
X158457500Y-110630000I172500J0D01*
G01*
X158802500Y-110630000D01*
G75*
G02*
X158975000Y-110802500I0J-172500D01*
G01*
X158975000Y-111197500D01*
G75*
G02*
X158802500Y-111370000I-172500J0D01*
G01*
X158457500Y-111370000D01*
G75*
G02*
X158285000Y-111197500I0J172500D01*
G01*
G37*
%TD*%
%TO.C,R6*%
G36*
G01*
X159945000Y-109802500D02*
X159945000Y-110197500D01*
G75*
G02*
X159772500Y-110370000I-172500J0D01*
G01*
X159427500Y-110370000D01*
G75*
G02*
X159255000Y-110197500I0J172500D01*
G01*
X159255000Y-109802500D01*
G75*
G02*
X159427500Y-109630000I172500J0D01*
G01*
X159772500Y-109630000D01*
G75*
G02*
X159945000Y-109802500I0J-172500D01*
G01*
G37*
G36*
G01*
X158975000Y-109802500D02*
X158975000Y-110197500D01*
G75*
G02*
X158802500Y-110370000I-172500J0D01*
G01*
X158457500Y-110370000D01*
G75*
G02*
X158285000Y-110197500I0J172500D01*
G01*
X158285000Y-109802500D01*
G75*
G02*
X158457500Y-109630000I172500J0D01*
G01*
X158802500Y-109630000D01*
G75*
G02*
X158975000Y-109802500I0J-172500D01*
G01*
G37*
%TD*%
D15*
%TO.C,SW1*%
X173800000Y-101650000D03*
X173800000Y-103350000D03*
%TD*%
%TO.C,TP1*%
X168400000Y-113300000D03*
%TD*%
%TO.C,TP2*%
X172900000Y-109300000D03*
%TD*%
%TO.C,TP3*%
X173600000Y-107400000D03*
%TD*%
%TO.C,TP4*%
X174000000Y-105400000D03*
%TD*%
%TO.C,TP5*%
X171700000Y-110900000D03*
%TD*%
%TO.C,TP6*%
X170200000Y-112300000D03*
%TD*%
%TO.C,U1*%
G36*
G01*
X162875000Y-109200000D02*
X162725000Y-109200000D01*
G75*
G02*
X162650000Y-109125000I0J75000D01*
G01*
X162650000Y-108375000D01*
G75*
G02*
X162725000Y-108300000I75000J0D01*
G01*
X162875000Y-108300000D01*
G75*
G02*
X162950000Y-108375000I0J-75000D01*
G01*
X162950000Y-109125000D01*
G75*
G02*
X162875000Y-109200000I-75000J0D01*
G01*
G37*
G36*
G01*
X163275000Y-109200000D02*
X163125000Y-109200000D01*
G75*
G02*
X163050000Y-109125000I0J75000D01*
G01*
X163050000Y-108375000D01*
G75*
G02*
X163125000Y-108300000I75000J0D01*
G01*
X163275000Y-108300000D01*
G75*
G02*
X163350000Y-108375000I0J-75000D01*
G01*
X163350000Y-109125000D01*
G75*
G02*
X163275000Y-109200000I-75000J0D01*
G01*
G37*
G36*
G01*
X163675000Y-109200000D02*
X163525000Y-109200000D01*
G75*
G02*
X163450000Y-109125000I0J75000D01*
G01*
X163450000Y-108375000D01*
G75*
G02*
X163525000Y-108300000I75000J0D01*
G01*
X163675000Y-108300000D01*
G75*
G02*
X163750000Y-108375000I0J-75000D01*
G01*
X163750000Y-109125000D01*
G75*
G02*
X163675000Y-109200000I-75000J0D01*
G01*
G37*
G36*
G01*
X164075000Y-109200000D02*
X163925000Y-109200000D01*
G75*
G02*
X163850000Y-109125000I0J75000D01*
G01*
X163850000Y-108375000D01*
G75*
G02*
X163925000Y-108300000I75000J0D01*
G01*
X164075000Y-108300000D01*
G75*
G02*
X164150000Y-108375000I0J-75000D01*
G01*
X164150000Y-109125000D01*
G75*
G02*
X164075000Y-109200000I-75000J0D01*
G01*
G37*
G36*
G01*
X164475000Y-109200000D02*
X164325000Y-109200000D01*
G75*
G02*
X164250000Y-109125000I0J75000D01*
G01*
X164250000Y-108375000D01*
G75*
G02*
X164325000Y-108300000I75000J0D01*
G01*
X164475000Y-108300000D01*
G75*
G02*
X164550000Y-108375000I0J-75000D01*
G01*
X164550000Y-109125000D01*
G75*
G02*
X164475000Y-109200000I-75000J0D01*
G01*
G37*
G36*
G01*
X164875000Y-109200000D02*
X164725000Y-109200000D01*
G75*
G02*
X164650000Y-109125000I0J75000D01*
G01*
X164650000Y-108375000D01*
G75*
G02*
X164725000Y-108300000I75000J0D01*
G01*
X164875000Y-108300000D01*
G75*
G02*
X164950000Y-108375000I0J-75000D01*
G01*
X164950000Y-109125000D01*
G75*
G02*
X164875000Y-109200000I-75000J0D01*
G01*
G37*
G36*
G01*
X165275000Y-109200000D02*
X165125000Y-109200000D01*
G75*
G02*
X165050000Y-109125000I0J75000D01*
G01*
X165050000Y-108375000D01*
G75*
G02*
X165125000Y-108300000I75000J0D01*
G01*
X165275000Y-108300000D01*
G75*
G02*
X165350000Y-108375000I0J-75000D01*
G01*
X165350000Y-109125000D01*
G75*
G02*
X165275000Y-109200000I-75000J0D01*
G01*
G37*
G36*
G01*
X165675000Y-109200000D02*
X165525000Y-109200000D01*
G75*
G02*
X165450000Y-109125000I0J75000D01*
G01*
X165450000Y-108375000D01*
G75*
G02*
X165525000Y-108300000I75000J0D01*
G01*
X165675000Y-108300000D01*
G75*
G02*
X165750000Y-108375000I0J-75000D01*
G01*
X165750000Y-109125000D01*
G75*
G02*
X165675000Y-109200000I-75000J0D01*
G01*
G37*
G36*
G01*
X166075000Y-109200000D02*
X165925000Y-109200000D01*
G75*
G02*
X165850000Y-109125000I0J75000D01*
G01*
X165850000Y-108375000D01*
G75*
G02*
X165925000Y-108300000I75000J0D01*
G01*
X166075000Y-108300000D01*
G75*
G02*
X166150000Y-108375000I0J-75000D01*
G01*
X166150000Y-109125000D01*
G75*
G02*
X166075000Y-109200000I-75000J0D01*
G01*
G37*
G36*
G01*
X166475000Y-109200000D02*
X166325000Y-109200000D01*
G75*
G02*
X166250000Y-109125000I0J75000D01*
G01*
X166250000Y-108375000D01*
G75*
G02*
X166325000Y-108300000I75000J0D01*
G01*
X166475000Y-108300000D01*
G75*
G02*
X166550000Y-108375000I0J-75000D01*
G01*
X166550000Y-109125000D01*
G75*
G02*
X166475000Y-109200000I-75000J0D01*
G01*
G37*
G36*
G01*
X166875000Y-109200000D02*
X166725000Y-109200000D01*
G75*
G02*
X166650000Y-109125000I0J75000D01*
G01*
X166650000Y-108375000D01*
G75*
G02*
X166725000Y-108300000I75000J0D01*
G01*
X166875000Y-108300000D01*
G75*
G02*
X166950000Y-108375000I0J-75000D01*
G01*
X166950000Y-109125000D01*
G75*
G02*
X166875000Y-109200000I-75000J0D01*
G01*
G37*
G36*
G01*
X167275000Y-109200000D02*
X167125000Y-109200000D01*
G75*
G02*
X167050000Y-109125000I0J75000D01*
G01*
X167050000Y-108375000D01*
G75*
G02*
X167125000Y-108300000I75000J0D01*
G01*
X167275000Y-108300000D01*
G75*
G02*
X167350000Y-108375000I0J-75000D01*
G01*
X167350000Y-109125000D01*
G75*
G02*
X167275000Y-109200000I-75000J0D01*
G01*
G37*
G36*
G01*
X168325000Y-108150000D02*
X167575000Y-108150000D01*
G75*
G02*
X167500000Y-108075000I0J75000D01*
G01*
X167500000Y-107925000D01*
G75*
G02*
X167575000Y-107850000I75000J0D01*
G01*
X168325000Y-107850000D01*
G75*
G02*
X168400000Y-107925000I0J-75000D01*
G01*
X168400000Y-108075000D01*
G75*
G02*
X168325000Y-108150000I-75000J0D01*
G01*
G37*
G36*
G01*
X168325000Y-107750000D02*
X167575000Y-107750000D01*
G75*
G02*
X167500000Y-107675000I0J75000D01*
G01*
X167500000Y-107525000D01*
G75*
G02*
X167575000Y-107450000I75000J0D01*
G01*
X168325000Y-107450000D01*
G75*
G02*
X168400000Y-107525000I0J-75000D01*
G01*
X168400000Y-107675000D01*
G75*
G02*
X168325000Y-107750000I-75000J0D01*
G01*
G37*
G36*
G01*
X168325000Y-107350000D02*
X167575000Y-107350000D01*
G75*
G02*
X167500000Y-107275000I0J75000D01*
G01*
X167500000Y-107125000D01*
G75*
G02*
X167575000Y-107050000I75000J0D01*
G01*
X168325000Y-107050000D01*
G75*
G02*
X168400000Y-107125000I0J-75000D01*
G01*
X168400000Y-107275000D01*
G75*
G02*
X168325000Y-107350000I-75000J0D01*
G01*
G37*
G36*
G01*
X168325000Y-106950000D02*
X167575000Y-106950000D01*
G75*
G02*
X167500000Y-106875000I0J75000D01*
G01*
X167500000Y-106725000D01*
G75*
G02*
X167575000Y-106650000I75000J0D01*
G01*
X168325000Y-106650000D01*
G75*
G02*
X168400000Y-106725000I0J-75000D01*
G01*
X168400000Y-106875000D01*
G75*
G02*
X168325000Y-106950000I-75000J0D01*
G01*
G37*
G36*
G01*
X168325000Y-106550000D02*
X167575000Y-106550000D01*
G75*
G02*
X167500000Y-106475000I0J75000D01*
G01*
X167500000Y-106325000D01*
G75*
G02*
X167575000Y-106250000I75000J0D01*
G01*
X168325000Y-106250000D01*
G75*
G02*
X168400000Y-106325000I0J-75000D01*
G01*
X168400000Y-106475000D01*
G75*
G02*
X168325000Y-106550000I-75000J0D01*
G01*
G37*
G36*
G01*
X168325000Y-106150000D02*
X167575000Y-106150000D01*
G75*
G02*
X167500000Y-106075000I0J75000D01*
G01*
X167500000Y-105925000D01*
G75*
G02*
X167575000Y-105850000I75000J0D01*
G01*
X168325000Y-105850000D01*
G75*
G02*
X168400000Y-105925000I0J-75000D01*
G01*
X168400000Y-106075000D01*
G75*
G02*
X168325000Y-106150000I-75000J0D01*
G01*
G37*
G36*
G01*
X168325000Y-105750000D02*
X167575000Y-105750000D01*
G75*
G02*
X167500000Y-105675000I0J75000D01*
G01*
X167500000Y-105525000D01*
G75*
G02*
X167575000Y-105450000I75000J0D01*
G01*
X168325000Y-105450000D01*
G75*
G02*
X168400000Y-105525000I0J-75000D01*
G01*
X168400000Y-105675000D01*
G75*
G02*
X168325000Y-105750000I-75000J0D01*
G01*
G37*
G36*
G01*
X168325000Y-105350000D02*
X167575000Y-105350000D01*
G75*
G02*
X167500000Y-105275000I0J75000D01*
G01*
X167500000Y-105125000D01*
G75*
G02*
X167575000Y-105050000I75000J0D01*
G01*
X168325000Y-105050000D01*
G75*
G02*
X168400000Y-105125000I0J-75000D01*
G01*
X168400000Y-105275000D01*
G75*
G02*
X168325000Y-105350000I-75000J0D01*
G01*
G37*
G36*
G01*
X168325000Y-104950000D02*
X167575000Y-104950000D01*
G75*
G02*
X167500000Y-104875000I0J75000D01*
G01*
X167500000Y-104725000D01*
G75*
G02*
X167575000Y-104650000I75000J0D01*
G01*
X168325000Y-104650000D01*
G75*
G02*
X168400000Y-104725000I0J-75000D01*
G01*
X168400000Y-104875000D01*
G75*
G02*
X168325000Y-104950000I-75000J0D01*
G01*
G37*
G36*
G01*
X168325000Y-104550000D02*
X167575000Y-104550000D01*
G75*
G02*
X167500000Y-104475000I0J75000D01*
G01*
X167500000Y-104325000D01*
G75*
G02*
X167575000Y-104250000I75000J0D01*
G01*
X168325000Y-104250000D01*
G75*
G02*
X168400000Y-104325000I0J-75000D01*
G01*
X168400000Y-104475000D01*
G75*
G02*
X168325000Y-104550000I-75000J0D01*
G01*
G37*
G36*
G01*
X168325000Y-104150000D02*
X167575000Y-104150000D01*
G75*
G02*
X167500000Y-104075000I0J75000D01*
G01*
X167500000Y-103925000D01*
G75*
G02*
X167575000Y-103850000I75000J0D01*
G01*
X168325000Y-103850000D01*
G75*
G02*
X168400000Y-103925000I0J-75000D01*
G01*
X168400000Y-104075000D01*
G75*
G02*
X168325000Y-104150000I-75000J0D01*
G01*
G37*
G36*
G01*
X168325000Y-103750000D02*
X167575000Y-103750000D01*
G75*
G02*
X167500000Y-103675000I0J75000D01*
G01*
X167500000Y-103525000D01*
G75*
G02*
X167575000Y-103450000I75000J0D01*
G01*
X168325000Y-103450000D01*
G75*
G02*
X168400000Y-103525000I0J-75000D01*
G01*
X168400000Y-103675000D01*
G75*
G02*
X168325000Y-103750000I-75000J0D01*
G01*
G37*
G36*
G01*
X167275000Y-103300000D02*
X167125000Y-103300000D01*
G75*
G02*
X167050000Y-103225000I0J75000D01*
G01*
X167050000Y-102475000D01*
G75*
G02*
X167125000Y-102400000I75000J0D01*
G01*
X167275000Y-102400000D01*
G75*
G02*
X167350000Y-102475000I0J-75000D01*
G01*
X167350000Y-103225000D01*
G75*
G02*
X167275000Y-103300000I-75000J0D01*
G01*
G37*
G36*
G01*
X166875000Y-103300000D02*
X166725000Y-103300000D01*
G75*
G02*
X166650000Y-103225000I0J75000D01*
G01*
X166650000Y-102475000D01*
G75*
G02*
X166725000Y-102400000I75000J0D01*
G01*
X166875000Y-102400000D01*
G75*
G02*
X166950000Y-102475000I0J-75000D01*
G01*
X166950000Y-103225000D01*
G75*
G02*
X166875000Y-103300000I-75000J0D01*
G01*
G37*
G36*
G01*
X166475000Y-103300000D02*
X166325000Y-103300000D01*
G75*
G02*
X166250000Y-103225000I0J75000D01*
G01*
X166250000Y-102475000D01*
G75*
G02*
X166325000Y-102400000I75000J0D01*
G01*
X166475000Y-102400000D01*
G75*
G02*
X166550000Y-102475000I0J-75000D01*
G01*
X166550000Y-103225000D01*
G75*
G02*
X166475000Y-103300000I-75000J0D01*
G01*
G37*
G36*
G01*
X166075000Y-103300000D02*
X165925000Y-103300000D01*
G75*
G02*
X165850000Y-103225000I0J75000D01*
G01*
X165850000Y-102475000D01*
G75*
G02*
X165925000Y-102400000I75000J0D01*
G01*
X166075000Y-102400000D01*
G75*
G02*
X166150000Y-102475000I0J-75000D01*
G01*
X166150000Y-103225000D01*
G75*
G02*
X166075000Y-103300000I-75000J0D01*
G01*
G37*
G36*
G01*
X165675000Y-103300000D02*
X165525000Y-103300000D01*
G75*
G02*
X165450000Y-103225000I0J75000D01*
G01*
X165450000Y-102475000D01*
G75*
G02*
X165525000Y-102400000I75000J0D01*
G01*
X165675000Y-102400000D01*
G75*
G02*
X165750000Y-102475000I0J-75000D01*
G01*
X165750000Y-103225000D01*
G75*
G02*
X165675000Y-103300000I-75000J0D01*
G01*
G37*
G36*
G01*
X165275000Y-103300000D02*
X165125000Y-103300000D01*
G75*
G02*
X165050000Y-103225000I0J75000D01*
G01*
X165050000Y-102475000D01*
G75*
G02*
X165125000Y-102400000I75000J0D01*
G01*
X165275000Y-102400000D01*
G75*
G02*
X165350000Y-102475000I0J-75000D01*
G01*
X165350000Y-103225000D01*
G75*
G02*
X165275000Y-103300000I-75000J0D01*
G01*
G37*
G36*
G01*
X164875000Y-103300000D02*
X164725000Y-103300000D01*
G75*
G02*
X164650000Y-103225000I0J75000D01*
G01*
X164650000Y-102475000D01*
G75*
G02*
X164725000Y-102400000I75000J0D01*
G01*
X164875000Y-102400000D01*
G75*
G02*
X164950000Y-102475000I0J-75000D01*
G01*
X164950000Y-103225000D01*
G75*
G02*
X164875000Y-103300000I-75000J0D01*
G01*
G37*
G36*
G01*
X164475000Y-103300000D02*
X164325000Y-103300000D01*
G75*
G02*
X164250000Y-103225000I0J75000D01*
G01*
X164250000Y-102475000D01*
G75*
G02*
X164325000Y-102400000I75000J0D01*
G01*
X164475000Y-102400000D01*
G75*
G02*
X164550000Y-102475000I0J-75000D01*
G01*
X164550000Y-103225000D01*
G75*
G02*
X164475000Y-103300000I-75000J0D01*
G01*
G37*
G36*
G01*
X164075000Y-103300000D02*
X163925000Y-103300000D01*
G75*
G02*
X163850000Y-103225000I0J75000D01*
G01*
X163850000Y-102475000D01*
G75*
G02*
X163925000Y-102400000I75000J0D01*
G01*
X164075000Y-102400000D01*
G75*
G02*
X164150000Y-102475000I0J-75000D01*
G01*
X164150000Y-103225000D01*
G75*
G02*
X164075000Y-103300000I-75000J0D01*
G01*
G37*
G36*
G01*
X163675000Y-103300000D02*
X163525000Y-103300000D01*
G75*
G02*
X163450000Y-103225000I0J75000D01*
G01*
X163450000Y-102475000D01*
G75*
G02*
X163525000Y-102400000I75000J0D01*
G01*
X163675000Y-102400000D01*
G75*
G02*
X163750000Y-102475000I0J-75000D01*
G01*
X163750000Y-103225000D01*
G75*
G02*
X163675000Y-103300000I-75000J0D01*
G01*
G37*
G36*
G01*
X163275000Y-103300000D02*
X163125000Y-103300000D01*
G75*
G02*
X163050000Y-103225000I0J75000D01*
G01*
X163050000Y-102475000D01*
G75*
G02*
X163125000Y-102400000I75000J0D01*
G01*
X163275000Y-102400000D01*
G75*
G02*
X163350000Y-102475000I0J-75000D01*
G01*
X163350000Y-103225000D01*
G75*
G02*
X163275000Y-103300000I-75000J0D01*
G01*
G37*
G36*
G01*
X162875000Y-103300000D02*
X162725000Y-103300000D01*
G75*
G02*
X162650000Y-103225000I0J75000D01*
G01*
X162650000Y-102475000D01*
G75*
G02*
X162725000Y-102400000I75000J0D01*
G01*
X162875000Y-102400000D01*
G75*
G02*
X162950000Y-102475000I0J-75000D01*
G01*
X162950000Y-103225000D01*
G75*
G02*
X162875000Y-103300000I-75000J0D01*
G01*
G37*
G36*
G01*
X162425000Y-103750000D02*
X161675000Y-103750000D01*
G75*
G02*
X161600000Y-103675000I0J75000D01*
G01*
X161600000Y-103525000D01*
G75*
G02*
X161675000Y-103450000I75000J0D01*
G01*
X162425000Y-103450000D01*
G75*
G02*
X162500000Y-103525000I0J-75000D01*
G01*
X162500000Y-103675000D01*
G75*
G02*
X162425000Y-103750000I-75000J0D01*
G01*
G37*
G36*
G01*
X162425000Y-104150000D02*
X161675000Y-104150000D01*
G75*
G02*
X161600000Y-104075000I0J75000D01*
G01*
X161600000Y-103925000D01*
G75*
G02*
X161675000Y-103850000I75000J0D01*
G01*
X162425000Y-103850000D01*
G75*
G02*
X162500000Y-103925000I0J-75000D01*
G01*
X162500000Y-104075000D01*
G75*
G02*
X162425000Y-104150000I-75000J0D01*
G01*
G37*
G36*
G01*
X162425000Y-104550000D02*
X161675000Y-104550000D01*
G75*
G02*
X161600000Y-104475000I0J75000D01*
G01*
X161600000Y-104325000D01*
G75*
G02*
X161675000Y-104250000I75000J0D01*
G01*
X162425000Y-104250000D01*
G75*
G02*
X162500000Y-104325000I0J-75000D01*
G01*
X162500000Y-104475000D01*
G75*
G02*
X162425000Y-104550000I-75000J0D01*
G01*
G37*
G36*
G01*
X162425000Y-104950000D02*
X161675000Y-104950000D01*
G75*
G02*
X161600000Y-104875000I0J75000D01*
G01*
X161600000Y-104725000D01*
G75*
G02*
X161675000Y-104650000I75000J0D01*
G01*
X162425000Y-104650000D01*
G75*
G02*
X162500000Y-104725000I0J-75000D01*
G01*
X162500000Y-104875000D01*
G75*
G02*
X162425000Y-104950000I-75000J0D01*
G01*
G37*
G36*
G01*
X162425000Y-105350000D02*
X161675000Y-105350000D01*
G75*
G02*
X161600000Y-105275000I0J75000D01*
G01*
X161600000Y-105125000D01*
G75*
G02*
X161675000Y-105050000I75000J0D01*
G01*
X162425000Y-105050000D01*
G75*
G02*
X162500000Y-105125000I0J-75000D01*
G01*
X162500000Y-105275000D01*
G75*
G02*
X162425000Y-105350000I-75000J0D01*
G01*
G37*
G36*
G01*
X162425000Y-105750000D02*
X161675000Y-105750000D01*
G75*
G02*
X161600000Y-105675000I0J75000D01*
G01*
X161600000Y-105525000D01*
G75*
G02*
X161675000Y-105450000I75000J0D01*
G01*
X162425000Y-105450000D01*
G75*
G02*
X162500000Y-105525000I0J-75000D01*
G01*
X162500000Y-105675000D01*
G75*
G02*
X162425000Y-105750000I-75000J0D01*
G01*
G37*
G36*
G01*
X162425000Y-106150000D02*
X161675000Y-106150000D01*
G75*
G02*
X161600000Y-106075000I0J75000D01*
G01*
X161600000Y-105925000D01*
G75*
G02*
X161675000Y-105850000I75000J0D01*
G01*
X162425000Y-105850000D01*
G75*
G02*
X162500000Y-105925000I0J-75000D01*
G01*
X162500000Y-106075000D01*
G75*
G02*
X162425000Y-106150000I-75000J0D01*
G01*
G37*
G36*
G01*
X162425000Y-106550000D02*
X161675000Y-106550000D01*
G75*
G02*
X161600000Y-106475000I0J75000D01*
G01*
X161600000Y-106325000D01*
G75*
G02*
X161675000Y-106250000I75000J0D01*
G01*
X162425000Y-106250000D01*
G75*
G02*
X162500000Y-106325000I0J-75000D01*
G01*
X162500000Y-106475000D01*
G75*
G02*
X162425000Y-106550000I-75000J0D01*
G01*
G37*
G36*
G01*
X162425000Y-106950000D02*
X161675000Y-106950000D01*
G75*
G02*
X161600000Y-106875000I0J75000D01*
G01*
X161600000Y-106725000D01*
G75*
G02*
X161675000Y-106650000I75000J0D01*
G01*
X162425000Y-106650000D01*
G75*
G02*
X162500000Y-106725000I0J-75000D01*
G01*
X162500000Y-106875000D01*
G75*
G02*
X162425000Y-106950000I-75000J0D01*
G01*
G37*
G36*
G01*
X162425000Y-107350000D02*
X161675000Y-107350000D01*
G75*
G02*
X161600000Y-107275000I0J75000D01*
G01*
X161600000Y-107125000D01*
G75*
G02*
X161675000Y-107050000I75000J0D01*
G01*
X162425000Y-107050000D01*
G75*
G02*
X162500000Y-107125000I0J-75000D01*
G01*
X162500000Y-107275000D01*
G75*
G02*
X162425000Y-107350000I-75000J0D01*
G01*
G37*
G36*
G01*
X162425000Y-107750000D02*
X161675000Y-107750000D01*
G75*
G02*
X161600000Y-107675000I0J75000D01*
G01*
X161600000Y-107525000D01*
G75*
G02*
X161675000Y-107450000I75000J0D01*
G01*
X162425000Y-107450000D01*
G75*
G02*
X162500000Y-107525000I0J-75000D01*
G01*
X162500000Y-107675000D01*
G75*
G02*
X162425000Y-107750000I-75000J0D01*
G01*
G37*
G36*
G01*
X162425000Y-108150000D02*
X161675000Y-108150000D01*
G75*
G02*
X161600000Y-108075000I0J75000D01*
G01*
X161600000Y-107925000D01*
G75*
G02*
X161675000Y-107850000I75000J0D01*
G01*
X162425000Y-107850000D01*
G75*
G02*
X162500000Y-107925000I0J-75000D01*
G01*
X162500000Y-108075000D01*
G75*
G02*
X162425000Y-108150000I-75000J0D01*
G01*
G37*
G36*
G01*
X167300000Y-108150000D02*
X162700000Y-108150000D01*
G75*
G02*
X162650000Y-108100000I0J50000D01*
G01*
X162650000Y-103500000D01*
G75*
G02*
X162700000Y-103450000I50000J0D01*
G01*
X167300000Y-103450000D01*
G75*
G02*
X167350000Y-103500000I0J-50000D01*
G01*
X167350000Y-108100000D01*
G75*
G02*
X167300000Y-108150000I-50000J0D01*
G01*
G37*
%TD*%
%TO.C,U2*%
G36*
G01*
X159800000Y-102625000D02*
X159800000Y-102875000D01*
G75*
G02*
X159750000Y-102925000I-50000J0D01*
G01*
X159050000Y-102925000D01*
G75*
G02*
X159000000Y-102875000I0J50000D01*
G01*
X159000000Y-102625000D01*
G75*
G02*
X159050000Y-102575000I50000J0D01*
G01*
X159750000Y-102575000D01*
G75*
G02*
X159800000Y-102625000I0J-50000D01*
G01*
G37*
G36*
G01*
X159800000Y-102125000D02*
X159800000Y-102375000D01*
G75*
G02*
X159750000Y-102425000I-50000J0D01*
G01*
X159050000Y-102425000D01*
G75*
G02*
X159000000Y-102375000I0J50000D01*
G01*
X159000000Y-102125000D01*
G75*
G02*
X159050000Y-102075000I50000J0D01*
G01*
X159750000Y-102075000D01*
G75*
G02*
X159800000Y-102125000I0J-50000D01*
G01*
G37*
G36*
G01*
X159800000Y-101625000D02*
X159800000Y-101875000D01*
G75*
G02*
X159750000Y-101925000I-50000J0D01*
G01*
X159050000Y-101925000D01*
G75*
G02*
X159000000Y-101875000I0J50000D01*
G01*
X159000000Y-101625000D01*
G75*
G02*
X159050000Y-101575000I50000J0D01*
G01*
X159750000Y-101575000D01*
G75*
G02*
X159800000Y-101625000I0J-50000D01*
G01*
G37*
G36*
G01*
X159800000Y-101125000D02*
X159800000Y-101375000D01*
G75*
G02*
X159750000Y-101425000I-50000J0D01*
G01*
X159050000Y-101425000D01*
G75*
G02*
X159000000Y-101375000I0J50000D01*
G01*
X159000000Y-101125000D01*
G75*
G02*
X159050000Y-101075000I50000J0D01*
G01*
X159750000Y-101075000D01*
G75*
G02*
X159800000Y-101125000I0J-50000D01*
G01*
G37*
G36*
G01*
X158000000Y-102625000D02*
X158000000Y-102875000D01*
G75*
G02*
X157950000Y-102925000I-50000J0D01*
G01*
X157250000Y-102925000D01*
G75*
G02*
X157200000Y-102875000I0J50000D01*
G01*
X157200000Y-102625000D01*
G75*
G02*
X157250000Y-102575000I50000J0D01*
G01*
X157950000Y-102575000D01*
G75*
G02*
X158000000Y-102625000I0J-50000D01*
G01*
G37*
G36*
G01*
X158000000Y-102125000D02*
X158000000Y-102375000D01*
G75*
G02*
X157950000Y-102425000I-50000J0D01*
G01*
X157250000Y-102425000D01*
G75*
G02*
X157200000Y-102375000I0J50000D01*
G01*
X157200000Y-102125000D01*
G75*
G02*
X157250000Y-102075000I50000J0D01*
G01*
X157950000Y-102075000D01*
G75*
G02*
X158000000Y-102125000I0J-50000D01*
G01*
G37*
G36*
G01*
X158000000Y-101125000D02*
X158000000Y-101375000D01*
G75*
G02*
X157950000Y-101425000I-50000J0D01*
G01*
X157250000Y-101425000D01*
G75*
G02*
X157200000Y-101375000I0J50000D01*
G01*
X157200000Y-101125000D01*
G75*
G02*
X157250000Y-101075000I50000J0D01*
G01*
X157950000Y-101075000D01*
G75*
G02*
X158000000Y-101125000I0J-50000D01*
G01*
G37*
G36*
G01*
X158000000Y-101625000D02*
X158000000Y-101875000D01*
G75*
G02*
X157950000Y-101925000I-50000J0D01*
G01*
X157250000Y-101925000D01*
G75*
G02*
X157200000Y-101875000I0J50000D01*
G01*
X157200000Y-101625000D01*
G75*
G02*
X157250000Y-101575000I50000J0D01*
G01*
X157950000Y-101575000D01*
G75*
G02*
X158000000Y-101625000I0J-50000D01*
G01*
G37*
G36*
G01*
X158900000Y-101650000D02*
X158900000Y-102350000D01*
G75*
G02*
X158850000Y-102400000I-50000J0D01*
G01*
X158150000Y-102400000D01*
G75*
G02*
X158100000Y-102350000I0J50000D01*
G01*
X158100000Y-101650000D01*
G75*
G02*
X158150000Y-101600000I50000J0D01*
G01*
X158850000Y-101600000D01*
G75*
G02*
X158900000Y-101650000I0J-50000D01*
G01*
G37*
G36*
G01*
X158625000Y-100700000D02*
X158875000Y-100700000D01*
G75*
G02*
X158925000Y-100750000I0J-50000D01*
G01*
X158925000Y-101450000D01*
G75*
G02*
X158875000Y-101500000I-50000J0D01*
G01*
X158625000Y-101500000D01*
G75*
G02*
X158575000Y-101450000I0J50000D01*
G01*
X158575000Y-100750000D01*
G75*
G02*
X158625000Y-100700000I50000J0D01*
G01*
G37*
G36*
G01*
X158625000Y-102500000D02*
X158875000Y-102500000D01*
G75*
G02*
X158925000Y-102550000I0J-50000D01*
G01*
X158925000Y-103250000D01*
G75*
G02*
X158875000Y-103300000I-50000J0D01*
G01*
X158625000Y-103300000D01*
G75*
G02*
X158575000Y-103250000I0J50000D01*
G01*
X158575000Y-102550000D01*
G75*
G02*
X158625000Y-102500000I50000J0D01*
G01*
G37*
G36*
G01*
X158125000Y-100700000D02*
X158375000Y-100700000D01*
G75*
G02*
X158425000Y-100750000I0J-50000D01*
G01*
X158425000Y-101450000D01*
G75*
G02*
X158375000Y-101500000I-50000J0D01*
G01*
X158125000Y-101500000D01*
G75*
G02*
X158075000Y-101450000I0J50000D01*
G01*
X158075000Y-100750000D01*
G75*
G02*
X158125000Y-100700000I50000J0D01*
G01*
G37*
G36*
G01*
X158125000Y-102500000D02*
X158375000Y-102500000D01*
G75*
G02*
X158425000Y-102550000I0J-50000D01*
G01*
X158425000Y-103250000D01*
G75*
G02*
X158375000Y-103300000I-50000J0D01*
G01*
X158125000Y-103300000D01*
G75*
G02*
X158075000Y-103250000I0J50000D01*
G01*
X158075000Y-102550000D01*
G75*
G02*
X158125000Y-102500000I50000J0D01*
G01*
G37*
%TD*%
%TO.C,Y1*%
G36*
G01*
X164550000Y-96700000D02*
X164550000Y-97700000D01*
G75*
G02*
X164500000Y-97750000I-50000J0D01*
G01*
X163350000Y-97750000D01*
G75*
G02*
X163300000Y-97700000I0J50000D01*
G01*
X163300000Y-96700000D01*
G75*
G02*
X163350000Y-96650000I50000J0D01*
G01*
X164500000Y-96650000D01*
G75*
G02*
X164550000Y-96700000I0J-50000D01*
G01*
G37*
G36*
G01*
X162800000Y-96700000D02*
X162800000Y-97700000D01*
G75*
G02*
X162750000Y-97750000I-50000J0D01*
G01*
X161600000Y-97750000D01*
G75*
G02*
X161550000Y-97700000I0J50000D01*
G01*
X161550000Y-96700000D01*
G75*
G02*
X161600000Y-96650000I50000J0D01*
G01*
X162750000Y-96650000D01*
G75*
G02*
X162800000Y-96700000I0J-50000D01*
G01*
G37*
G36*
G01*
X162800000Y-98100000D02*
X162800000Y-99100000D01*
G75*
G02*
X162750000Y-99150000I-50000J0D01*
G01*
X161600000Y-99150000D01*
G75*
G02*
X161550000Y-99100000I0J50000D01*
G01*
X161550000Y-98100000D01*
G75*
G02*
X161600000Y-98050000I50000J0D01*
G01*
X162750000Y-98050000D01*
G75*
G02*
X162800000Y-98100000I0J-50000D01*
G01*
G37*
G36*
G01*
X164550000Y-98100000D02*
X164550000Y-99100000D01*
G75*
G02*
X164500000Y-99150000I-50000J0D01*
G01*
X163350000Y-99150000D01*
G75*
G02*
X163300000Y-99100000I0J50000D01*
G01*
X163300000Y-98100000D01*
G75*
G02*
X163350000Y-98050000I50000J0D01*
G01*
X164500000Y-98050000D01*
G75*
G02*
X164550000Y-98100000I0J-50000D01*
G01*
G37*
%TD*%
D16*
X167246297Y-89743093D02*
X167873461Y-89900831D01*
X168489725Y-90096878D01*
X169092752Y-90330492D01*
X169680253Y-90600785D01*
X170250000Y-90906733D01*
X170799832Y-91247175D01*
X171327664Y-91620819D01*
X171831492Y-92026248D01*
X172309406Y-92461925D01*
X172759594Y-92926196D01*
X173180346Y-93417300D01*
X173570068Y-93933375D01*
X173927280Y-94472462D01*
X174250628Y-95032518D01*
X174538885Y-95611416D01*
X174790958Y-96206963D01*
X175005891Y-96816897D01*
X175182868Y-97438906D01*
X175321218Y-98070630D01*
X175323000Y-98082110D01*
X175323000Y-98122552D01*
X170982686Y-99285642D01*
X170831955Y-93601633D01*
X170828859Y-93576930D01*
X170821003Y-93553306D01*
X170808689Y-93531668D01*
X170792390Y-93512848D01*
X170772733Y-93497570D01*
X170750473Y-93486420D01*
X170726466Y-93479827D01*
X170706473Y-93478009D01*
X159496473Y-93348009D01*
X159471670Y-93350161D01*
X159447763Y-93357112D01*
X159425672Y-93368592D01*
X159406245Y-93384162D01*
X159390229Y-93403223D01*
X159378239Y-93425042D01*
X159370736Y-93448781D01*
X159368096Y-93470066D01*
X159178292Y-98351436D01*
X154706139Y-97945716D01*
X154817132Y-97438906D01*
X154994109Y-96816897D01*
X155209042Y-96206963D01*
X155461115Y-95611416D01*
X155749372Y-95032518D01*
X156072720Y-94472462D01*
X156429932Y-93933375D01*
X156819654Y-93417300D01*
X157240406Y-92926196D01*
X157690594Y-92461925D01*
X158168508Y-92026248D01*
X158672336Y-91620819D01*
X159200168Y-91247175D01*
X159750000Y-90906733D01*
X160319747Y-90600785D01*
X160907248Y-90330492D01*
X161510275Y-90096878D01*
X162126539Y-89900831D01*
X162753703Y-89743093D01*
X163374746Y-89627000D01*
X166625254Y-89627000D01*
X167246297Y-89743093D01*
D12*
G36*
X167246297Y-89743093D02*
G01*
X167873461Y-89900831D01*
X168489725Y-90096878D01*
X169092752Y-90330492D01*
X169680253Y-90600785D01*
X170250000Y-90906733D01*
X170799832Y-91247175D01*
X171327664Y-91620819D01*
X171831492Y-92026248D01*
X172309406Y-92461925D01*
X172759594Y-92926196D01*
X173180346Y-93417300D01*
X173570068Y-93933375D01*
X173927280Y-94472462D01*
X174250628Y-95032518D01*
X174538885Y-95611416D01*
X174790958Y-96206963D01*
X175005891Y-96816897D01*
X175182868Y-97438906D01*
X175321218Y-98070630D01*
X175323000Y-98082110D01*
X175323000Y-98122552D01*
X170982686Y-99285642D01*
X170831955Y-93601633D01*
X170828859Y-93576930D01*
X170821003Y-93553306D01*
X170808689Y-93531668D01*
X170792390Y-93512848D01*
X170772733Y-93497570D01*
X170750473Y-93486420D01*
X170726466Y-93479827D01*
X170706473Y-93478009D01*
X159496473Y-93348009D01*
X159471670Y-93350161D01*
X159447763Y-93357112D01*
X159425672Y-93368592D01*
X159406245Y-93384162D01*
X159390229Y-93403223D01*
X159378239Y-93425042D01*
X159370736Y-93448781D01*
X159368096Y-93470066D01*
X159178292Y-98351436D01*
X154706139Y-97945716D01*
X154817132Y-97438906D01*
X154994109Y-96816897D01*
X155209042Y-96206963D01*
X155461115Y-95611416D01*
X155749372Y-95032518D01*
X156072720Y-94472462D01*
X156429932Y-93933375D01*
X156819654Y-93417300D01*
X157240406Y-92926196D01*
X157690594Y-92461925D01*
X158168508Y-92026248D01*
X158672336Y-91620819D01*
X159200168Y-91247175D01*
X159750000Y-90906733D01*
X160319747Y-90600785D01*
X160907248Y-90330492D01*
X161510275Y-90096878D01*
X162126539Y-89900831D01*
X162753703Y-89743093D01*
X163374746Y-89627000D01*
X166625254Y-89627000D01*
X167246297Y-89743093D01*
G37*
M02*
