M48
; DRILL file {KiCad 5.1.7-a382d34a8~87~ubuntu20.04.1} date Mon Oct 26 14:54:01 2020
; FORMAT={-:-/ absolute / metric / decimal}
; #@! TF.CreationDate,2020-10-26T14:54:01+05:00
; #@! TF.GenerationSoftware,Kicad,Pcbnew,5.1.7-a382d34a8~87~ubuntu20.04.1
FMAT,2
METRIC
T1C0.300
T2C0.400
T3C0.800
T4C0.500
T5C1.000
%
G90
G05
T1
X170.903Y-96.337
T2
X155.7Y-98.6
X156.0Y-106.8
X156.5Y-101.25
X157.0Y-98.7
X158.3Y-98.8
X158.7Y-109.1
X159.385Y-104.2
X159.6Y-98.8
X160.1Y-97.5
X160.5Y-108.9
X160.7Y-96.6
X160.8Y-101.2
X160.8Y-104.95
X160.9Y-110.0
X161.5Y-95.8
X161.9Y-102.8
X162.5Y-95.1
X162.75Y-113.85
X162.8Y-111.4
X163.6Y-94.7
X164.9Y-94.5
X165.0Y-104.3
X165.0Y-105.8
X165.0Y-107.3
X165.0Y-111.4
X165.45Y-99.1
X166.1Y-113.85
X166.3Y-94.7
X166.92Y-112.88
X167.0Y-99.3
X167.4Y-101.25
X167.6Y-95.2
X167.6Y-98.5
X168.15Y-100.5
X168.9Y-99.75
X169.2Y-106.1
X169.2Y-109.0
X170.2Y-99.0
X170.2Y-112.3
X170.25Y-106.25
X170.9Y-99.9
X171.9Y-99.6
X172.5Y-100.8
X173.0Y-99.3
X174.2Y-99.0
T3
X161.0Y-113.0
X157.0Y-109.0
T4
X156.0Y-99.75
X156.0Y-105.25
T5
X173.8Y-101.65
X173.8Y-103.35
T0
M30
